<?xml version="1.0" encoding="UTF-8" standalone="no"?>
<!DOCTYPE svg PUBLIC "-//W3C//DTD SVG 1.0//EN" "http://www.w3.org/TR/2001/REC-SVG-20010904/DTD/svg10.dtd">
<!-- Generated by Microsoft Visio 11.0, SVG Export, v1.0 Request-for-a-NonCachedPage1.svg Page 1 -->
<svg xmlns="http://www.w3.org/2000/svg" xmlns:xlink="http://www.w3.org/1999/xlink" xmlns:ev="http://www.w3.org/2001/xml-events"
		xmlns:v="http://schemas.microsoft.com/visio/2003/SVGExtensions/" width="11.4173in" height="15.2362in"
		viewBox="0 0 822.047 1097.01" xml:space="preserve" color-interpolation-filters="sRGB" class="st9">
	<v:documentProperties v:langID="1031" v:viewMarkup="false"/>

	<style type="text/css">
	<![CDATA[
		.st1 {fill:#ffffff;stroke:#000000;stroke-linecap:round;stroke-linejoin:round;stroke-width:0.9}
		.st2 {fill:#000000;font-family:Calibri;font-size:0.666664em}
		.st3 {font-size:1em;text-decoration:underline}
		.st4 {stroke:#000000;stroke-dasharray:6.3,4.5;stroke-linecap:round;stroke-linejoin:round;stroke-width:0.9}
		.st5 {marker-end:url(#mrkr4-44);stroke:#000000;stroke-linecap:round;stroke-linejoin:round;stroke-width:0.9}
		.st6 {fill:#000000;fill-opacity:1;stroke:#000000;stroke-opacity:1;stroke-width:0.26315789473684}
		.st7 {marker-end:url(#mrkr3-57);stroke:#000000;stroke-dasharray:0,4.5;stroke-linecap:round;stroke-linejoin:round;stroke-width:0.9}
		.st8 {stroke:#000000;stroke-dasharray:0,4.5;stroke-linecap:round;stroke-linejoin:round;stroke-width:0.9}
		.st9 {fill:none;fill-rule:evenodd;font-size:12px;overflow:visible;stroke-linecap:square;stroke-miterlimit:3}
	]]>
	</style>

	<defs id="Markers">
		<g id="lend4">
			<path d="M 2 1 L 0 0 L 2 -1 L 2 1 " style="stroke:none"/>
		</g>
		<marker id="mrkr4-44" class="st6" v:arrowType="4" v:arrowSize="2" v:setback="7.6" refX="-7.6" orient="auto"
				markerUnits="strokeWidth" overflow="visible">
			<use xlink:href="#lend4" transform="scale(-3.8,-3.8) "/>
		</marker>
		<g id="lend3">
			<path d="M 2 1 L 0 0 L 2 -1 " style="stroke-linecap:round;stroke-linejoin:round;fill:none"/>
		</g>
		<marker id="mrkr3-57" class="st6" v:arrowType="3" v:arrowSize="2" orient="auto" markerUnits="strokeWidth"
				overflow="visible">
			<use xlink:href="#lend3" transform="scale(-3.8,-3.8) "/>
		</marker>
	</defs>
	<g v:mID="0" v:index="1" v:groupContext="foregroundPage">
		<title>Page 1</title>
		<v:pageProperties v:drawingScale="1" v:pageScale="1" v:drawingUnits="19" v:shadowOffsetX="9" v:shadowOffsetY="-9"/>
		<g id="group1-1" transform="translate(27,-1034.01)" v:mID="1" v:groupContext="group">
			<title>com.lucidchart.UMLObjectBlock</title>
			<desc>MediaWiki</desc>
			<g id="shape2-2" v:mID="2" v:groupContext="shape">
				<title>Sheet.2</title>
				<path d="M0 1045.25 C0 1044 0.99 1043.01 2.25 1043.01 L69.75 1043.01 C71.01 1043.01 72 1044 72 1045.25 L72 1094.75
							 C72 1096.02 71.01 1097.01 69.75 1097.01 L2.25 1097.01 C0.99 1097.01 -0 1096.02 0 1094.75 L0 1045.25
							 Z" class="st1"/>
			</g>
			<g id="shape1-4" v:mID="1" v:groupContext="groupContent">
				<v:textBlock v:margins="rect(0,0,0,0)"/>
				<v:textRect cx="36" cy="1070.01" width="72" height="54"/>
				<text x="18.44" y="1072.01" class="st2" v:langID="1031"><v:paragraph v:spLine="-1" v:horizAlign="1"/><v:tabList/><tspan
							class="st3">MediaWiki</tspan></text>			</g>
		</g>
		<g id="shape3-7" v:mID="3" v:groupContext="shape" transform="translate(63,-8.0064)">
			<title>com.lucidchart.Line</title>
			<desc>Text</desc>
			<v:textBlock v:margins="rect(0,0,0,0)"/>
			<v:textRect cx="0" cy="184.336" width="40" height="8.00357"/>
			<path d="M0 71.01 L0 1097.01" class="st4"/>
			<text x="-7.01" y="186.34" class="st2" v:langID="1031"><v:paragraph v:spLine="-1" v:horizAlign="1"/><v:tabList/>Text</text>		</g>
		<g id="group4-11" transform="translate(54,-26.0064)" v:mID="4" v:groupContext="group">
			<title>com.lucidchart.UMLActivationBlock</title>
			<g id="shape5-12" v:mID="5" v:groupContext="shape">
				<title>Sheet.5</title>
				<path d="M0 134.46 C-0 119.55 0.95 107.6 2.16 107.03 a0.225 0.225 0 0 1 0.0952536 -0.0211575 L15.75 107.01 a0.225
							 0.225 0 0 1 0.098426 0.0226702 C17.06 107.62 18 119.57 18 134.46 L18 1069.46 C18 1084.45 17.06 1096.4
							 15.85 1096.99 a0.225 0.225 0 0 1 -0.09846 0.0226868 L2.26 1097.01 a0.225 0.225 0 0 1 -0.0952882 -0.0211737
							 C0.95 1096.42 -0 1084.46 0 1069.46 L0 134.46 Z" class="st1"/>
			</g>
		</g>
		<g id="group6-14" transform="translate(117,-827.006)" v:mID="6" v:groupContext="group">
			<title>com.lucidchart.UMLObjectBlock.6</title>
			<desc>Article</desc>
			<g id="shape7-15" v:mID="7" v:groupContext="shape">
				<title>Sheet.7</title>
				<path d="M0 1062.51 C0 1061.67 0.99 1061.01 2.25 1061.01 L69.75 1061.01 C71.01 1061.01 72 1061.67 72 1062.51 L72
							 1095.51 C72 1096.35 71.01 1097.01 69.75 1097.01 L2.25 1097.01 C0.99 1097.01 -0 1096.35 0 1095.51 L0
							 1062.51 Z" class="st1"/>
			</g>
			<g id="shape6-17" v:mID="6" v:groupContext="groupContent">
				<v:textBlock v:margins="rect(0,0,0,0)"/>
				<v:textRect cx="36" cy="1079.01" width="72" height="36"/>
				<text x="25.43" y="1081.01" class="st2" v:langID="1031"><v:paragraph v:spLine="-1" v:horizAlign="1"/><v:tabList/><tspan
							class="st3">Article</tspan></text>			</g>
		</g>
		<g id="shape8-20" v:mID="8" v:groupContext="shape" transform="translate(360,-665.006)">
			<title>com.lucidchart.Line.8</title>
			<path d="M0 1052.01 L0 1097.01" class="st4"/>
		</g>
		<g id="group9-23" transform="translate(324,-710.006)" v:mID="9" v:groupContext="group">
			<title>com.lucidchart.UMLObjectBlock.9</title>
			<desc>Action</desc>
			<g id="shape10-24" v:mID="10" v:groupContext="shape">
				<title>Sheet.10</title>
				<path d="M0 1062.51 C0 1061.67 0.99 1061.01 2.25 1061.01 L69.75 1061.01 C71.01 1061.01 72 1061.67 72 1062.51 L72
							 1095.51 C72 1096.35 71.01 1097.01 69.75 1097.01 L2.25 1097.01 C0.99 1097.01 -0 1096.35 0 1095.51 L0
							 1062.51 Z" class="st1"/>
			</g>
			<g id="shape9-26" v:mID="9" v:groupContext="groupContent">
				<v:textBlock v:margins="rect(0,0,0,0)"/>
				<v:textRect cx="36" cy="1079.01" width="72" height="36"/>
				<text x="25.53" y="1081.01" class="st2" v:langID="1031"><v:paragraph v:spLine="-1" v:horizAlign="1"/><v:tabList/><tspan
							class="st3">Action</tspan></text>			</g>
		</g>
		<g id="shape11-29" v:mID="11" v:groupContext="shape" transform="translate(153,-98.0064)">
			<title>com.lucidchart.Line.11</title>
			<path d="M0 368.01 L0 1097.01" class="st4"/>
		</g>
		<g id="group12-32" transform="translate(144,-116.006)" v:mID="12" v:groupContext="group">
			<title>com.lucidchart.UMLActivationBlock.12</title>
			<g id="shape13-33" v:mID="13" v:groupContext="shape">
				<title>Sheet.13</title>
				<path d="M0 423.23 C0 412.53 0.99 404.01 2.25 404.01 L15.75 404.01 C17.01 404.01 18 412.53 18 423.23 L18 1077.73
							 C18 1088.48 17.01 1097.01 15.75 1097.01 L2.25 1097.01 C0.99 1097.01 -0 1088.48 0 1077.73 L0 423.23 Z"
						class="st1"/>
			</g>
		</g>
		<g id="shape14-35" v:mID="14" v:groupContext="shape" transform="translate(360,-674.006)">
			<title>com.lucidchart.Line.14</title>
		</g>
		<g id="group15-36" transform="translate(351,-674.006)" v:mID="15" v:groupContext="group">
			<title>com.lucidchart.UMLActivationBlock.15</title>
			<g id="shape16-37" v:mID="16" v:groupContext="shape">
				<title>Sheet.16</title>
				<path d="M0 1070.76 C0 1070.34 0.99 1070.01 2.25 1070.01 L15.75 1070.01 C17.01 1070.01 18 1070.34 18 1070.76 L18
							 1096.26 C18 1096.68 17.01 1097.01 15.75 1097.01 L2.25 1097.01 C0.99 1097.01 -0 1096.68 0 1096.26 L0
							 1070.76 Z" class="st1"/>
			</g>
		</g>
		<g id="shape17-39" v:mID="17" v:groupContext="shape" transform="translate(9,-1007.01)">
			<title>com.lucidchart.Line.17</title>
			<desc>run()</desc>
			<v:textBlock v:margins="rect(0,0,0,0)"/>
			<v:textRect cx="22.5" cy="1090.35" width="40" height="8.00357"/>
			<path d="M0 1097.01 L38.16 1097.01" class="st5"/>
			<text x="14.48" y="1092.35" class="st2" v:langID="1031"><v:paragraph v:spLine="-1" v:horizAlign="1"/><v:tabList/>run()</text>		</g>
		<g id="shape18-46" v:mID="18" v:groupContext="shape" transform="translate(72,-800.006)">
			<title>com.lucidchart.Line.18</title>
			<desc>initializeArticle()</desc>
			<v:textBlock v:margins="rect(0,0,0,0)"/>
			<v:textRect cx="36" cy="1090.53" width="54.84" height="8.00357"/>
			<path d="M0 1097.01 L65.16 1097.01" class="st5"/>
			<text x="9.49" y="1092.53" class="st2" v:langID="1031"><v:paragraph v:spLine="-1" v:horizAlign="1"/><v:tabList/>initializeArticle()</text>		</g>
		<g id="shape19-52" v:mID="19" v:groupContext="shape" transform="translate(144,-773.006)">
			<title>com.lucidchart.Line.19</title>
			<desc>Article</desc>
			<v:textBlock v:margins="rect(0,0,0,0)"/>
			<v:textRect cx="-36" cy="1103.67" width="40" height="8.00357"/>
			<path d="M0 1097.01 L-72 1097.01" class="st7"/>
			<text x="-46.57" y="1105.67" class="st2" v:langID="1031"><v:paragraph v:spLine="-1" v:horizAlign="1"/><v:tabList/>Article</text>		</g>
		<g id="shape20-59" v:mID="20" v:groupContext="shape" transform="translate(72,-692.006)">
			<title>com.lucidchart.Line.20</title>
			<desc>factory()</desc>
			<v:textBlock v:margins="rect(0,0,0,0)"/>
			<v:textRect cx="234.54" cy="1090.35" width="40" height="8.00357"/>
			<path d="M0 1097.01 L272.16 1097.01" class="st5"/>
			<text x="220.63" y="1092.35" class="st2" v:langID="1031"><v:paragraph v:spLine="-1" v:horizAlign="1"/><v:tabList/>factory()</text>		</g>
		<g id="shape21-65" v:mID="21" v:groupContext="shape" transform="translate(351,-683.006)">
			<title>com.lucidchart.Line.21</title>
			<desc>ViewAction</desc>
			<v:textBlock v:margins="rect(0,0,0,0)"/>
			<v:textRect cx="-42.7176" cy="1103.67" width="40" height="8.00357"/>
			<path d="M0 1097.01 L-279 1097.01" class="st7"/>
			<text x="-61.23" y="1105.67" class="st2" v:langID="1031"><v:paragraph v:spLine="-1" v:horizAlign="1"/><v:tabList/>ViewAction</text>		</g>
		<g id="group22-71" transform="translate(324,-620.006)" v:mID="22" v:groupContext="group">
			<title>com.lucidchart.UMLObjectBlock.22</title>
			<desc>ViewAction</desc>
			<g id="shape23-72" v:mID="23" v:groupContext="shape">
				<title>Sheet.23</title>
				<path d="M0 1062.51 C0 1061.67 0.99 1061.01 2.25 1061.01 L69.75 1061.01 C71.01 1061.01 72 1061.67 72 1062.51 L72
							 1095.51 C72 1096.35 71.01 1097.01 69.75 1097.01 L2.25 1097.01 C0.99 1097.01 -0 1096.35 0 1095.51 L0
							 1062.51 Z" class="st1"/>
			</g>
			<g id="shape22-74" v:mID="22" v:groupContext="groupContent">
				<v:textBlock v:margins="rect(0,0,0,0)"/>
				<v:textRect cx="36" cy="1079.01" width="72" height="36"/>
				<text x="17.49" y="1081.01" class="st2" v:langID="1031"><v:paragraph v:spLine="-1" v:horizAlign="1"/><v:tabList/><tspan
							class="st3">ViewAction</tspan></text>			</g>
		</g>
		<g id="shape24-77" v:mID="24" v:groupContext="shape" transform="translate(72,-593.006)">
			<title>com.lucidchart.Line.24</title>
			<desc>show()</desc>
			<v:textBlock v:margins="rect(0,0,0,0)"/>
			<v:textRect cx="240.113" cy="1090.35" width="40" height="8.00357"/>
			<path d="M0 1097.01 L272.16 1097.01" class="st5"/>
			<text x="229.05" y="1092.35" class="st2" v:langID="1031"><v:paragraph v:spLine="-1" v:horizAlign="1"/><v:tabList/>show()</text>		</g>
		<g id="shape25-83" v:mID="25" v:groupContext="shape" transform="translate(360,-71.0064)">
			<title>com.lucidchart.Line.25</title>
			<path d="M0 548.01 L0 1097.01" class="st4"/>
		</g>
		<g id="group26-86" transform="translate(351,-89.0064)" v:mID="26" v:groupContext="group">
			<title>com.lucidchart.UMLActivationBlock.26</title>
			<g id="shape27-87" v:mID="27" v:groupContext="shape">
				<title>Sheet.27</title>
				<path d="M0 589.48 C0 581.43 0.99 575.01 2.25 575.01 L15.75 575.01 C17.01 575.01 18 581.43 18 589.48 L18 1082.48
							 C18 1090.59 17.01 1097.01 15.75 1097.01 L2.25 1097.01 C0.99 1097.01 -0 1090.59 0 1082.48 L0 589.48 Z"
						class="st1"/>
			</g>
		</g>
		<g id="shape28-89" v:mID="28" v:groupContext="shape" transform="translate(351,-570.506)">
			<title>com.lucidchart.Line.28</title>
			<desc>view()</desc>
			<v:textBlock v:margins="rect(0,0,0,0)"/>
			<v:textRect cx="-94.5" cy="1090.35" width="40" height="8.00357"/>
			<path d="M0 1097.01 L-182.16 1097.01" class="st5"/>
			<text x="-104.5" y="1092.35" class="st2" v:langID="1031"><v:paragraph v:spLine="-1" v:horizAlign="1"/><v:tabList/>view()</text>		</g>
		<g id="group29-95" transform="translate(423,-1034.01)" v:mID="29" v:groupContext="group">
			<title>com.lucidchart.UMLObjectBlock.29</title>
			<desc>ParserCache</desc>
			<g id="shape30-96" v:mID="30" v:groupContext="shape">
				<title>Sheet.30</title>
				<path d="M0 1045.25 C0 1044 0.99 1043.01 2.25 1043.01 L69.75 1043.01 C71.01 1043.01 72 1044 72 1045.25 L72 1094.75
							 C72 1096.02 71.01 1097.01 69.75 1097.01 L2.25 1097.01 C0.99 1097.01 -0 1096.02 0 1094.75 L0 1045.25
							 Z" class="st1"/>
			</g>
			<g id="shape29-98" v:mID="29" v:groupContext="groupContent">
				<v:textBlock v:margins="rect(0,0,0,0)"/>
				<v:textRect cx="36" cy="1070.01" width="72" height="54"/>
				<text x="15.84" y="1072.01" class="st2" v:langID="1031"><v:paragraph v:spLine="-1" v:horizAlign="1"/><v:tabList/><tspan
							class="st3">ParserCache</tspan></text>			</g>
		</g>
		<g id="shape31-101" v:mID="31" v:groupContext="shape" transform="translate(459,-233.006)">
			<title>com.lucidchart.Line.31</title>
			<path d="M0 296.01 L0 1097.01" class="st4"/>
		</g>
		<g id="shape32-104" v:mID="32" v:groupContext="shape" transform="translate(162,-548.006)">
			<title>com.lucidchart.Line.32</title>
			<desc>singleton()</desc>
			<v:textBlock v:margins="rect(0,0,0,0)"/>
			<v:textRect cx="236.405" cy="1090.35" width="40" height="8.00357"/>
			<path d="M0 1097.01 L281.16 1097.01" class="st5"/>
			<text x="219.05" y="1092.35" class="st2" v:langID="1031"><v:paragraph v:spLine="-1" v:horizAlign="1"/><v:tabList/>singleton()</text>		</g>
		<g id="shape33-110" v:mID="33" v:groupContext="shape" transform="translate(450,-539.006)">
			<title>com.lucidchart.Line.33</title>
			<desc>ParserCache</desc>
			<v:textBlock v:margins="rect(0,0,0,0)"/>
			<v:textRect cx="-222.17" cy="1103.67" width="42.13" height="8.00357"/>
			<path d="M0 1097.01 L-288 1097.01" class="st7"/>
			<text x="-242.33" y="1105.67" class="st2" v:langID="1031"><v:paragraph v:spLine="-1" v:horizAlign="1"/><v:tabList/>ParserCache</text>		</g>
		<g id="shape34-116" v:mID="34" v:groupContext="shape" transform="translate(162,-512.006)">
			<title>com.lucidchart.Line.34</title>
			<desc>get()</desc>
			<v:textBlock v:margins="rect(0,0,0,0)"/>
			<v:textRect cx="244.809" cy="1090.35" width="40" height="8.00357"/>
			<path d="M0 1097.01 L281.16 1097.01" class="st5"/>
			<text x="237.17" y="1092.35" class="st2" v:langID="1031"><v:paragraph v:spLine="-1" v:horizAlign="1"/><v:tabList/>get()</text>		</g>
		<g id="shape35-122" v:mID="35" v:groupContext="shape" transform="translate(450,-503.006)">
			<title>com.lucidchart.Line.35</title>
			<desc>ParserOutput = false</desc>
			<v:textBlock v:margins="rect(0,0,0,0)"/>
			<v:textRect cx="-42.5985" cy="1103.67" width="68.56" height="8.00357"/>
			<path d="M0 1097.01 L-288 1097.01" class="st7"/>
			<text x="-75.97" y="1105.67" class="st2" v:langID="1031"><v:paragraph v:spLine="-1" v:horizAlign="1"/><v:tabList/>ParserOutput = false</text>		</g>
		<g id="group36-128" transform="translate(522,-1034.01)" v:mID="36" v:groupContext="group">
			<title>com.lucidchart.UMLObjectBlock.36</title>
			<desc>PoolWorkArticleView</desc>
			<g id="shape37-129" v:mID="37" v:groupContext="shape">
				<title>Sheet.37</title>
				<path d="M0 1045.25 C0 1044 1.24 1043.01 2.82 1043.01 L87.19 1043.01 C88.76 1043.01 90 1044 90 1045.25 L90 1094.75
							 C90 1096.02 88.76 1097.01 87.19 1097.01 L2.82 1097.01 C1.24 1097.01 0 1096.02 0 1094.75 L0 1045.25 Z"
						class="st1"/>
			</g>
			<g id="shape36-131" v:mID="36" v:groupContext="groupContent">
				<v:textBlock v:margins="rect(0,0,0,0)"/>
				<v:textRect cx="45" cy="1070.01" width="90" height="54"/>
				<text x="10.31" y="1072.01" class="st2" v:langID="1031"><v:paragraph v:spLine="-1" v:horizAlign="1"/><v:tabList/><tspan
							class="st3">PoolWorkArticleView</tspan></text>			</g>
		</g>
		<g id="shape38-134" v:mID="38" v:groupContext="shape" transform="translate(567,-152.006)">
			<title>com.lucidchart.Line.38</title>
			<path d="M0 215.01 L0 1097.01" class="st4"/>
		</g>
		<g id="group39-137" transform="translate(558,-170.006)" v:mID="39" v:groupContext="group">
			<title>com.lucidchart.UMLActivationBlock.39</title>
			<g id="shape40-138" v:mID="40" v:groupContext="shape">
				<title>Sheet.40</title>
				<path d="M0 790.74 C0 785.88 0.99 782.01 2.25 782.01 L15.75 782.01 C17.01 782.01 18 785.88 18 790.74 L18 1088.24
							 C18 1093.13 17.01 1097.01 15.75 1097.01 L2.25 1097.01 C0.99 1097.01 -0 1093.13 0 1088.24 L0 790.74 Z"
						class="st1"/>
			</g>
		</g>
		<g id="group41-140" transform="translate(450,-251.006)" v:mID="41" v:groupContext="group">
			<title>com.lucidchart.UMLActivationBlock.41</title>
			<g id="shape42-141" v:mID="42" v:groupContext="shape">
				<title>Sheet.42</title>
				<path d="M0 746.99 C0 741.44 0.99 737.01 2.25 737.01 L15.75 737.01 C17.01 737.01 18 741.44 18 746.99 L18 1086.99
							 C18 1092.58 17.01 1097.01 15.75 1097.01 L2.25 1097.01 C0.99 1097.01 -0 1092.58 0 1086.99 L0 746.99 Z"
						class="st1"/>
			</g>
		</g>
		<g id="shape43-143" v:mID="43" v:groupContext="shape" transform="translate(558,-458.006)">
			<title>com.lucidchart.Line.43</title>
			<desc>PoolWorkArticleView</desc>
			<v:textBlock v:margins="rect(0,0,0,0)"/>
			<v:textRect cx="-307.803" cy="1103.67" width="71.19" height="8.00357"/>
			<path d="M0 1097.01 L-396 1097.01" class="st7"/>
			<text x="-342.49" y="1105.67" class="st2" v:langID="1031"><v:paragraph v:spLine="-1" v:horizAlign="1"/><v:tabList/>PoolWorkArticleView</text>		</g>
		<g id="shape44-149" v:mID="44" v:groupContext="shape" transform="translate(162,-471.506)">
			<title>com.lucidchart.Line.44</title>
			<desc>new PoolWorkArticleView()</desc>
			<v:textBlock v:margins="rect(0,0,0,0)"/>
			<v:textRect cx="90.6048" cy="1090.53" width="91.75" height="8.00357"/>
			<path d="M0 1097.01 L389.16 1097.01" class="st5"/>
			<text x="45.64" y="1092.53" class="st2" v:langID="1031"><v:paragraph v:spLine="-1" v:horizAlign="1"/><v:tabList/>new PoolWorkArticleView()</text>		</g>
		<g id="shape45-155" v:mID="45" v:groupContext="shape" transform="translate(162,-440.006)">
			<title>com.lucidchart.Line.45</title>
			<desc>execute()</desc>
			<v:textBlock v:margins="rect(0,0,0,0)"/>
			<v:textRect cx="246.002" cy="1103.67" width="40" height="8.00357"/>
			<path d="M0 1097.01 L389.16 1097.01" class="st5"/>
			<text x="230.74" y="1105.67" class="st2" v:langID="1031"><v:paragraph v:spLine="-1" v:horizAlign="1"/><v:tabList/>execute()</text>		</g>
		<g id="shape46-161" v:mID="46" v:groupContext="shape" transform="translate(522,-345.506)">
			<title>com.lucidchart.Line.46</title>
			<desc>doWork()</desc>
			<v:textBlock v:margins="rect(0,0,0,0)"/>
			<v:textRect cx="17.0956" cy="1090.35" width="40" height="8.00357"/>
			<path d="M0 1097.01 L29.16 1097.01" class="st5"/>
			<text x="1.58" y="1092.35" class="st2" v:langID="1031"><v:paragraph v:spLine="-1" v:horizAlign="1"/><v:tabList/>doWork()</text>		</g>
		<g id="group47-167" transform="translate(477,-395.006)" v:mID="47" v:groupContext="group">
			<title>com.lucidchart.UMLObjectBlock.47</title>
			<desc>PoolCounterWork</desc>
			<g id="shape48-168" v:mID="48" v:groupContext="shape">
				<title>Sheet.48</title>
				<path d="M0 1062.51 C0 1061.67 0.99 1061.01 2.25 1061.01 L69.75 1061.01 C71.01 1061.01 72 1061.67 72 1062.51 L72
							 1095.51 C72 1096.35 71.01 1097.01 69.75 1097.01 L2.25 1097.01 C0.99 1097.01 -0 1096.35 0 1095.51 L0
							 1062.51 Z" class="st1"/>
			</g>
			<g id="shape47-170" v:mID="47" v:groupContext="groupContent">
				<v:textBlock v:margins="rect(0,0,0,0)"/>
				<v:textRect cx="36" cy="1079.01" width="72" height="36"/>
				<text x="6.75" y="1081.01" class="st2" v:langID="1031"><v:paragraph v:spLine="-1" v:horizAlign="1"/><v:tabList/><tspan
							class="st3">PoolCounterWork</tspan></text>			</g>
		</g>
		<g id="shape49-173" v:mID="49" v:groupContext="shape" transform="translate(513,-197.006)">
			<title>com.lucidchart.Line.49</title>
			<path d="M0 899.01 L0 1097.01" class="st4"/>
		</g>
		<g id="shape50-176" v:mID="50" v:groupContext="shape" transform="translate(567,-1021.76)">
			<title>com.lucidchart.Line.50</title>
			<path d="M0 1084.76 L0 1097.01" class="st4"/>
		</g>
		<g id="group51-179" transform="translate(639,-1034.01)" v:mID="51" v:groupContext="group">
			<title>com.lucidchart.UMLObjectBlock.51</title>
			<desc>WikitextContent</desc>
			<g id="shape52-180" v:mID="52" v:groupContext="shape">
				<title>Sheet.52</title>
				<path d="M0 1045.25 C0 1044 0.99 1043.01 2.25 1043.01 L69.75 1043.01 C71.01 1043.01 72 1044 72 1045.25 L72 1094.75
							 C72 1096.02 71.01 1097.01 69.75 1097.01 L2.25 1097.01 C0.99 1097.01 -0 1096.02 0 1094.75 L0 1045.25
							 Z" class="st1"/>
			</g>
			<g id="shape51-182" v:mID="51" v:groupContext="groupContent">
				<v:textBlock v:margins="rect(0,0,0,0)"/>
				<v:textRect cx="36" cy="1070.01" width="72" height="54"/>
				<text x="9.27" y="1072.01" class="st2" v:langID="1031"><v:paragraph v:spLine="-1" v:horizAlign="1"/><v:tabList/><tspan
							class="st3">WikitextContent</tspan></text>			</g>
		</g>
		<g id="shape53-185" v:mID="53" v:groupContext="shape" transform="translate(675,-242.006)">
			<title>com.lucidchart.Line.53</title>
			<path d="M0 305.01 L0 1097.01" class="st4"/>
		</g>
		<g id="group54-188" transform="translate(666,-260.006)" v:mID="54" v:groupContext="group">
			<title>com.lucidchart.UMLActivationBlock.54</title>
			<g id="shape55-189" v:mID="55" v:groupContext="shape">
				<title>Sheet.55</title>
				<path d="M0 1018.25 C0 1017 0.99 1016.01 2.25 1016.01 L15.75 1016.01 C17.01 1016.01 18 1017 18 1018.25 L18 1094.75
							 C18 1096.01 17.01 1097.01 15.75 1097.01 L2.25 1097.01 C0.99 1097.01 -0 1096.01 0 1094.75 L0 1018.25
							 Z" class="st1"/>
			</g>
		</g>
		<g id="shape56-191" v:mID="56" v:groupContext="shape" transform="translate(576,-332.006)">
			<title>com.lucidchart.Line.56</title>
			<desc>getParserOutput()</desc>
			<v:textBlock v:margins="rect(0,0,0,0)"/>
			<v:textRect cx="44.9965" cy="1090.53" width="61.01" height="8.00357"/>
			<path d="M0 1097.01 L83.16 1097.01" class="st5"/>
			<text x="15.4" y="1092.53" class="st2" v:langID="1031"><v:paragraph v:spLine="-1" v:horizAlign="1"/><v:tabList/>getParserOutput()</text>		</g>
		<g id="group57-197" transform="translate(504,-215.006)" v:mID="57" v:groupContext="group">
			<title>com.lucidchart.UMLActivationBlock.57</title>
			<g id="shape58-198" v:mID="58" v:groupContext="shape">
				<title>Sheet.58</title>
				<path d="M0 939.5 C0 937 0.99 935.01 2.25 935.01 L15.75 935.01 C17.01 935.01 18 937 18 939.5 L18 1092.5 C18 1095.02
							 17.01 1097.01 15.75 1097.01 L2.25 1097.01 C0.99 1097.01 -0 1095.02 0 1092.5 L0 939.5 Z" class="st1"/>
			</g>
		</g>
		<g id="group59-200" transform="translate(738,-1034.01)" v:mID="59" v:groupContext="group">
			<title>com.lucidchart.UMLObjectBlock.59</title>
			<desc>Parser</desc>
			<g id="shape60-201" v:mID="60" v:groupContext="shape">
				<title>Sheet.60</title>
				<path d="M0 1045.25 C0 1044 0.99 1043.01 2.25 1043.01 L69.75 1043.01 C71.01 1043.01 72 1044 72 1045.25 L72 1094.75
							 C72 1096.02 71.01 1097.01 69.75 1097.01 L2.25 1097.01 C0.99 1097.01 -0 1096.02 0 1094.75 L0 1045.25
							 Z" class="st1"/>
			</g>
			<g id="shape59-203" v:mID="59" v:groupContext="groupContent">
				<v:textBlock v:margins="rect(0,0,0,0)"/>
				<v:textRect cx="36" cy="1070.01" width="72" height="54"/>
				<text x="25.67" y="1072.01" class="st2" v:langID="1031"><v:paragraph v:spLine="-1" v:horizAlign="1"/><v:tabList/><tspan
							class="st3">Parser</tspan></text>			</g>
		</g>
		<g id="shape61-206" v:mID="61" v:groupContext="shape" transform="translate(774,-260.006)">
			<title>com.lucidchart.Line.61</title>
			<path d="M0 323.01 L0 1097.01" class="st4"/>
		</g>
		<g id="shape62-209" v:mID="62" v:groupContext="shape" transform="translate(684,-318.506)">
			<title>com.lucidchart.Line.62</title>
			<desc>parse()</desc>
			<v:textBlock v:margins="rect(0,0,0,0)"/>
			<v:textRect cx="40.5" cy="1090.35" width="40" height="8.00357"/>
			<path d="M0 1097.01 L74.16 1097.01" class="st5"/>
			<text x="29.11" y="1092.35" class="st2" v:langID="1031"><v:paragraph v:spLine="-1" v:horizAlign="1"/><v:tabList/>parse()</text>		</g>
		<g id="group63-215" transform="translate(765,-278.006)" v:mID="63" v:groupContext="group">
			<title>com.lucidchart.UMLActivationBlock.63</title>
			<g id="shape64-216" v:mID="64" v:groupContext="shape">
				<title>Sheet.64</title>
				<path d="M0 1044.51 C0 1043.67 0.99 1043.01 2.25 1043.01 L15.75 1043.01 C17.01 1043.01 18 1043.67 18 1044.51 L18
							 1095.51 C18 1096.34 17.01 1097.01 15.75 1097.01 L2.25 1097.01 C0.99 1097.01 -0 1096.34 0 1095.51 L0
							 1044.51 Z" class="st1"/>
			</g>
		</g>
		<g id="shape65-218" v:mID="65" v:groupContext="shape" transform="translate(765,-296.006)">
			<title>com.lucidchart.Line.65</title>
			<desc>ParserOutput</desc>
			<v:textBlock v:margins="rect(0,0,0,0)"/>
			<v:textRect cx="-40.5" cy="1103.67" width="45.73" height="8.00357"/>
			<path d="M0 1097.01 L-81 1097.01" class="st7"/>
			<text x="-62.46" y="1105.67" class="st2" v:langID="1031"><v:paragraph v:spLine="-1" v:horizAlign="1"/><v:tabList/>ParserOutput</text>		</g>
		<g id="shape66-224" v:mID="66" v:groupContext="shape" transform="translate(666,-282.506)">
			<title>com.lucidchart.Line.66</title>
			<desc>ParserOutput</desc>
			<v:textBlock v:margins="rect(0,0,0,0)"/>
			<v:textRect cx="-45" cy="1103.67" width="45.73" height="8.00357"/>
			<path d="M0 1097.01 L-90 1097.01" class="st7"/>
			<text x="-66.96" y="1105.67" class="st2" v:langID="1031"><v:paragraph v:spLine="-1" v:horizAlign="1"/><v:tabList/>ParserOutput</text>		</g>
		<g id="shape67-230" v:mID="67" v:groupContext="shape" transform="translate(558,-269.006)">
			<title>com.lucidchart.Line.67</title>
			<desc>singleton()-&#62;save()</desc>
			<v:textBlock v:margins="rect(0,0,0,0)"/>
			<v:textRect cx="-45.0034" cy="1103.49" width="62.36" height="8.00357"/>
			<path d="M0 1097.01 L-83.16 1097.01" class="st5"/>
			<text x="-75.27" y="1105.49" class="st2" v:langID="1031"><v:paragraph v:spLine="-1" v:horizAlign="1"/><v:tabList/>singleton()-&#62;save()</text>		</g>
		<g id="shape68-236" v:mID="68" v:groupContext="shape" transform="translate(558,-242.006)">
			<title>com.lucidchart.Line.68</title>
			<desc>true</desc>
			<v:textBlock v:margins="rect(0,0,0,0)"/>
			<v:textRect cx="-18.0103" cy="1103.67" width="40" height="8.00357"/>
			<path d="M0 1097.01 L-36 1097.01" class="st7"/>
			<text x="-24.84" y="1105.67" class="st2" v:langID="1031"><v:paragraph v:spLine="-1" v:horizAlign="1"/><v:tabList/>true</text>		</g>
		<g id="shape69-242" v:mID="69" v:groupContext="shape" transform="translate(504,-224.006)">
			<title>com.lucidchart.Line.69</title>
			<desc>true</desc>
			<v:textBlock v:margins="rect(0,0,0,0)"/>
			<v:textRect cx="-298.162" cy="1103.67" width="40" height="8.00357"/>
			<path d="M0 1097.01 L-342 1097.01" class="st7"/>
			<text x="-304.99" y="1105.67" class="st2" v:langID="1031"><v:paragraph v:spLine="-1" v:horizAlign="1"/><v:tabList/>true</text>		</g>
		<g id="shape70-248" v:mID="70" v:groupContext="shape" transform="translate(162,-125.006)">
			<title>com.lucidchart.Line.70</title>
			<path d="M0 1097.01 L189 1097.01" class="st7"/>
		</g>
		<g id="shape71-253" v:mID="71" v:groupContext="shape" transform="translate(351,-98.0064)">
			<title>com.lucidchart.Line.71</title>
			<path d="M0 1097.01 L-279 1097.01" class="st7"/>
		</g>
		<g id="shape72-258" v:mID="72" v:groupContext="shape" transform="translate(162,-188.006)">
			<title>com.lucidchart.Line.72</title>
			<desc>getParserOutput()</desc>
			<v:textBlock v:margins="rect(0,0,0,0)"/>
			<v:textRect cx="253.202" cy="1090.35" width="61.01" height="8.00357"/>
			<path d="M0 1097.01 L389.16 1097.01" class="st5"/>
			<text x="223.61" y="1092.35" class="st2" v:langID="1031"><v:paragraph v:spLine="-1" v:horizAlign="1"/><v:tabList/>getParserOutput()</text>		</g>
		<g id="shape73-264" v:mID="73" v:groupContext="shape" transform="translate(558,-179.006)">
			<title>com.lucidchart.Line.73</title>
			<desc>ParserOutput</desc>
			<v:textBlock v:margins="rect(0,0,0,0)"/>
			<v:textRect cx="-143.395" cy="1103.67" width="45.73" height="8.00357"/>
			<path d="M0 1097.01 L-396 1097.01" class="st7"/>
			<text x="-165.35" y="1105.67" class="st2" v:langID="1031"><v:paragraph v:spLine="-1" v:horizAlign="1"/><v:tabList/>ParserOutput</text>		</g>
		<g id="group74-270" transform="translate(693,-170.006)" v:mID="74" v:groupContext="group">
			<title>com.lucidchart.UMLObjectBlock.74</title>
			<desc>OutputPage</desc>
			<g id="shape75-271" v:mID="75" v:groupContext="shape">
				<title>Sheet.75</title>
				<path d="M0 1062.51 C0 1061.67 0.99 1061.01 2.25 1061.01 L69.75 1061.01 C71.01 1061.01 72 1061.67 72 1062.51 L72
							 1095.51 C72 1096.35 71.01 1097.01 69.75 1097.01 L2.25 1097.01 C0.99 1097.01 -0 1096.35 0 1095.51 L0
							 1062.51 Z" class="st1"/>
			</g>
			<g id="shape74-273" v:mID="74" v:groupContext="groupContent">
				<v:textBlock v:margins="rect(0,0,0,0)"/>
				<v:textRect cx="36" cy="1079.01" width="72" height="36"/>
				<text x="16.51" y="1081.01" class="st2" v:langID="1031"><v:paragraph v:spLine="-1" v:horizAlign="1"/><v:tabList/><tspan
							class="st3">OutputPage</tspan></text>			</g>
		</g>
		<g id="shape76-276" v:mID="76" v:groupContext="shape" transform="translate(729,-8.0064)">
			<title>com.lucidchart.Line.76</title>
			<path d="M0 935.01 L0 1097.01" class="st4"/>
		</g>
		<g id="group77-279" transform="translate(720,-26.0064)" v:mID="77" v:groupContext="group">
			<title>com.lucidchart.UMLActivationBlock.77</title>
			<g id="shape78-280" v:mID="78" v:groupContext="shape">
				<title>Sheet.78</title>
				<path d="M0 965.75 C0 963.67 0.99 962.01 2.25 962.01 L15.75 962.01 C17.01 962.01 18 963.67 18 965.75 L18 1093.25
							 C18 1095.35 17.01 1097.01 15.75 1097.01 L2.25 1097.01 C0.99 1097.01 -0 1095.35 0 1093.25 L0 965.75 Z"
						class="st1"/>
			</g>
		</g>
		<g id="shape79-282" v:mID="79" v:groupContext="shape" transform="translate(72,-53.0064)">
			<title>com.lucidchart.Line.79</title>
			<desc>output()</desc>
			<v:textBlock v:margins="rect(0,0,0,0)"/>
			<v:textRect cx="522.513" cy="1090.35" width="40" height="8.00357"/>
			<path d="M0 1097.01 L641.16 1097.01" class="st5"/>
			<text x="508.99" y="1092.35" class="st2" v:langID="1031"><v:paragraph v:spLine="-1" v:horizAlign="1"/><v:tabList/>output()</text>		</g>
		<g id="group80-288" transform="translate(126,-1034.01)" v:mID="80" v:groupContext="group">
			<title>com.lucidchart.UMLObjectBlock.80</title>
			<desc>Title</desc>
			<g id="shape81-289" v:mID="81" v:groupContext="shape">
				<title>Sheet.81</title>
				<path d="M0 1045.25 C0 1044 0.99 1043.01 2.25 1043.01 L69.75 1043.01 C71.01 1043.01 72 1044 72 1045.25 L72 1094.75
							 C72 1096.02 71.01 1097.01 69.75 1097.01 L2.25 1097.01 C0.99 1097.01 -0 1096.02 0 1094.75 L0 1045.25
							 Z" class="st1"/>
			</g>
			<g id="shape80-291" v:mID="80" v:groupContext="groupContent">
				<v:textBlock v:margins="rect(0,0,0,0)"/>
				<v:textRect cx="36" cy="1070.01" width="72" height="54"/>
				<text x="28.88" y="1072.01" class="st2" v:langID="1031"><v:paragraph v:spLine="-1" v:horizAlign="1"/><v:tabList/><tspan
							class="st3">Title</tspan></text>			</g>
		</g>
		<g id="shape82-294" v:mID="82" v:groupContext="shape" transform="translate(162,-962.006)">
			<title>com.lucidchart.Line.82</title>
			<path d="M0 1025.01 L0 1097.01" class="st4"/>
		</g>
		<g id="group83-297" transform="translate(153,-966.506)" v:mID="83" v:groupContext="group">
			<title>com.lucidchart.UMLActivationBlock.83</title>
			<g id="shape84-298" v:mID="84" v:groupContext="shape">
				<title>Sheet.84</title>
				<path d="M0 1057.63 C0 1057.01 0.99 1056.51 2.25 1056.51 L15.75 1056.51 C17.01 1056.51 18 1057.01 18 1057.63 L18
							 1095.88 C18 1096.51 17.01 1097.01 15.75 1097.01 L2.25 1097.01 C0.99 1097.01 -0 1096.51 0 1095.88 L0
							 1057.63 Z" class="st1"/>
			</g>
		</g>
		<g id="shape85-300" v:mID="85" v:groupContext="shape" transform="translate(72,-989.006)">
			<title>com.lucidchart.Line.85</title>
			<desc>newFromURL()</desc>
			<v:textBlock v:margins="rect(0,0,0,0)"/>
			<v:textRect cx="40.4967" cy="1090.35" width="50.48" height="8.00357"/>
			<path d="M0 1097.01 L74.16 1097.01" class="st5"/>
			<text x="16.16" y="1092.35" class="st2" v:langID="1031"><v:paragraph v:spLine="-1" v:horizAlign="1"/><v:tabList/>newFromURL()</text>		</g>
		<g id="shape86-306" v:mID="86" v:groupContext="shape" transform="translate(153,-980.006)">
			<title>com.lucidchart.Line.86</title>
			<desc>Title</desc>
			<v:textBlock v:margins="rect(0,0,0,0)"/>
			<v:textRect cx="-40.5" cy="1103.67" width="40" height="8.00357"/>
			<path d="M0 1097.01 L-81 1097.01" class="st8"/>
			<text x="-47.61" y="1105.67" class="st2" v:langID="1031"><v:paragraph v:spLine="-1" v:horizAlign="1"/><v:tabList/>Title</text>		</g>
		<g id="group87-310" transform="translate(225,-1034.01)" v:mID="87" v:groupContext="group">
			<title>com.lucidchart.UMLObjectBlock.87</title>
			<desc>WikiPage</desc>
			<g id="shape88-311" v:mID="88" v:groupContext="shape">
				<title>Sheet.88</title>
				<path d="M0 1045.25 C0 1044 0.99 1043.01 2.25 1043.01 L69.75 1043.01 C71.01 1043.01 72 1044 72 1045.25 L72 1094.75
							 C72 1096.02 71.01 1097.01 69.75 1097.01 L2.25 1097.01 C0.99 1097.01 -0 1096.02 0 1094.75 L0 1045.25
							 Z" class="st1"/>
			</g>
			<g id="shape87-313" v:mID="87" v:groupContext="groupContent">
				<v:textBlock v:margins="rect(0,0,0,0)"/>
				<v:textRect cx="36" cy="1070.01" width="72" height="54"/>
				<text x="20.93" y="1072.01" class="st2" v:langID="1031"><v:paragraph v:spLine="-1" v:horizAlign="1"/><v:tabList/><tspan
							class="st3">WikiPage</tspan></text>			</g>
		</g>
		<g id="shape89-316" v:mID="89" v:groupContext="shape" transform="translate(261,-710.006)">
			<title>com.lucidchart.Line.89</title>
			<path d="M0 773.01 L0 1097.01" class="st4"/>
		</g>
		<g id="group90-319" transform="translate(252,-737.006)" v:mID="90" v:groupContext="group">
			<title>com.lucidchart.UMLActivationBlock.90</title>
			<g id="shape91-320" v:mID="91" v:groupContext="shape">
				<title>Sheet.91</title>
				<path d="M0 878.25 C0 874.78 0.99 872.01 2.25 872.01 L15.75 872.01 C17.01 872.01 18 874.78 18 878.25 L18 1090.75
							 C18 1094.24 17.01 1097.01 15.75 1097.01 L2.25 1097.01 C0.99 1097.01 -0 1094.24 0 1090.75 L0 878.25 Z"
						class="st1"/>
			</g>
		</g>
		<g id="shape92-322" v:mID="92" v:groupContext="shape" transform="translate(72,-953.006)">
			<title>com.lucidchart.Line.92</title>
			<desc>factory()</desc>
			<v:textBlock v:margins="rect(0,0,0,0)"/>
			<v:textRect cx="137.146" cy="1090.35" width="40" height="8.00357"/>
			<path d="M0 1097.01 L173.16 1097.01" class="st5"/>
			<text x="123.24" y="1092.35" class="st2" v:langID="1031"><v:paragraph v:spLine="-1" v:horizAlign="1"/><v:tabList/>factory()</text>		</g>
		<g id="shape93-328" v:mID="93" v:groupContext="shape" transform="translate(252,-944.006)">
			<title>com.lucidchart.Line.93</title>
			<desc>WikiPage</desc>
			<v:textBlock v:margins="rect(0,0,0,0)"/>
			<v:textRect cx="-45.1482" cy="1103.67" width="40" height="8.00357"/>
			<path d="M0 1097.01 L-180 1097.01" class="st8"/>
			<text x="-60.22" y="1105.67" class="st2" v:langID="1031"><v:paragraph v:spLine="-1" v:horizAlign="1"/><v:tabList/>WikiPage</text>		</g>
		<g id="group94-332" transform="translate(324,-1034.01)" v:mID="94" v:groupContext="group">
			<title>com.lucidchart.UMLObjectBlock.94</title>
			<desc>Revision</desc>
			<g id="shape95-333" v:mID="95" v:groupContext="shape">
				<title>Sheet.95</title>
				<path d="M0 1045.25 C0 1044 0.99 1043.01 2.25 1043.01 L69.75 1043.01 C71.01 1043.01 72 1044 72 1045.25 L72 1094.75
							 C72 1096.02 71.01 1097.01 69.75 1097.01 L2.25 1097.01 C0.99 1097.01 -0 1096.02 0 1094.75 L0 1045.25
							 Z" class="st1"/>
			</g>
			<g id="shape94-335" v:mID="94" v:groupContext="groupContent">
				<v:textBlock v:margins="rect(0,0,0,0)"/>
				<v:textRect cx="36" cy="1070.01" width="72" height="54"/>
				<text x="22.42" y="1072.01" class="st2" v:langID="1031"><v:paragraph v:spLine="-1" v:horizAlign="1"/><v:tabList/><tspan
							class="st3">Revision</tspan></text>			</g>
		</g>
		<g id="shape96-338" v:mID="96" v:groupContext="shape" transform="translate(360,-755.006)">
			<title>com.lucidchart.Line.96</title>
			<path d="M0 818.01 L0 1097.01" class="st4"/>
		</g>
		<g id="group97-341" transform="translate(351,-764.006)" v:mID="97" v:groupContext="group">
			<title>com.lucidchart.UMLActivationBlock.97</title>
			<g id="shape98-342" v:mID="98" v:groupContext="shape">
				<title>Sheet.98</title>
				<path d="M0 965.75 C0 963.67 0.99 962.01 2.25 962.01 L15.75 962.01 C17.01 962.01 18 963.67 18 965.75 L18 1093.25
							 C18 1095.35 17.01 1097.01 15.75 1097.01 L2.25 1097.01 C0.99 1097.01 -0 1095.35 0 1093.25 L0 965.75 Z"
						class="st1"/>
			</g>
		</g>
		<g id="shape99-344" v:mID="99" v:groupContext="shape" transform="translate(72,-890.006)">
			<title>com.lucidchart.Line.99</title>
			<desc>newFromPageId()</desc>
			<v:textBlock v:margins="rect(0,0,0,0)"/>
			<v:textRect cx="234.605" cy="1090.35" width="59.57" height="8.00357"/>
			<path d="M0 1097.01 L272.16 1097.01" class="st5"/>
			<text x="205.73" y="1092.35" class="st2" v:langID="1031"><v:paragraph v:spLine="-1" v:horizAlign="1"/><v:tabList/>newFromPageId()</text>		</g>
		<g id="shape100-350" v:mID="100" v:groupContext="shape" transform="translate(351,-881.006)">
			<title>com.lucidchart.Line.100</title>
			<desc>Revision</desc>
			<v:textBlock v:margins="rect(0,0,0,0)"/>
			<v:textRect cx="-45" cy="1103.67" width="40" height="8.00357"/>
			<path d="M0 1097.01 L-279 1097.01" class="st8"/>
			<text x="-58.58" y="1105.67" class="st2" v:langID="1031"><v:paragraph v:spLine="-1" v:horizAlign="1"/><v:tabList/>Revision</text>		</g>
		<g id="shape101-354" v:mID="101" v:groupContext="shape" transform="translate(162,-147.506)">
			<title>com.lucidchart.Line.101</title>
			<desc>addParserOutput()</desc>
			<v:textBlock v:margins="rect(0,0,0,0)"/>
			<v:textRect cx="473.695" cy="1090.53" width="62.82" height="8.00357"/>
			<path d="M0 1097.01 L551.16 1097.01" class="st5"/>
			<text x="443.19" y="1092.53" class="st2" v:langID="1031"><v:paragraph v:spLine="-1" v:horizAlign="1"/><v:tabList/>addParserOutput()</text>		</g>
		<g id="shape102-360" v:mID="102" v:groupContext="shape" transform="translate(72,-917.006)">
			<title>com.lucidchart.Line.102</title>
			<desc>loadPageData()</desc>
			<v:textBlock v:margins="rect(0,0,0,0)"/>
			<v:textRect cx="69.0015" cy="1090.35" width="51.73" height="8.00357"/>
			<path d="M0 1097.01 L173.16 1097.01" class="st5"/>
			<text x="44.04" y="1092.35" class="st2" v:langID="1031"><v:paragraph v:spLine="-1" v:horizAlign="1"/><v:tabList/>loadPageData()</text>		</g>
		<g id="shape103-366" v:mID="103" v:groupContext="shape" transform="translate(270,-791.006)">
			<title>com.lucidchart.Line.103</title>
			<desc>getContent()</desc>
			<v:textBlock v:margins="rect(0,0,0,0)"/>
			<v:textRect cx="40.4965" cy="1090.35" width="43.32" height="8.00357"/>
			<path d="M0 1097.01 L74.16 1097.01" class="st5"/>
			<text x="19.74" y="1092.35" class="st2" v:langID="1031"><v:paragraph v:spLine="-1" v:horizAlign="1"/><v:tabList/>getContent()</text>		</g>
		<g id="shape104-372" v:mID="104" v:groupContext="shape" transform="translate(351,-782.006)">
			<title>com.lucidchart.Line.104</title>
			<desc>WikitextContent</desc>
			<v:textBlock v:margins="rect(0,0,0,0)"/>
			<v:textRect cx="-40.5035" cy="1103.67" width="55.28" height="8.00357"/>
			<path d="M0 1097.01 L-81 1097.01" class="st8"/>
			<text x="-67.23" y="1105.67" class="st2" v:langID="1031"><v:paragraph v:spLine="-1" v:horizAlign="1"/><v:tabList/>WikitextContent</text>		</g>
		<g id="shape105-376" v:mID="105" v:groupContext="shape" transform="translate(162,-795.506)">
			<title>com.lucidchart.Line.105</title>
			<desc>isRedirect()</desc>
			<v:textBlock v:margins="rect(0,0,0,0)"/>
			<v:textRect cx="45" cy="1090.35" width="40" height="8.00357"/>
			<path d="M0 1097.01 L83.16 1097.01" class="st5"/>
			<text x="26.49" y="1092.35" class="st2" v:langID="1031"><v:paragraph v:spLine="-1" v:horizAlign="1"/><v:tabList/>isRedirect()</text>		</g>
		<g id="shape106-382" v:mID="106" v:groupContext="shape" transform="translate(252,-777.506)">
			<title>com.lucidchart.Line.106</title>
			<desc>null</desc>
			<v:textBlock v:margins="rect(0,0,0,0)"/>
			<v:textRect cx="-45" cy="1103.67" width="40" height="8.00357"/>
			<path d="M0 1097.01 L-90 1097.01" class="st8"/>
			<text x="-51.04" y="1105.67" class="st2" v:langID="1031"><v:paragraph v:spLine="-1" v:horizAlign="1"/><v:tabList/>null</text>		</g>
		<g id="shape107-386" v:mID="107" v:groupContext="shape" transform="translate(252,-908.006)">
			<title>com.lucidchart.Line.107</title>
			<path d="M0 1097.01 L-180 1097.01" class="st7"/>
		</g>
		<g id="shape108-391" v:mID="108" v:groupContext="shape" transform="translate(720,-138.506)">
			<title>com.lucidchart.Line.108</title>
			<path d="M0 1097.01 L-558 1097.01" class="st7"/>
		</g>
		<g id="shape109-396" v:mID="109" v:groupContext="shape" transform="translate(558,-368.006)">
			<title>com.lucidchart.Line.109</title>
			<desc>execute()</desc>
			<v:textBlock v:margins="rect(0,0,0,0)"/>
			<v:textRect cx="-16.6464" cy="1090.35" width="40" height="8.00357"/>
			<path d="M0 1097.01 L-29.16 1097.01" class="st5"/>
			<text x="-31.91" y="1092.35" class="st2" v:langID="1031"><v:paragraph v:spLine="-1" v:horizAlign="1"/><v:tabList/>execute()</text>		</g>
	</g>
</svg>
