<?xml version="1.0" encoding="UTF-8" standalone="no"?>
<!-- Created with Inkscape (http://www.inkscape.org/) -->

<svg
   xmlns:dc="http://purl.org/dc/elements/1.1/"
   xmlns:cc="http://creativecommons.org/ns#"
   xmlns:rdf="http://www.w3.org/1999/02/22-rdf-syntax-ns#"
   xmlns:svg="http://www.w3.org/2000/svg"
   xmlns="http://www.w3.org/2000/svg"
   xmlns:sodipodi="http://sodipodi.sourceforge.net/DTD/sodipodi-0.dtd"
   xmlns:inkscape="http://www.inkscape.org/namespaces/inkscape"
   id="svg17690"
   version="1.1"
   inkscape:version="0.91 r13725"
   xml:space="preserve"
   width="112.5"
   height="290"
   viewBox="0 0 112.5 290"
   sodipodi:docname="Module-Skin-Inheritance2.svg"><metadata
     id="metadata17696"><rdf:RDF><cc:Work
         rdf:about=""><dc:format>image/svg+xml</dc:format><dc:type
           rdf:resource="http://purl.org/dc/dcmitype/StillImage" /><dc:title></dc:title></cc:Work></rdf:RDF></metadata><defs
     id="defs17694" /><sodipodi:namedview
     pagecolor="#ffffff"
     bordercolor="#666666"
     borderopacity="1"
     objecttolerance="10"
     gridtolerance="10"
     guidetolerance="10"
     inkscape:pageopacity="0"
     inkscape:pageshadow="2"
     inkscape:window-width="640"
     inkscape:window-height="480"
     id="namedview17692"
     showgrid="false"
     inkscape:zoom="0.8137931"
     inkscape:cx="56.25"
     inkscape:cy="145"
     inkscape:window-x="0"
     inkscape:window-y="0"
     inkscape:window-maximized="0"
     inkscape:current-layer="g17698" /><g
     id="g17698"
     inkscape:groupmode="layer"
     inkscape:label="Skins2"
     transform="scale(0.5625,0.5625)"><g
       id="g17700"><path
         d="M 0,0 201,0 201,516 0,516 0,0 Z"
         style="fill:#ffffff;fill-opacity:1;fill-rule:nonzero;stroke:none"
         id="path17702"
         inkscape:connector-curvature="0" /></g><g
       id="g17704"><g
         id="g17706"><g
           id="g17708"><g
             id="g17710"><path
               d="m 21,25 c 0,-2.8 2.2,-5 5,-5 l 150,0 c 2.7,0 5,2.2 5,5 l 0,110 c 0,2.8 -2.3,5 -5,5 l -150,0 c -2.8,0 -5,-2.2 -5,-5 L 21,25 Z"
               style="fill:#ffffff;fill-opacity:1;fill-rule:nonzero;stroke:none"
               id="path17712"
               inkscape:connector-curvature="0" /></g><g
             id="g17714"><g
               id="g17716"><g
                 id="g17718"><path
                   d="m 21,25 c 0,-2.8 2.2,-5 5,-5 l 150,0 c 2.7,0 5,2.2 5,5 l 0,110 c 0,2.8 -2.3,5 -5,5 l -150,0 c -2.8,0 -5,-2.2 -5,-5 L 21,25 Z"
                   style="fill:none;stroke:#000000;stroke-width:2;stroke-linecap:butt;stroke-linejoin:miter;stroke-miterlimit:10;stroke-dasharray:none;stroke-opacity:1"
                   id="path17720"
                   inkscape:connector-curvature="0" /></g></g></g><g
             id="g17722"
             transform="translate(20.9,20)"><g
               id="g17724"><g
                 id="g17726"
                 transform="matrix(0.05,0,0,0.05,20.6,51.5)"><g
                   id="g17728"
                   transform="translate(0,232)"><g
                     id="g17730"><g
                       id="g17732"><path
                         d="m 140,-251 c 81,0 123,46 123,126 0,72 -35,117 -100,126 7,30 30,48 69,40 l 0,23 C 177,80 137,49 129,3 56,-3 17,-48 17,-125 c 0,-80 42,-126 123,-126 z m 0,227 c 63,0 89,-41 89,-101 0,-60 -29,-99 -89,-99 -61,0 -89,39 -89,99 0,60 28,100 89,101"
                         style="fill:#000000;fill-opacity:1;fill-rule:nonzero;stroke:none"
                         id="path17734"
                         inkscape:connector-curvature="0" /></g></g></g><g
                   id="g17736"
                   transform="translate(280,232)"><g
                     id="g17738"><g
                       id="g17740"><path
                         d="M 84,4 C -5,8 30,-112 23,-190 l 32,0 0,120 c 0,31 7,50 39,49 72,-2 45,-101 50,-169 l 31,0 1,190 -30,0 c -1,-10 1,-25 -2,-33 -11,22 -28,36 -60,37"
                         style="fill:#000000;fill-opacity:1;fill-rule:nonzero;stroke:none"
                         id="path17742"
                         inkscape:connector-curvature="0" /></g></g></g><g
                   id="g17744"
                   transform="translate(480,232)"><g
                     id="g17746"><g
                       id="g17748"><path
                         d="m 24,-231 0,-30 32,0 0,30 -32,0 z m 0,231 0,-190 32,0 0,190 -32,0"
                         style="fill:#000000;fill-opacity:1;fill-rule:nonzero;stroke:none"
                         id="path17750"
                         inkscape:connector-curvature="0" /></g></g></g><g
                   id="g17752"
                   transform="translate(559,232)"><g
                     id="g17754"><g
                       id="g17756"><path
                         d="m 96,-169 c -40,0 -48,33 -48,73 0,40 9,75 48,75 24,0 41,-14 43,-38 l 32,2 C 165,-20 140,4 97,4 38,4 21,-37 15,-95 c -10,-93 101,-131 147,-64 4,7 5,14 7,22 l -32,3 c -4,-21 -16,-35 -41,-35"
                         style="fill:#000000;fill-opacity:1;fill-rule:nonzero;stroke:none"
                         id="path17758"
                         inkscape:connector-curvature="0" /></g></g></g><g
                   id="g17760"
                   transform="translate(739,232)"><g
                     id="g17762"><g
                       id="g17764"><path
                         d="m 143,0 -64,-87 -23,19 0,68 -32,0 0,-261 32,0 0,163 83,-92 37,0 -77,82 82,108 -38,0"
                         style="fill:#000000;fill-opacity:1;fill-rule:nonzero;stroke:none"
                         id="path17766"
                         inkscape:connector-curvature="0" /></g></g></g><g
                   id="g17768"
                   transform="translate(919,232)"><g
                     id="g17770"><g
                       id="g17772"><path
                         d="m 127,-220 0,220 -34,0 0,-220 -85,0 0,-28 204,0 0,28 -85,0"
                         style="fill:#000000;fill-opacity:1;fill-rule:nonzero;stroke:none"
                         id="path17774"
                         inkscape:connector-curvature="0" /></g></g></g><g
                   id="g17776"
                   transform="translate(1098,232)"><g
                     id="g17778"><g
                       id="g17780"><path
                         d="m 100,-194 c 63,0 86,42 84,106 l -135,0 c 0,40 14,67 53,68 26,1 43,-12 49,-29 l 28,8 C 168,-13 142,4 102,4 44,4 14,-33 15,-96 c 1,-61 26,-98 85,-98 z m 52,81 c 6,-60 -76,-77 -97,-28 -3,7 -6,17 -6,28 l 103,0"
                         style="fill:#000000;fill-opacity:1;fill-rule:nonzero;stroke:none"
                         id="path17782"
                         inkscape:connector-curvature="0" /></g></g></g><g
                   id="g17784"
                   transform="translate(1298,232)"><g
                     id="g17786"><g
                       id="g17788"><path
                         d="m 210,-169 c -67,3 -38,105 -44,169 l -31,0 0,-121 c 0,-29 -5,-50 -35,-48 -66,4 -38,104 -44,169 l -31,0 -1,-190 30,0 c 1,10 -1,24 2,32 10,-44 99,-50 107,0 11,-21 27,-35 58,-36 85,-2 47,119 55,194 l -31,0 0,-121 c 0,-29 -5,-49 -35,-48"
                         style="fill:#000000;fill-opacity:1;fill-rule:nonzero;stroke:none"
                         id="path17790"
                         inkscape:connector-curvature="0" /></g></g></g><g
                   id="g17792"
                   transform="translate(1597,232)"><g
                     id="g17794"><g
                       id="g17796"><path
                         d="m 115,-194 c 55,1 70,41 70,98 C 185,-39 169,2 115,4 84,4 66,-9 55,-30 l 1,105 -32,0 -1,-265 31,0 2,30 c 10,-21 28,-34 59,-34 z m -8,174 c 40,0 45,-34 45,-75 0,-41 -6,-73 -45,-74 -42,0 -51,32 -51,76 0,43 10,73 51,73"
                         style="fill:#000000;fill-opacity:1;fill-rule:nonzero;stroke:none"
                         id="path17798"
                         inkscape:connector-curvature="0" /></g></g></g><g
                   id="g17800"
                   transform="translate(1797,232)"><g
                     id="g17802"><g
                       id="g17804"><path
                         d="m 24,0 0,-261 32,0 0,261 -32,0"
                         style="fill:#000000;fill-opacity:1;fill-rule:nonzero;stroke:none"
                         id="path17806"
                         inkscape:connector-curvature="0" /></g></g></g><g
                   id="g17808"
                   transform="translate(1876,232)"><g
                     id="g17810"><g
                       id="g17812"><path
                         d="M 141,-36 C 126,-15 110,5 73,4 37,3 15,-17 15,-53 c -1,-64 63,-63 125,-63 3,-35 -9,-54 -41,-54 -24,1 -41,7 -42,31 l -33,-3 c 5,-37 33,-52 76,-52 45,0 72,20 72,64 l 0,82 c -1,20 7,32 28,27 l 0,20 C 169,8 139,-3 141,-36 Z M 48,-53 c 0,20 12,33 32,33 41,-3 63,-29 60,-74 -43,2 -92,-5 -92,41"
                         style="fill:#000000;fill-opacity:1;fill-rule:nonzero;stroke:none"
                         id="path17814"
                         inkscape:connector-curvature="0" /></g></g></g><g
                   id="g17816"
                   transform="translate(2076,232)"><g
                     id="g17818"><g
                       id="g17820"><path
                         d="m 59,-47 c -2,24 18,29 38,22 l 0,24 C 64,9 27,4 27,-40 l 0,-127 -22,0 0,-23 24,0 9,-43 21,0 0,43 35,0 0,23 -35,0 0,120"
                         style="fill:#000000;fill-opacity:1;fill-rule:nonzero;stroke:none"
                         id="path17822"
                         inkscape:connector-curvature="0" /></g></g></g><g
                   id="g17824"
                   transform="translate(2176,232)"><g
                     id="g17826"><g
                       id="g17828"><path
                         d="m 100,-194 c 63,0 86,42 84,106 l -135,0 c 0,40 14,67 53,68 26,1 43,-12 49,-29 l 28,8 C 168,-13 142,4 102,4 44,4 14,-33 15,-96 c 1,-61 26,-98 85,-98 z m 52,81 c 6,-60 -76,-77 -97,-28 -3,7 -6,17 -6,28 l 103,0"
                         style="fill:#000000;fill-opacity:1;fill-rule:nonzero;stroke:none"
                         id="path17830"
                         inkscape:connector-curvature="0" /></g></g></g></g></g></g></g></g><g
         id="g17832"><g
           id="g17834"><g
             id="g17836"><path
               d="m 20.6,198.3 c 0,-2.7 2.3,-5 5,-5 l 150,0 c 2.8,0 5,2.3 5,5 l 0,110 c 0,2.8 -2.2,5 -5,5 l -150,0 c -2.7,0 -5,-2.2 -5,-5 l 0,-110 z"
               style="fill:#ffffff;fill-opacity:1;fill-rule:nonzero;stroke:none"
               id="path17838"
               inkscape:connector-curvature="0" /></g><g
             id="g17840"><g
               id="g17842"><g
                 id="g17844"><path
                   d="m 20.6,198.3 c 0,-2.7 2.3,-5 5,-5 l 150,0 c 2.8,0 5,2.3 5,5 l 0,110 c 0,2.8 -2.2,5 -5,5 l -150,0 c -2.7,0 -5,-2.2 -5,-5 l 0,-110 z"
                   style="fill:none;stroke:#000000;stroke-width:2;stroke-linecap:butt;stroke-linejoin:miter;stroke-miterlimit:10;stroke-dasharray:none;stroke-opacity:1"
                   id="path17846"
                   inkscape:connector-curvature="0" /></g></g></g><g
             id="g17848"
             transform="translate(20.6,193.3)"><g
               id="g17850"><g
                 id="g17852"
                 transform="matrix(0.05,0,0,0.05,23,51.5)"><g
                   id="g17854"
                   transform="translate(0,232)"><g
                     id="g17856"><g
                       id="g17858"><path
                         d="m 160,-131 c 35,5 61,23 61,61 0,87 -106,68 -191,70 l 0,-248 c 76,3 177,-17 177,60 0,33 -19,50 -47,57 z m -97,-11 c 50,-1 110,9 110,-42 0,-47 -63,-36 -110,-37 l 0,79 z m 0,115 c 55,-2 124,14 124,-45 0,-56 -70,-42 -124,-44 l 0,89"
                         style="fill:#000000;fill-opacity:1;fill-rule:nonzero;stroke:none"
                         id="path17860"
                         inkscape:connector-curvature="0" /></g></g></g><g
                   id="g17862"
                   transform="translate(240,232)"><g
                     id="g17864"><g
                       id="g17866"><path
                         d="M 141,-36 C 126,-15 110,5 73,4 37,3 15,-17 15,-53 c -1,-64 63,-63 125,-63 3,-35 -9,-54 -41,-54 -24,1 -41,7 -42,31 l -33,-3 c 5,-37 33,-52 76,-52 45,0 72,20 72,64 l 0,82 c -1,20 7,32 28,27 l 0,20 C 169,8 139,-3 141,-36 Z M 48,-53 c 0,20 12,33 32,33 41,-3 63,-29 60,-74 -43,2 -92,-5 -92,41"
                         style="fill:#000000;fill-opacity:1;fill-rule:nonzero;stroke:none"
                         id="path17868"
                         inkscape:connector-curvature="0" /></g></g></g><g
                   id="g17870"
                   transform="translate(440,232)"><g
                     id="g17872"><g
                       id="g17874"><path
                         d="m 135,-143 c -3,-34 -86,-38 -87,0 15,53 115,12 119,90 4,78 -150,74 -157,8 l 28,-5 c 4,36 97,45 98,0 -10,-56 -113,-15 -118,-90 -4,-57 82,-63 122,-42 12,7 21,19 24,35"
                         style="fill:#000000;fill-opacity:1;fill-rule:nonzero;stroke:none"
                         id="path17876"
                         inkscape:connector-curvature="0" /></g></g></g><g
                   id="g17878"
                   transform="translate(620,232)"><g
                     id="g17880"><g
                       id="g17882"><path
                         d="m 100,-194 c 63,0 86,42 84,106 l -135,0 c 0,40 14,67 53,68 26,1 43,-12 49,-29 l 28,8 C 168,-13 142,4 102,4 44,4 14,-33 15,-96 c 1,-61 26,-98 85,-98 z m 52,81 c 6,-60 -76,-77 -97,-28 -3,7 -6,17 -6,28 l 103,0"
                         style="fill:#000000;fill-opacity:1;fill-rule:nonzero;stroke:none"
                         id="path17884"
                         inkscape:connector-curvature="0" /></g></g></g><g
                   id="g17886"
                   transform="translate(820,232)"><g
                     id="g17888"><g
                       id="g17890"><path
                         d="m 127,-220 0,220 -34,0 0,-220 -85,0 0,-28 204,0 0,28 -85,0"
                         style="fill:#000000;fill-opacity:1;fill-rule:nonzero;stroke:none"
                         id="path17892"
                         inkscape:connector-curvature="0" /></g></g></g><g
                   id="g17894"
                   transform="translate(999,232)"><g
                     id="g17896"><g
                       id="g17898"><path
                         d="m 100,-194 c 63,0 86,42 84,106 l -135,0 c 0,40 14,67 53,68 26,1 43,-12 49,-29 l 28,8 C 168,-13 142,4 102,4 44,4 14,-33 15,-96 c 1,-61 26,-98 85,-98 z m 52,81 c 6,-60 -76,-77 -97,-28 -3,7 -6,17 -6,28 l 103,0"
                         style="fill:#000000;fill-opacity:1;fill-rule:nonzero;stroke:none"
                         id="path17900"
                         inkscape:connector-curvature="0" /></g></g></g><g
                   id="g17902"
                   transform="translate(1199,232)"><g
                     id="g17904"><g
                       id="g17906"><path
                         d="m 210,-169 c -67,3 -38,105 -44,169 l -31,0 0,-121 c 0,-29 -5,-50 -35,-48 -66,4 -38,104 -44,169 l -31,0 -1,-190 30,0 c 1,10 -1,24 2,32 10,-44 99,-50 107,0 11,-21 27,-35 58,-36 85,-2 47,119 55,194 l -31,0 0,-121 c 0,-29 -5,-49 -35,-48"
                         style="fill:#000000;fill-opacity:1;fill-rule:nonzero;stroke:none"
                         id="path17908"
                         inkscape:connector-curvature="0" /></g></g></g><g
                   id="g17910"
                   transform="translate(1498,232)"><g
                     id="g17912"><g
                       id="g17914"><path
                         d="m 115,-194 c 55,1 70,41 70,98 C 185,-39 169,2 115,4 84,4 66,-9 55,-30 l 1,105 -32,0 -1,-265 31,0 2,30 c 10,-21 28,-34 59,-34 z m -8,174 c 40,0 45,-34 45,-75 0,-41 -6,-73 -45,-74 -42,0 -51,32 -51,76 0,43 10,73 51,73"
                         style="fill:#000000;fill-opacity:1;fill-rule:nonzero;stroke:none"
                         id="path17916"
                         inkscape:connector-curvature="0" /></g></g></g><g
                   id="g17918"
                   transform="translate(1698,232)"><g
                     id="g17920"><g
                       id="g17922"><path
                         d="m 24,0 0,-261 32,0 0,261 -32,0"
                         style="fill:#000000;fill-opacity:1;fill-rule:nonzero;stroke:none"
                         id="path17924"
                         inkscape:connector-curvature="0" /></g></g></g><g
                   id="g17926"
                   transform="translate(1777,232)"><g
                     id="g17928"><g
                       id="g17930"><path
                         d="M 141,-36 C 126,-15 110,5 73,4 37,3 15,-17 15,-53 c -1,-64 63,-63 125,-63 3,-35 -9,-54 -41,-54 -24,1 -41,7 -42,31 l -33,-3 c 5,-37 33,-52 76,-52 45,0 72,20 72,64 l 0,82 c -1,20 7,32 28,27 l 0,20 C 169,8 139,-3 141,-36 Z M 48,-53 c 0,20 12,33 32,33 41,-3 63,-29 60,-74 -43,2 -92,-5 -92,41"
                         style="fill:#000000;fill-opacity:1;fill-rule:nonzero;stroke:none"
                         id="path17932"
                         inkscape:connector-curvature="0" /></g></g></g><g
                   id="g17934"
                   transform="translate(1977,232)"><g
                     id="g17936"><g
                       id="g17938"><path
                         d="m 59,-47 c -2,24 18,29 38,22 l 0,24 C 64,9 27,4 27,-40 l 0,-127 -22,0 0,-23 24,0 9,-43 21,0 0,43 35,0 0,23 -35,0 0,120"
                         style="fill:#000000;fill-opacity:1;fill-rule:nonzero;stroke:none"
                         id="path17940"
                         inkscape:connector-curvature="0" /></g></g></g><g
                   id="g17942"
                   transform="translate(2077,232)"><g
                     id="g17944"><g
                       id="g17946"><path
                         d="m 100,-194 c 63,0 86,42 84,106 l -135,0 c 0,40 14,67 53,68 26,1 43,-12 49,-29 l 28,8 C 168,-13 142,4 102,4 44,4 14,-33 15,-96 c 1,-61 26,-98 85,-98 z m 52,81 c 6,-60 -76,-77 -97,-28 -3,7 -6,17 -6,28 l 103,0"
                         style="fill:#000000;fill-opacity:1;fill-rule:nonzero;stroke:none"
                         id="path17948"
                         inkscape:connector-curvature="0" /></g></g></g></g></g></g></g></g><g
         id="g17950"><g
           id="g17952"><g
             id="g17954"><g
               id="g17956"><g
                 id="g17958"><path
                   d="M 100.6,193.3 101,140"
                   style="fill:none;stroke:#000000;stroke-width:2;stroke-linecap:butt;stroke-linejoin:miter;stroke-miterlimit:10;stroke-dasharray:none;stroke-opacity:1"
                   id="path17960"
                   inkscape:connector-curvature="0" /></g></g></g><g
             id="g17962"><path
               d="m 100.6,193.3 -1,0 0,0 1,0 z"
               style="fill:#000000;fill-opacity:1;fill-rule:nonzero;stroke:none"
               id="path17964"
               inkscape:connector-curvature="0" /></g><g
             id="g17966"><path
               d="M 113.5,161.6 88.1,161.4 101,140 l 12.5,21.6 z"
               style="fill:#ffffff;fill-opacity:1;fill-rule:nonzero;stroke:none"
               id="path17968"
               inkscape:connector-curvature="0" /></g><g
             id="g17970"><path
               d="m 115.3,162.6 -29,-0.2 13.5,-22.4 2.3,0 13.2,22.6 z m -25.4,-2.2 21.9,0.2 -10.9,-18.6 -11,18.4 z"
               style="fill:#000000;fill-opacity:1;fill-rule:nonzero;stroke:none"
               id="path17972"
               inkscape:connector-curvature="0" /></g></g></g><g
         id="g17974"><g
           id="g17976"><g
             id="g17978"><path
               d="m 20.6,378.3 c 0,-2.7 2.3,-5 5,-5 l 150,0 c 2.8,0 5,2.3 5,5 l 0,110 c 0,2.8 -2.2,5 -5,5 l -150,0 c -2.7,0 -5,-2.2 -5,-5 l 0,-110 z"
               style="fill:#ffffff;fill-opacity:1;fill-rule:nonzero;stroke:none"
               id="path17980"
               inkscape:connector-curvature="0" /></g><g
             id="g17982"><g
               id="g17984"><g
                 id="g17986"><path
                   d="m 20.6,378.3 c 0,-2.7 2.3,-5 5,-5 l 150,0 c 2.8,0 5,2.3 5,5 l 0,110 c 0,2.8 -2.2,5 -5,5 l -150,0 c -2.7,0 -5,-2.2 -5,-5 l 0,-110 z"
                   style="fill:none;stroke:#000000;stroke-width:2;stroke-linecap:butt;stroke-linejoin:miter;stroke-miterlimit:10;stroke-dasharray:none;stroke-opacity:1"
                   id="path17988"
                   inkscape:connector-curvature="0" /></g></g></g><g
             id="g17990"
             transform="translate(20.6,373.3)"><g
               id="g17992"><g
                 id="g17994"
                 transform="matrix(0.05,0,0,0.05,18.1,51.5)"><g
                   id="g17996"
                   transform="translate(0,232)"><g
                     id="g17998"><g
                       id="g18000"><path
                         d="M 137,0 103,0 2,-248 l 35,0 83,218 83,-218 36,0"
                         style="fill:#000000;fill-opacity:1;fill-rule:nonzero;stroke:none"
                         id="path18002"
                         inkscape:connector-curvature="0" /></g></g></g><g
                   id="g18004"
                   transform="translate(220,232)"><g
                     id="g18006"><g
                       id="g18008"><path
                         d="m 100,-194 c 63,0 86,42 84,106 l -135,0 c 0,40 14,67 53,68 26,1 43,-12 49,-29 l 28,8 C 168,-13 142,4 102,4 44,4 14,-33 15,-96 c 1,-61 26,-98 85,-98 z m 52,81 c 6,-60 -76,-77 -97,-28 -3,7 -6,17 -6,28 l 103,0"
                         style="fill:#000000;fill-opacity:1;fill-rule:nonzero;stroke:none"
                         id="path18010"
                         inkscape:connector-curvature="0" /></g></g></g><g
                   id="g18012"
                   transform="translate(420,232)"><g
                     id="g18014"><g
                       id="g18016"><path
                         d="m 96,-169 c -40,0 -48,33 -48,73 0,40 9,75 48,75 24,0 41,-14 43,-38 l 32,2 C 165,-20 140,4 97,4 38,4 21,-37 15,-95 c -10,-93 101,-131 147,-64 4,7 5,14 7,22 l -32,3 c -4,-21 -16,-35 -41,-35"
                         style="fill:#000000;fill-opacity:1;fill-rule:nonzero;stroke:none"
                         id="path18018"
                         inkscape:connector-curvature="0" /></g></g></g><g
                   id="g18020"
                   transform="translate(600,232)"><g
                     id="g18022"><g
                       id="g18024"><path
                         d="m 59,-47 c -2,24 18,29 38,22 l 0,24 C 64,9 27,4 27,-40 l 0,-127 -22,0 0,-23 24,0 9,-43 21,0 0,43 35,0 0,23 -35,0 0,120"
                         style="fill:#000000;fill-opacity:1;fill-rule:nonzero;stroke:none"
                         id="path18026"
                         inkscape:connector-curvature="0" /></g></g></g><g
                   id="g18028"
                   transform="translate(700,232)"><g
                     id="g18030"><g
                       id="g18032"><path
                         d="m 100,-194 c 62,-1 85,37 85,99 1,63 -27,99 -86,99 -59,0 -83,-39 -84,-99 0,-66 28,-99 85,-99 z m -1,174 c 44,1 53,-31 53,-75 0,-43 -8,-75 -51,-75 -43,0 -53,32 -53,75 0,43 10,74 51,75"
                         style="fill:#000000;fill-opacity:1;fill-rule:nonzero;stroke:none"
                         id="path18034"
                         inkscape:connector-curvature="0" /></g></g></g><g
                   id="g18036"
                   transform="translate(900,232)"><g
                     id="g18038"><g
                       id="g18040"><path
                         d="M 114,-163 C 36,-179 61,-72 57,0 l -32,0 -1,-190 30,0 c 1,12 -1,29 2,39 6,-27 23,-49 58,-41 l 0,29"
                         style="fill:#000000;fill-opacity:1;fill-rule:nonzero;stroke:none"
                         id="path18042"
                         inkscape:connector-curvature="0" /></g></g></g><g
                   id="g18044"
                   transform="translate(1019,232)"><g
                     id="g18046"><g
                       id="g18048"><path
                         d="m 127,-220 0,220 -34,0 0,-220 -85,0 0,-28 204,0 0,28 -85,0"
                         style="fill:#000000;fill-opacity:1;fill-rule:nonzero;stroke:none"
                         id="path18050"
                         inkscape:connector-curvature="0" /></g></g></g><g
                   id="g18052"
                   transform="translate(1198,232)"><g
                     id="g18054"><g
                       id="g18056"><path
                         d="m 100,-194 c 63,0 86,42 84,106 l -135,0 c 0,40 14,67 53,68 26,1 43,-12 49,-29 l 28,8 C 168,-13 142,4 102,4 44,4 14,-33 15,-96 c 1,-61 26,-98 85,-98 z m 52,81 c 6,-60 -76,-77 -97,-28 -3,7 -6,17 -6,28 l 103,0"
                         style="fill:#000000;fill-opacity:1;fill-rule:nonzero;stroke:none"
                         id="path18058"
                         inkscape:connector-curvature="0" /></g></g></g><g
                   id="g18060"
                   transform="translate(1398,232)"><g
                     id="g18062"><g
                       id="g18064"><path
                         d="m 210,-169 c -67,3 -38,105 -44,169 l -31,0 0,-121 c 0,-29 -5,-50 -35,-48 -66,4 -38,104 -44,169 l -31,0 -1,-190 30,0 c 1,10 -1,24 2,32 10,-44 99,-50 107,0 11,-21 27,-35 58,-36 85,-2 47,119 55,194 l -31,0 0,-121 c 0,-29 -5,-49 -35,-48"
                         style="fill:#000000;fill-opacity:1;fill-rule:nonzero;stroke:none"
                         id="path18066"
                         inkscape:connector-curvature="0" /></g></g></g><g
                   id="g18068"
                   transform="translate(1697,232)"><g
                     id="g18070"><g
                       id="g18072"><path
                         d="m 115,-194 c 55,1 70,41 70,98 C 185,-39 169,2 115,4 84,4 66,-9 55,-30 l 1,105 -32,0 -1,-265 31,0 2,30 c 10,-21 28,-34 59,-34 z m -8,174 c 40,0 45,-34 45,-75 0,-41 -6,-73 -45,-74 -42,0 -51,32 -51,76 0,43 10,73 51,73"
                         style="fill:#000000;fill-opacity:1;fill-rule:nonzero;stroke:none"
                         id="path18074"
                         inkscape:connector-curvature="0" /></g></g></g><g
                   id="g18076"
                   transform="translate(1897,232)"><g
                     id="g18078"><g
                       id="g18080"><path
                         d="m 24,0 0,-261 32,0 0,261 -32,0"
                         style="fill:#000000;fill-opacity:1;fill-rule:nonzero;stroke:none"
                         id="path18082"
                         inkscape:connector-curvature="0" /></g></g></g><g
                   id="g18084"
                   transform="translate(1976,232)"><g
                     id="g18086"><g
                       id="g18088"><path
                         d="M 141,-36 C 126,-15 110,5 73,4 37,3 15,-17 15,-53 c -1,-64 63,-63 125,-63 3,-35 -9,-54 -41,-54 -24,1 -41,7 -42,31 l -33,-3 c 5,-37 33,-52 76,-52 45,0 72,20 72,64 l 0,82 c -1,20 7,32 28,27 l 0,20 C 169,8 139,-3 141,-36 Z M 48,-53 c 0,20 12,33 32,33 41,-3 63,-29 60,-74 -43,2 -92,-5 -92,41"
                         style="fill:#000000;fill-opacity:1;fill-rule:nonzero;stroke:none"
                         id="path18090"
                         inkscape:connector-curvature="0" /></g></g></g><g
                   id="g18092"
                   transform="translate(2176,232)"><g
                     id="g18094"><g
                       id="g18096"><path
                         d="m 59,-47 c -2,24 18,29 38,22 l 0,24 C 64,9 27,4 27,-40 l 0,-127 -22,0 0,-23 24,0 9,-43 21,0 0,43 35,0 0,23 -35,0 0,120"
                         style="fill:#000000;fill-opacity:1;fill-rule:nonzero;stroke:none"
                         id="path18098"
                         inkscape:connector-curvature="0" /></g></g></g><g
                   id="g18100"
                   transform="translate(2276,232)"><g
                     id="g18102"><g
                       id="g18104"><path
                         d="m 100,-194 c 63,0 86,42 84,106 l -135,0 c 0,40 14,67 53,68 26,1 43,-12 49,-29 l 28,8 C 168,-13 142,4 102,4 44,4 14,-33 15,-96 c 1,-61 26,-98 85,-98 z m 52,81 c 6,-60 -76,-77 -97,-28 -3,7 -6,17 -6,28 l 103,0"
                         style="fill:#000000;fill-opacity:1;fill-rule:nonzero;stroke:none"
                         id="path18106"
                         inkscape:connector-curvature="0" /></g></g></g></g></g></g></g></g><g
         id="g18108"><g
           id="g18110"><g
             id="g18112"><g
               id="g18114"><g
                 id="g18116"><path
                   d="m 100.6,373.3 0,-60"
                   style="fill:none;stroke:#000000;stroke-width:2;stroke-linecap:butt;stroke-linejoin:miter;stroke-miterlimit:10;stroke-dasharray:none;stroke-opacity:1"
                   id="path18118"
                   inkscape:connector-curvature="0" /></g></g></g><g
             id="g18120" /><g
             id="g18122"><path
               d="m 113.3,334.9 -25.4,0 12.7,-21.6 12.7,21.6 z"
               style="fill:#ffffff;fill-opacity:1;fill-rule:nonzero;stroke:none"
               id="path18124"
               inkscape:connector-curvature="0" /></g><g
             id="g18126"><path
               d="m 115.1,335.9 -29,0 13.4,-22.6 2.3,0 13.3,22.6 z m -25.5,-2 22,0 -11,-18.6 -11,18.6 z"
               style="fill:#000000;fill-opacity:1;fill-rule:nonzero;stroke:none"
               id="path18128"
               inkscape:connector-curvature="0" /></g></g></g></g><g
       id="g18130"
       transform="scale(1,-1)" /></g></svg>