<?xml version="1.0" encoding="UTF-8" standalone="no"?>
<!-- Created with Inkscape (http://www.inkscape.org/) -->

<svg
   xmlns:dc="http://purl.org/dc/elements/1.1/"
   xmlns:cc="http://creativecommons.org/ns#"
   xmlns:rdf="http://www.w3.org/1999/02/22-rdf-syntax-ns#"
   xmlns:svg="http://www.w3.org/2000/svg"
   xmlns="http://www.w3.org/2000/svg"
   xmlns:sodipodi="http://sodipodi.sourceforge.net/DTD/sodipodi-0.dtd"
   xmlns:inkscape="http://www.inkscape.org/namespaces/inkscape"
   id="svg17354"
   version="1.1"
   inkscape:version="0.91 r13725"
   xml:space="preserve"
   width="112.5"
   height="290"
   viewBox="0 0 112.5 290"
   sodipodi:docname="Module-Skin-Inheritance1.svg"><metadata
     id="metadata17360"><rdf:RDF><cc:Work
         rdf:about=""><dc:format>image/svg+xml</dc:format><dc:type
           rdf:resource="http://purl.org/dc/dcmitype/StillImage" /><dc:title></dc:title></cc:Work></rdf:RDF></metadata><defs
     id="defs17358" /><sodipodi:namedview
     pagecolor="#ffffff"
     bordercolor="#666666"
     borderopacity="1"
     objecttolerance="10"
     gridtolerance="10"
     guidetolerance="10"
     inkscape:pageopacity="0"
     inkscape:pageshadow="2"
     inkscape:window-width="640"
     inkscape:window-height="480"
     id="namedview17356"
     showgrid="false"
     inkscape:zoom="0.8137931"
     inkscape:cx="56.25"
     inkscape:cy="145"
     inkscape:window-x="0"
     inkscape:window-y="0"
     inkscape:window-maximized="0"
     inkscape:current-layer="g17362" /><g
     id="g17362"
     inkscape:groupmode="layer"
     inkscape:label="Skins1"
     transform="scale(0.5625,0.5625)"><g
       id="g17364"><path
         d="M 0,0 201,0 201,516 0,516 0,0 Z"
         style="fill:#ffffff;fill-opacity:1;fill-rule:nonzero;stroke:none"
         id="path17366"
         inkscape:connector-curvature="0" /></g><g
       id="g17368"><g
         id="g17370"><g
           id="g17372"><g
             id="g17374"><path
               d="m 20,25 c 0,-2.8 2.2,-5 5,-5 l 150,0 c 2.8,0 5,2.2 5,5 l 0,110 c 0,2.8 -2.2,5 -5,5 l -150,0 c -2.8,0 -5,-2.2 -5,-5 L 20,25 Z"
               style="fill:#ffffff;fill-opacity:1;fill-rule:nonzero;stroke:none"
               id="path17376"
               inkscape:connector-curvature="0" /></g><g
             id="g17378"><g
               id="g17380"><g
                 id="g17382"><path
                   d="m 20,25 c 0,-2.8 2.2,-5 5,-5 l 150,0 c 2.8,0 5,2.2 5,5 l 0,110 c 0,2.8 -2.2,5 -5,5 l -150,0 c -2.8,0 -5,-2.2 -5,-5 L 20,25 Z"
                   style="fill:none;stroke:#000000;stroke-width:2;stroke-linecap:butt;stroke-linejoin:miter;stroke-miterlimit:10;stroke-dasharray:none;stroke-opacity:1"
                   id="path17384"
                   inkscape:connector-curvature="0" /></g></g></g><g
             id="g17386"
             transform="translate(20,20)"><g
               id="g17388"><g
                 id="g17390"
                 transform="matrix(0.05,0,0,0.05,62.5,51.5)"><g
                   id="g17392"
                   transform="translate(0,232)"><g
                     id="g17394"><g
                       id="g17396"><path
                         d="m 185,-189 c -5,-48 -123,-54 -124,2 14,75 158,14 163,119 C 227,10 103,19 49,-13 32,-23 21,-39 16,-59 l 33,-7 c 5,56 141,63 141,-1 0,-78 -155,-14 -162,-118 -5,-82 145,-84 179,-34 5,7 8,16 11,25"
                         style="fill:#000000;fill-opacity:1;fill-rule:nonzero;stroke:none"
                         id="path17398"
                         inkscape:connector-curvature="0" /></g></g></g><g
                   id="g17400"
                   transform="translate(240,232)"><g
                     id="g17402"><g
                       id="g17404"><path
                         d="m 143,0 -64,-87 -23,19 0,68 -32,0 0,-261 32,0 0,163 83,-92 37,0 -77,82 82,108 -38,0"
                         style="fill:#000000;fill-opacity:1;fill-rule:nonzero;stroke:none"
                         id="path17406"
                         inkscape:connector-curvature="0" /></g></g></g><g
                   id="g17408"
                   transform="translate(420,232)"><g
                     id="g17410"><g
                       id="g17412"><path
                         d="m 24,-231 0,-30 32,0 0,30 -32,0 z m 0,231 0,-190 32,0 0,190 -32,0"
                         style="fill:#000000;fill-opacity:1;fill-rule:nonzero;stroke:none"
                         id="path17414"
                         inkscape:connector-curvature="0" /></g></g></g><g
                   id="g17416"
                   transform="translate(499,232)"><g
                     id="g17418"><g
                       id="g17420"><path
                         d="m 117,-194 c 89,-4 53,116 60,194 l -32,0 0,-121 c 0,-31 -8,-49 -39,-48 -72,2 -44,102 -49,169 l -32,0 -1,-190 30,0 c 1,10 -1,24 2,32 11,-22 29,-35 61,-36"
                         style="fill:#000000;fill-opacity:1;fill-rule:nonzero;stroke:none"
                         id="path17422"
                         inkscape:connector-curvature="0" /></g></g></g></g></g></g></g></g><g
         id="g17424"><g
           id="g17426"><g
             id="g17428"><path
               d="m 20,205 c 0,-2.8 2.2,-5 5,-5 l 150,0 c 2.8,0 5,2.2 5,5 l 0,110 c 0,2.8 -2.2,5 -5,5 l -150,0 c -2.8,0 -5,-2.2 -5,-5 l 0,-110 z"
               style="fill:#ffffff;fill-opacity:1;fill-rule:nonzero;stroke:none"
               id="path17430"
               inkscape:connector-curvature="0" /></g><g
             id="g17432"><g
               id="g17434"><g
                 id="g17436"><path
                   d="m 20,205 c 0,-2.8 2.2,-5 5,-5 l 150,0 c 2.8,0 5,2.2 5,5 l 0,110 c 0,2.8 -2.2,5 -5,5 l -150,0 c -2.8,0 -5,-2.2 -5,-5 l 0,-110 z"
                   style="fill:none;stroke:#000000;stroke-width:2;stroke-linecap:butt;stroke-linejoin:miter;stroke-miterlimit:10;stroke-dasharray:none;stroke-opacity:1"
                   id="path17438"
                   inkscape:connector-curvature="0" /></g></g></g><g
             id="g17440"
             transform="translate(20,200)"><g
               id="g17442"><g
                 id="g17444"
                 transform="matrix(0.05,0,0,0.05,26.1,51.5)"><g
                   id="g17446"
                   transform="translate(0,232)"><g
                     id="g17448"><g
                       id="g17450"><path
                         d="m 185,-189 c -5,-48 -123,-54 -124,2 14,75 158,14 163,119 C 227,10 103,19 49,-13 32,-23 21,-39 16,-59 l 33,-7 c 5,56 141,63 141,-1 0,-78 -155,-14 -162,-118 -5,-82 145,-84 179,-34 5,7 8,16 11,25"
                         style="fill:#000000;fill-opacity:1;fill-rule:nonzero;stroke:none"
                         id="path17452"
                         inkscape:connector-curvature="0" /></g></g></g><g
                   id="g17454"
                   transform="translate(240,232)"><g
                     id="g17456"><g
                       id="g17458"><path
                         d="m 143,0 -64,-87 -23,19 0,68 -32,0 0,-261 32,0 0,163 83,-92 37,0 -77,82 82,108 -38,0"
                         style="fill:#000000;fill-opacity:1;fill-rule:nonzero;stroke:none"
                         id="path17460"
                         inkscape:connector-curvature="0" /></g></g></g><g
                   id="g17462"
                   transform="translate(420,232)"><g
                     id="g17464"><g
                       id="g17466"><path
                         d="m 24,-231 0,-30 32,0 0,30 -32,0 z m 0,231 0,-190 32,0 0,190 -32,0"
                         style="fill:#000000;fill-opacity:1;fill-rule:nonzero;stroke:none"
                         id="path17468"
                         inkscape:connector-curvature="0" /></g></g></g><g
                   id="g17470"
                   transform="translate(499,232)"><g
                     id="g17472"><g
                       id="g17474"><path
                         d="m 117,-194 c 89,-4 53,116 60,194 l -32,0 0,-121 c 0,-31 -8,-49 -39,-48 -72,2 -44,102 -49,169 l -32,0 -1,-190 30,0 c 1,10 -1,24 2,32 11,-22 29,-35 61,-36"
                         style="fill:#000000;fill-opacity:1;fill-rule:nonzero;stroke:none"
                         id="path17476"
                         inkscape:connector-curvature="0" /></g></g></g><g
                   id="g17478"
                   transform="translate(699,232)"><g
                     id="g17480"><g
                       id="g17482"><path
                         d="m 127,-220 0,220 -34,0 0,-220 -85,0 0,-28 204,0 0,28 -85,0"
                         style="fill:#000000;fill-opacity:1;fill-rule:nonzero;stroke:none"
                         id="path17484"
                         inkscape:connector-curvature="0" /></g></g></g><g
                   id="g17486"
                   transform="translate(878,232)"><g
                     id="g17488"><g
                       id="g17490"><path
                         d="m 100,-194 c 63,0 86,42 84,106 l -135,0 c 0,40 14,67 53,68 26,1 43,-12 49,-29 l 28,8 C 168,-13 142,4 102,4 44,4 14,-33 15,-96 c 1,-61 26,-98 85,-98 z m 52,81 c 6,-60 -76,-77 -97,-28 -3,7 -6,17 -6,28 l 103,0"
                         style="fill:#000000;fill-opacity:1;fill-rule:nonzero;stroke:none"
                         id="path17492"
                         inkscape:connector-curvature="0" /></g></g></g><g
                   id="g17494"
                   transform="translate(1078,232)"><g
                     id="g17496"><g
                       id="g17498"><path
                         d="m 210,-169 c -67,3 -38,105 -44,169 l -31,0 0,-121 c 0,-29 -5,-50 -35,-48 -66,4 -38,104 -44,169 l -31,0 -1,-190 30,0 c 1,10 -1,24 2,32 10,-44 99,-50 107,0 11,-21 27,-35 58,-36 85,-2 47,119 55,194 l -31,0 0,-121 c 0,-29 -5,-49 -35,-48"
                         style="fill:#000000;fill-opacity:1;fill-rule:nonzero;stroke:none"
                         id="path17500"
                         inkscape:connector-curvature="0" /></g></g></g><g
                   id="g17502"
                   transform="translate(1377,232)"><g
                     id="g17504"><g
                       id="g17506"><path
                         d="m 115,-194 c 55,1 70,41 70,98 C 185,-39 169,2 115,4 84,4 66,-9 55,-30 l 1,105 -32,0 -1,-265 31,0 2,30 c 10,-21 28,-34 59,-34 z m -8,174 c 40,0 45,-34 45,-75 0,-41 -6,-73 -45,-74 -42,0 -51,32 -51,76 0,43 10,73 51,73"
                         style="fill:#000000;fill-opacity:1;fill-rule:nonzero;stroke:none"
                         id="path17508"
                         inkscape:connector-curvature="0" /></g></g></g><g
                   id="g17510"
                   transform="translate(1577,232)"><g
                     id="g17512"><g
                       id="g17514"><path
                         d="m 24,0 0,-261 32,0 0,261 -32,0"
                         style="fill:#000000;fill-opacity:1;fill-rule:nonzero;stroke:none"
                         id="path17516"
                         inkscape:connector-curvature="0" /></g></g></g><g
                   id="g17518"
                   transform="translate(1656,232)"><g
                     id="g17520"><g
                       id="g17522"><path
                         d="M 141,-36 C 126,-15 110,5 73,4 37,3 15,-17 15,-53 c -1,-64 63,-63 125,-63 3,-35 -9,-54 -41,-54 -24,1 -41,7 -42,31 l -33,-3 c 5,-37 33,-52 76,-52 45,0 72,20 72,64 l 0,82 c -1,20 7,32 28,27 l 0,20 C 169,8 139,-3 141,-36 Z M 48,-53 c 0,20 12,33 32,33 41,-3 63,-29 60,-74 -43,2 -92,-5 -92,41"
                         style="fill:#000000;fill-opacity:1;fill-rule:nonzero;stroke:none"
                         id="path17524"
                         inkscape:connector-curvature="0" /></g></g></g><g
                   id="g17526"
                   transform="translate(1856,232)"><g
                     id="g17528"><g
                       id="g17530"><path
                         d="m 59,-47 c -2,24 18,29 38,22 l 0,24 C 64,9 27,4 27,-40 l 0,-127 -22,0 0,-23 24,0 9,-43 21,0 0,43 35,0 0,23 -35,0 0,120"
                         style="fill:#000000;fill-opacity:1;fill-rule:nonzero;stroke:none"
                         id="path17532"
                         inkscape:connector-curvature="0" /></g></g></g><g
                   id="g17534"
                   transform="translate(1956,232)"><g
                     id="g17536"><g
                       id="g17538"><path
                         d="m 100,-194 c 63,0 86,42 84,106 l -135,0 c 0,40 14,67 53,68 26,1 43,-12 49,-29 l 28,8 C 168,-13 142,4 102,4 44,4 14,-33 15,-96 c 1,-61 26,-98 85,-98 z m 52,81 c 6,-60 -76,-77 -97,-28 -3,7 -6,17 -6,28 l 103,0"
                         style="fill:#000000;fill-opacity:1;fill-rule:nonzero;stroke:none"
                         id="path17540"
                         inkscape:connector-curvature="0" /></g></g></g></g></g></g></g></g><g
         id="g17542"><g
           id="g17544"><g
             id="g17546"><g
               id="g17548"><g
                 id="g17550"><path
                   d="m 100,200 0,-60"
                   style="fill:none;stroke:#000000;stroke-width:2;stroke-linecap:butt;stroke-linejoin:miter;stroke-miterlimit:10;stroke-dasharray:none;stroke-opacity:1"
                   id="path17552"
                   inkscape:connector-curvature="0" /></g></g></g><g
             id="g17554" /><g
             id="g17556"><path
               d="m 112.7,161.5 -25.4,0 12.7,-21.5 12.7,21.5 z"
               style="fill:#ffffff;fill-opacity:1;fill-rule:nonzero;stroke:none"
               id="path17558"
               inkscape:connector-curvature="0" /></g><g
             id="g17560"><path
               d="m 114.5,162.5 -29,0 13.3,-22.5 2.4,0 13.3,22.5 z m -25.5,-2 22,0 -11,-18.5 -11,18.5 z"
               style="fill:#000000;fill-opacity:1;fill-rule:nonzero;stroke:none"
               id="path17562"
               inkscape:connector-curvature="0" /></g></g></g><g
         id="g17564"><g
           id="g17566"><g
             id="g17568"><path
               d="m 20,385 c 0,-2.8 2.2,-5 5,-5 l 150,0 c 2.8,0 5,2.2 5,5 l 0,110 c 0,2.8 -2.2,5 -5,5 l -150,0 c -2.8,0 -5,-2.2 -5,-5 l 0,-110 z"
               style="fill:#ffffff;fill-opacity:1;fill-rule:nonzero;stroke:none"
               id="path17570"
               inkscape:connector-curvature="0" /></g><g
             id="g17572"><g
               id="g17574"><g
                 id="g17576"><path
                   d="m 20,385 c 0,-2.8 2.2,-5 5,-5 l 150,0 c 2.8,0 5,2.2 5,5 l 0,110 c 0,2.8 -2.2,5 -5,5 l -150,0 c -2.8,0 -5,-2.2 -5,-5 l 0,-110 z"
                   style="fill:none;stroke:#000000;stroke-width:2;stroke-linecap:butt;stroke-linejoin:miter;stroke-miterlimit:10;stroke-dasharray:none;stroke-opacity:1"
                   id="path17578"
                   inkscape:connector-curvature="0" /></g></g></g><g
             id="g17580"
             transform="translate(20,380)"><g
               id="g17582"><g
                 id="g17584"
                 transform="matrix(0.05,0,0,0.05,37,51.5)"><g
                   id="g17586"
                   transform="translate(0,232)"><g
                     id="g17588"><g
                       id="g17590"><path
                         d="m 185,-189 c -5,-48 -123,-54 -124,2 14,75 158,14 163,119 C 227,10 103,19 49,-13 32,-23 21,-39 16,-59 l 33,-7 c 5,56 141,63 141,-1 0,-78 -155,-14 -162,-118 -5,-82 145,-84 179,-34 5,7 8,16 11,25"
                         style="fill:#000000;fill-opacity:1;fill-rule:nonzero;stroke:none"
                         id="path17592"
                         inkscape:connector-curvature="0" /></g></g></g><g
                   id="g17594"
                   transform="translate(240,232)"><g
                     id="g17596"><g
                       id="g17598"><path
                         d="m 143,0 -64,-87 -23,19 0,68 -32,0 0,-261 32,0 0,163 83,-92 37,0 -77,82 82,108 -38,0"
                         style="fill:#000000;fill-opacity:1;fill-rule:nonzero;stroke:none"
                         id="path17600"
                         inkscape:connector-curvature="0" /></g></g></g><g
                   id="g17602"
                   transform="translate(420,232)"><g
                     id="g17604"><g
                       id="g17606"><path
                         d="m 24,-231 0,-30 32,0 0,30 -32,0 z m 0,231 0,-190 32,0 0,190 -32,0"
                         style="fill:#000000;fill-opacity:1;fill-rule:nonzero;stroke:none"
                         id="path17608"
                         inkscape:connector-curvature="0" /></g></g></g><g
                   id="g17610"
                   transform="translate(499,232)"><g
                     id="g17612"><g
                       id="g17614"><path
                         d="m 117,-194 c 89,-4 53,116 60,194 l -32,0 0,-121 c 0,-31 -8,-49 -39,-48 -72,2 -44,102 -49,169 l -32,0 -1,-190 30,0 c 1,10 -1,24 2,32 11,-22 29,-35 61,-36"
                         style="fill:#000000;fill-opacity:1;fill-rule:nonzero;stroke:none"
                         id="path17616"
                         inkscape:connector-curvature="0" /></g></g></g><g
                   id="g17618"
                   transform="translate(699,232)"><g
                     id="g17620"><g
                       id="g17622"><path
                         d="M 137,0 103,0 2,-248 l 35,0 83,218 83,-218 36,0"
                         style="fill:#000000;fill-opacity:1;fill-rule:nonzero;stroke:none"
                         id="path17624"
                         inkscape:connector-curvature="0" /></g></g></g><g
                   id="g17626"
                   transform="translate(919,232)"><g
                     id="g17628"><g
                       id="g17630"><path
                         d="m 100,-194 c 63,0 86,42 84,106 l -135,0 c 0,40 14,67 53,68 26,1 43,-12 49,-29 l 28,8 C 168,-13 142,4 102,4 44,4 14,-33 15,-96 c 1,-61 26,-98 85,-98 z m 52,81 c 6,-60 -76,-77 -97,-28 -3,7 -6,17 -6,28 l 103,0"
                         style="fill:#000000;fill-opacity:1;fill-rule:nonzero;stroke:none"
                         id="path17632"
                         inkscape:connector-curvature="0" /></g></g></g><g
                   id="g17634"
                   transform="translate(1119,232)"><g
                     id="g17636"><g
                       id="g17638"><path
                         d="m 96,-169 c -40,0 -48,33 -48,73 0,40 9,75 48,75 24,0 41,-14 43,-38 l 32,2 C 165,-20 140,4 97,4 38,4 21,-37 15,-95 c -10,-93 101,-131 147,-64 4,7 5,14 7,22 l -32,3 c -4,-21 -16,-35 -41,-35"
                         style="fill:#000000;fill-opacity:1;fill-rule:nonzero;stroke:none"
                         id="path17640"
                         inkscape:connector-curvature="0" /></g></g></g><g
                   id="g17642"
                   transform="translate(1299,232)"><g
                     id="g17644"><g
                       id="g17646"><path
                         d="m 59,-47 c -2,24 18,29 38,22 l 0,24 C 64,9 27,4 27,-40 l 0,-127 -22,0 0,-23 24,0 9,-43 21,0 0,43 35,0 0,23 -35,0 0,120"
                         style="fill:#000000;fill-opacity:1;fill-rule:nonzero;stroke:none"
                         id="path17648"
                         inkscape:connector-curvature="0" /></g></g></g><g
                   id="g17650"
                   transform="translate(1399,232)"><g
                     id="g17652"><g
                       id="g17654"><path
                         d="m 100,-194 c 62,-1 85,37 85,99 1,63 -27,99 -86,99 -59,0 -83,-39 -84,-99 0,-66 28,-99 85,-99 z m -1,174 c 44,1 53,-31 53,-75 0,-43 -8,-75 -51,-75 -43,0 -53,32 -53,75 0,43 10,74 51,75"
                         style="fill:#000000;fill-opacity:1;fill-rule:nonzero;stroke:none"
                         id="path17656"
                         inkscape:connector-curvature="0" /></g></g></g><g
                   id="g17658"
                   transform="translate(1599,232)"><g
                     id="g17660"><g
                       id="g17662"><path
                         d="M 114,-163 C 36,-179 61,-72 57,0 l -32,0 -1,-190 30,0 c 1,12 -1,29 2,39 6,-27 23,-49 58,-41 l 0,29"
                         style="fill:#000000;fill-opacity:1;fill-rule:nonzero;stroke:none"
                         id="path17664"
                         inkscape:connector-curvature="0" /></g></g></g></g></g></g></g></g><g
         id="g17666"><g
           id="g17668"><g
             id="g17670"><g
               id="g17672"><g
                 id="g17674"><path
                   d="m 100,380 0,-60"
                   style="fill:none;stroke:#000000;stroke-width:2;stroke-linecap:butt;stroke-linejoin:miter;stroke-miterlimit:10;stroke-dasharray:none;stroke-opacity:1"
                   id="path17676"
                   inkscape:connector-curvature="0" /></g></g></g><g
             id="g17678" /><g
             id="g17680"><path
               d="m 112.7,341.5 -25.4,0 12.7,-21.5 12.7,21.5 z"
               style="fill:#ffffff;fill-opacity:1;fill-rule:nonzero;stroke:none"
               id="path17682"
               inkscape:connector-curvature="0" /></g><g
             id="g17684"><path
               d="m 114.5,342.5 -29,0 13.3,-22.5 2.4,0 13.3,22.5 z m -25.5,-2 22,0 -11,-18.5 -11,18.5 z"
               style="fill:#000000;fill-opacity:1;fill-rule:nonzero;stroke:none"
               id="path17686"
               inkscape:connector-curvature="0" /></g></g></g></g><g
       id="g17688"
       transform="scale(1,-1)" /></g></svg>