<?xml version="1.0" encoding="UTF-8" standalone="no"?>
<!DOCTYPE svg PUBLIC "-//W3C//DTD SVG 1.0//EN" "http://www.w3.org/TR/2001/REC-SVG-20010904/DTD/svg10.dtd">
<!-- Generated by Microsoft Visio 11.0, SVG Export, v1.0 Article.svg New Page -->
<svg xmlns="http://www.w3.org/2000/svg" xmlns:xlink="http://www.w3.org/1999/xlink" xmlns:ev="http://www.w3.org/2001/xml-events"
		xmlns:v="http://schemas.microsoft.com/visio/2003/SVGExtensions/" width="4.11437in" height="2.5in" viewBox="0 0 296.235 180"
		xml:space="preserve" color-interpolation-filters="sRGB" class="st6">
	<v:documentProperties v:langID="1031" v:viewMarkup="false"/>

	<style type="text/css">
	<![CDATA[
		.st1 {fill:#ffffff;stroke:#000000;stroke-linecap:round;stroke-linejoin:round;stroke-width:0.9}
		.st2 {fill:#000000;font-family:Calibri;font-size:1.5em}
		.st3 {fill:#000000;font-family:Calibri;font-size:1.33333em}
		.st4 {fill:#000000;font-family:Calibri;font-size:1.16666em}
		.st5 {stroke:#000000;stroke-linecap:round;stroke-linejoin:round;stroke-width:0.9}
		.st6 {fill:none;fill-rule:evenodd;font-size:12px;overflow:visible;stroke-linecap:square;stroke-miterlimit:3}
	]]>
	</style>

	<g v:mID="0" v:index="1" v:groupContext="foregroundPage">
		<title>New Page</title>
		<v:pageProperties v:drawingScale="1" v:pageScale="1" v:drawingUnits="19" v:shadowOffsetX="9" v:shadowOffsetY="-9"/>
		<g id="group1-1" transform="translate(9,-90)" v:mID="1" v:groupContext="group">
			<title>com.lucidchart.ProcessBlock</title>
			<desc>Article</desc>
			<g id="shape2-2" v:mID="2" v:groupContext="shape">
				<title>Sheet.2</title>
				<path d="M0 103.04 C-0 100.77 1.57 99 3.58 99 L113.45 99 C115.37 99 117.02 100.77 117.02 103.04 L117.02 175.94 C117.02
							 178.23 115.37 180 113.45 180 L3.58 180 C1.57 180 0 178.23 0 175.94 L0 103.04 Z" class="st1"/>
			</g>
			<g id="shape1-4" v:mID="1" v:groupContext="groupContent">
				<v:textBlock v:margins="rect(0,0,0,0)"/>
				<v:textRect cx="58.5" cy="139.5" width="117" height="81"/>
				<text x="34.73" y="144" class="st2" v:langID="1031"><v:paragraph v:spLine="-1" v:horizAlign="1"/><v:tabList/>Article</text>			</g>
		</g>
		<g id="group3-6" transform="translate(161.237,-94.5)" v:mID="3" v:groupContext="group">
			<title>com.lucidchart.ProcessBlock.3</title>
			<desc>WikiPage</desc>
			<g id="shape4-7" v:mID="4" v:groupContext="shape">
				<title>Sheet.4</title>
				<path d="M0 111.59 C0 109.58 1.33 108 3.03 108 L96 108 C97.62 108 99.02 109.58 99.02 111.59 L99.02 176.39 C99.02
							 178.42 97.62 180 96 180 L3.03 180 C1.33 180 0 178.42 0 176.39 L0 111.59 Z" class="st1"/>
			</g>
			<g id="shape3-9" v:mID="3" v:groupContext="groupContent">
				<v:textBlock v:margins="rect(0,0,0,0)"/>
				<v:textRect cx="49.5" cy="144" width="99" height="72"/>
				<text x="19.36" y="148" class="st3" v:langID="1031"><v:paragraph v:spLine="-1" v:horizAlign="1"/><v:tabList/>WikiPage</text>			</g>
		</g>
		<g id="group5-11" transform="translate(126,-9)" v:mID="5" v:groupContext="group">
			<title>com.lucidchart.ProcessBlock.5</title>
			<desc>Title</desc>
			<g id="shape6-12" v:mID="6" v:groupContext="shape">
				<title>Sheet.6</title>
				<path d="M0 137.25 C0 135.99 0.99 135 2.25 135 L71.42 135 C72.63 135 73.66 135.99 73.66 137.25 L73.66 177.75 C73.66
							 179.01 72.63 180 71.42 180 L2.25 180 C0.99 180 -0 179.01 0 177.75 L0 137.25 Z" class="st1"/>
			</g>
			<g id="shape5-14" v:mID="5" v:groupContext="groupContent">
				<v:textBlock v:margins="rect(0,0,0,0)"/>
				<v:textRect cx="36.9" cy="157.5" width="73.8" height="45"/>
				<text x="24.45" y="161" class="st4" v:langID="1031"><v:paragraph v:spLine="-1" v:horizAlign="1"/><v:tabList/>Title</text>			</g>
		</g>
		<g id="group7-16" transform="translate(216,-9)" v:mID="7" v:groupContext="group">
			<title>com.lucidchart.ProcessBlock.7</title>
			<desc>Revision</desc>
			<g id="shape8-17" v:mID="8" v:groupContext="shape">
				<title>Sheet.8</title>
				<path d="M0 137.25 C0 135.99 1.01 135 2.3 135 L72.76 135 C73.99 135 75.05 135.99 75.05 137.25 L75.05 177.75 C75.05
							 179.01 73.99 180 72.76 180 L2.3 180 C1.01 180 -0 179.01 0 177.75 L0 137.25 Z" class="st1"/>
			</g>
			<g id="shape7-19" v:mID="7" v:groupContext="groupContent">
				<v:textBlock v:margins="rect(0,0,0,0)"/>
				<v:textRect cx="37.5768" cy="157.5" width="75.16" height="45"/>
				<text x="13.81" y="161" class="st4" v:langID="1031"><v:paragraph v:spLine="-1" v:horizAlign="1"/><v:tabList/>Revision</text>			</g>
		</g>
		<g id="shape9-21" v:mID="9" v:groupContext="shape" transform="translate(161.237,-130.5)">
			<title>com.lucidchart.Line</title>
			<path d="M0 180 C-17.62 180 -17.62 180 -35.24 180" class="st5"/>
		</g>
		<g id="shape10-24" v:mID="10" v:groupContext="shape" transform="translate(162.828,-94.5)">
			<title>com.lucidchart.Line.10</title>
			<path d="M0 220.5 L0 200.47 a0.225 0.225 0 0 1 0.225 -0.225 L30.45 200.25 a0.225 0.225 -180 0 0 0.225 -0.225 L30.67 180"
					class="st5"/>
		</g>
		<g id="shape11-27" v:mID="11" v:groupContext="shape" transform="translate(253.512,-94.5)">
			<title>com.lucidchart.Line.11</title>
			<path d="M0 220.5 L0 200.47 a0.225 0.225 -180 0 0 -0.225 -0.225 L-28.29 200.25 a0.225 0.225 0 0 1 -0.225 -0.225 L-28.51
						 180" class="st5"/>
		</g>
	</g>
</svg>
