<?xml version="1.0" encoding="UTF-8" standalone="no"?>
<!DOCTYPE svg PUBLIC "-//W3C//DTD SVG 1.0//EN" "http://www.w3.org/TR/2001/REC-SVG-20010904/DTD/svg10.dtd">
<!-- Generated by Microsoft Visio 11.0, SVG Export, v1.0 EditPage.svg New Page -->
<svg xmlns="http://www.w3.org/2000/svg" xmlns:xlink="http://www.w3.org/1999/xlink" xmlns:ev="http://www.w3.org/2001/xml-events"
		xmlns:v="http://schemas.microsoft.com/visio/2003/SVGExtensions/" width="2.75591in" height="3.26772in"
		viewBox="0 0 198.425 235.276" xml:space="preserve" color-interpolation-filters="sRGB" class="st5">
	<v:documentProperties v:langID="1031" v:viewMarkup="false"/>

	<style type="text/css">
	<![CDATA[
		.st1 {fill:#ffffff;stroke:#000000;stroke-linecap:round;stroke-linejoin:round;stroke-width:0.9}
		.st2 {fill:#000000;font-family:Calibri;font-size:1.00001em}
		.st3 {fill:#000000;font-family:Calibri;font-size:0.833336em}
		.st4 {stroke:#000000;stroke-linecap:round;stroke-linejoin:round;stroke-width:0.9}
		.st5 {fill:none;fill-rule:evenodd;font-size:12px;overflow:visible;stroke-linecap:square;stroke-miterlimit:3}
	]]>
	</style>

	<g v:mID="0" v:index="1" v:groupContext="foregroundPage">
		<title>New Page</title>
		<v:pageProperties v:drawingScale="1" v:pageScale="1" v:drawingUnits="19" v:shadowOffsetX="9" v:shadowOffsetY="-9"/>
		<g id="group1-1" transform="translate(63,-172.274)" v:mID="1" v:groupContext="group">
			<title>com.lucidchart.UMLClassBlock</title>
			<desc>EditPage</desc>
			<g id="shape2-2" v:mID="2" v:groupContext="shape">
				<title>Sheet.2</title>
				<path d="M0 183.52 C0 182.26 0.99 181.28 2.25 181.28 L69.75 181.28 C71.01 181.28 72 182.26 72 183.52 L72 233.02 C72
							 234.29 71.01 235.28 69.75 235.28 L2.25 235.28 C0.99 235.28 -0 234.29 0 233.02 L0 183.52 Z" class="st1"/>
			</g>
			<g id="shape1-4" v:mID="1" v:groupContext="groupContent">
				<v:textBlock v:margins="rect(0,0,0,0)"/>
				<v:textRect cx="36" cy="208.276" width="64.8" height="46.8"/>
				<text x="3.6" y="211.28" class="st2" v:langID="1031"><v:paragraph v:spLine="-1"/><v:tabList/>EditPage</text>			</g>
		</g>
		<g id="group3-6" transform="translate(117,-10.2744)" v:mID="3" v:groupContext="group">
			<title>com.lucidchart.UMLClassBlock.3</title>
			<desc>ImagePage</desc>
			<g id="shape4-7" v:mID="4" v:groupContext="shape">
				<title>Sheet.4</title>
				<path d="M0 183.52 C0 182.26 0.99 181.28 2.25 181.28 L69.75 181.28 C71.01 181.28 72 182.26 72 183.52 L72 233.02 C72
							 234.29 71.01 235.28 69.75 235.28 L2.25 235.28 C0.99 235.28 -0 234.29 0 233.02 L0 183.52 Z" class="st1"/>
			</g>
			<g id="shape3-9" v:mID="3" v:groupContext="groupContent">
				<v:textBlock v:margins="rect(0,0,0,0)"/>
				<v:textRect cx="36" cy="208.276" width="64.8" height="46.8"/>
				<text x="3.6" y="210.78" class="st3" v:langID="1031"><v:paragraph v:spLine="-1"/><v:tabList/>ImagePage</text>			</g>
		</g>
		<g id="group5-11" transform="translate(9,-10.2744)" v:mID="5" v:groupContext="group">
			<title>com.lucidchart.UMLClassBlock.5</title>
			<desc>CategoryPage</desc>
			<g id="shape6-12" v:mID="6" v:groupContext="shape">
				<title>Sheet.6</title>
				<path d="M0 183.52 C0 182.26 0.99 181.28 2.25 181.28 L69.75 181.28 C71.01 181.28 72 182.26 72 183.52 L72 233.02 C72
							 234.29 71.01 235.28 69.75 235.28 L2.25 235.28 C0.99 235.28 -0 234.29 0 233.02 L0 183.52 Z" class="st1"/>
			</g>
			<g id="shape5-14" v:mID="5" v:groupContext="groupContent">
				<v:textBlock v:margins="rect(0,0,0,0)"/>
				<v:textRect cx="36" cy="208.276" width="64.8" height="46.8"/>
				<text x="3.6" y="210.78" class="st3" v:langID="1031"><v:paragraph v:spLine="-1"/><v:tabList/>CategoryPage</text>			</g>
		</g>
		<g id="group7-16" transform="translate(63,-91.2744)" v:mID="7" v:groupContext="group">
			<title>com.lucidchart.UMLClassBlock.7</title>
			<desc>Article</desc>
			<g id="shape8-17" v:mID="8" v:groupContext="shape">
				<title>Sheet.8</title>
				<path d="M0 183.52 C0 182.26 0.99 181.28 2.25 181.28 L69.75 181.28 C71.01 181.28 72 182.26 72 183.52 L72 233.02 C72
							 234.29 71.01 235.28 69.75 235.28 L2.25 235.28 C0.99 235.28 -0 234.29 0 233.02 L0 183.52 Z" class="st1"/>
			</g>
			<g id="shape7-19" v:mID="7" v:groupContext="groupContent">
				<v:textBlock v:margins="rect(0,0,0,0)"/>
				<v:textRect cx="36" cy="208.276" width="64.8" height="46.8"/>
				<text x="3.6" y="211.28" class="st2" v:langID="1031"><v:paragraph v:spLine="-1"/><v:tabList/>Article</text>			</g>
		</g>
		<g id="shape9-21" v:mID="9" v:groupContext="shape" transform="translate(99,-172.274)">
			<title>com.lucidchart.Line</title>
			<path d="M0 262.28 L0 235.28" class="st4"/>
		</g>
		<g id="shape10-24" v:mID="10" v:groupContext="shape" transform="translate(90,-64.2744)">
			<title>com.lucidchart.Line.10</title>
			<path d="M0 208.28 L0 221.55 a0.225 0.225 0 0 1 -0.225 0.225 L-44.78 221.78 a0.225 0.225 -180 0 0 -0.225 0.225 L-45 235.28"
					class="st4"/>
		</g>
		<g id="shape11-27" v:mID="11" v:groupContext="shape" transform="translate(108,-64.2744)">
			<title>com.lucidchart.Line.11</title>
			<path d="M0 208.28 L0 221.55 a0.225 0.225 -180 0 0 0.225 0.225 L49.27 221.78 a0.225 0.225 0 0 1 0.225 0.225 L49.5 235.28"
					class="st4"/>
		</g>
	</g>
</svg>
