<?xml version="1.0" encoding="UTF-8" standalone="no"?>
<!DOCTYPE svg PUBLIC "-//W3C//DTD SVG 1.0//EN" "http://www.w3.org/TR/2001/REC-SVG-20010904/DTD/svg10.dtd">
<!-- Generated by Microsoft Visio 11.0, SVG Export, v1.0 PagesCD.svg New Page -->
<svg xmlns="http://www.w3.org/2000/svg" xmlns:xlink="http://www.w3.org/1999/xlink" xmlns:ev="http://www.w3.org/2001/xml-events"
		xmlns:v="http://schemas.microsoft.com/visio/2003/SVGExtensions/" width="7.6375in" height="4.78375in"
		viewBox="0 0 549.9 344.43" xml:space="preserve" color-interpolation-filters="sRGB" class="st7">
	<v:documentProperties v:langID="1031" v:viewMarkup="false"/>

	<style type="text/css">
	<![CDATA[
		.st1 {fill:#ffffff;stroke:#000000;stroke-linecap:round;stroke-linejoin:round;stroke-width:0.9}
		.st2 {fill:#000000;font-family:Calibri;font-size:1.00001em}
		.st3 {stroke:#000000;stroke-linecap:round;stroke-linejoin:round;stroke-width:0.9}
		.st4 {fill:#000000;font-family:Calibri;font-size:0.833336em}
		.st5 {font-size:1em}
		.st6 {fill:#000000;font-family:Calibri;font-size:1.16666em}
		.st7 {fill:none;fill-rule:evenodd;font-size:12px;overflow:visible;stroke-linecap:square;stroke-miterlimit:3}
	]]>
	</style>

	<g v:mID="0" v:index="1" v:groupContext="foregroundPage">
		<title>New Page</title>
		<v:pageProperties v:drawingScale="1" v:pageScale="1" v:drawingUnits="19" v:shadowOffsetX="9" v:shadowOffsetY="-9"/>
		<g id="group1-1" transform="translate(239.616,-254.434)" v:mID="1" v:groupContext="group">
			<title>com.lucidchart.UMLClassBlock</title>
			<desc>Page</desc>
			<g id="shape2-2" v:mID="2" v:groupContext="shape">
				<title>Sheet.2</title>
				<path d="M0.01 292.68 C0.01 291.42 1 290.43 2.26 290.43 L69.76 290.43 C70.98 290.43 72.01 291.42 72.01 292.68 L72.01
							 342.18 C72.01 343.44 70.98 344.43 69.76 344.43 L2.26 344.43 C1 344.43 0.01 343.44 0.01 342.18 L0.01
							 292.68 Z" class="st1"/>
			</g>
			<g id="shape1-4" v:mID="1" v:groupContext="groupContent">
				<v:textBlock v:margins="rect(0,0,0,0)"/>
				<v:textRect cx="36" cy="317.43" width="64.8" height="46.8"/>
				<text x="3.6" y="320.43" class="st2" v:langID="1031"><v:paragraph v:spLine="-1"/><v:tabList/>Page</text>			</g>
		</g>
		<g id="group3-6" transform="translate(131.616,-164.434)" v:mID="3" v:groupContext="group">
			<title>com.lucidchart.UMLClassBlock.3</title>
			<desc>Article</desc>
			<g id="shape4-7" v:mID="4" v:groupContext="shape">
				<title>Sheet.4</title>
				<path d="M0.01 292.68 C0.01 291.42 1 290.43 2.26 290.43 L69.76 290.43 C70.98 290.43 72.01 291.42 72.01 292.68 L72.01
							 342.18 C72.01 343.44 70.98 344.43 69.76 344.43 L2.26 344.43 C1 344.43 0.01 343.44 0.01 342.18 L0.01
							 292.68 Z" class="st1"/>
			</g>
			<g id="shape3-9" v:mID="3" v:groupContext="groupContent">
				<v:textBlock v:margins="rect(0,0,0,0)"/>
				<v:textRect cx="36" cy="317.43" width="64.8" height="46.8"/>
				<text x="3.6" y="320.43" class="st2" v:langID="1031"><v:paragraph v:spLine="-1"/><v:tabList/>Article</text>			</g>
		</g>
		<g id="group5-11" transform="translate(347.616,-164.434)" v:mID="5" v:groupContext="group">
			<title>com.lucidchart.UMLClassBlock.5</title>
			<desc>WikiPage</desc>
			<g id="shape6-12" v:mID="6" v:groupContext="shape">
				<title>Sheet.6</title>
				<path d="M0.01 292.68 C0.01 291.42 1 290.43 2.26 290.43 L69.76 290.43 C70.98 290.43 72.01 291.42 72.01 292.68 L72.01
							 342.18 C72.01 343.44 70.98 344.43 69.76 344.43 L2.26 344.43 C1 344.43 0.01 343.44 0.01 342.18 L0.01
							 292.68 Z" class="st1"/>
			</g>
			<g id="shape5-14" v:mID="5" v:groupContext="groupContent">
				<v:textBlock v:margins="rect(0,0,0,0)"/>
				<v:textRect cx="36" cy="317.43" width="64.8" height="46.8"/>
				<text x="3.6" y="320.43" class="st2" v:langID="1031"><v:paragraph v:spLine="-1"/><v:tabList/>WikiPage</text>			</g>
		</g>
		<g id="shape7-16" v:mID="7" v:groupContext="shape" transform="translate(203.616,-191.434)">
			<title>com.lucidchart.Line</title>
			<path d="M0 344.43 L144 344.43" class="st3"/>
		</g>
		<g id="shape8-19" v:mID="8" v:groupContext="shape" transform="translate(257.616,-218.434)">
			<title>com.lucidchart.Line.8</title>
			<path d="M0 308.43 L0 326.2 a0.225 0.225 0 0 1 -0.225 0.225 L-89.78 326.43 a0.225 0.225 -180 0 0 -0.225 0.225 L-90 344.43"
					class="st3"/>
		</g>
		<g id="shape9-22" v:mID="9" v:groupContext="shape" transform="translate(293.616,-218.434)">
			<title>com.lucidchart.Line.9</title>
			<path d="M0 308.43 L0 326.2 a0.225 0.225 -180 0 0 0.225 0.225 L89.77 326.43 a0.225 0.225 0 0 1 0.225 0.225 L90 344.43"
					class="st3"/>
		</g>
		<g id="group10-25" transform="translate(77.616,-74.4336)" v:mID="10" v:groupContext="group">
			<title>com.lucidchart.UMLClassBlock.10</title>
			<desc>CategoryPage</desc>
			<g id="shape11-26" v:mID="11" v:groupContext="shape">
				<title>Sheet.11</title>
				<path d="M0.01 292.68 C0.01 291.42 1 290.43 2.26 290.43 L69.76 290.43 C70.98 290.43 72.01 291.42 72.01 292.68 L72.01
							 342.18 C72.01 343.44 70.98 344.43 69.76 344.43 L2.26 344.43 C1 344.43 0.01 343.44 0.01 342.18 L0.01
							 292.68 Z" class="st1"/>
			</g>
			<g id="shape10-28" v:mID="10" v:groupContext="groupContent">
				<v:textBlock v:margins="rect(0,0,0,0)"/>
				<v:textRect cx="36" cy="317.43" width="64.8" height="46.8"/>
				<text x="3.6" y="319.93" class="st4" v:langID="1031"><v:paragraph v:spLine="-1"/><v:tabList/>CategoryPage</text>			</g>
		</g>
		<g id="group12-30" transform="translate(185.616,-74.4336)" v:mID="12" v:groupContext="group">
			<title>com.lucidchart.UMLClassBlock.12</title>
			<desc>ImagePage</desc>
			<g id="shape13-31" v:mID="13" v:groupContext="shape">
				<title>Sheet.13</title>
				<path d="M0.01 292.68 C0.01 291.42 1 290.43 2.26 290.43 L69.76 290.43 C70.98 290.43 72.01 291.42 72.01 292.68 L72.01
							 342.18 C72.01 343.44 70.98 344.43 69.76 344.43 L2.26 344.43 C1 344.43 0.01 343.44 0.01 342.18 L0.01
							 292.68 Z" class="st1"/>
			</g>
			<g id="shape12-33" v:mID="12" v:groupContext="groupContent">
				<v:textBlock v:margins="rect(0,0,0,0)"/>
				<v:textRect cx="36" cy="317.43" width="64.8" height="46.8"/>
				<text x="3.6" y="319.93" class="st4" v:langID="1031"><v:paragraph v:spLine="-1"/><v:tabList/>ImagePage</text>			</g>
		</g>
		<g id="group14-35" transform="translate(293.616,-74.4336)" v:mID="14" v:groupContext="group">
			<title>com.lucidchart.UMLClassBlock.14</title>
			<desc>WikiCategory Page</desc>
			<g id="shape15-36" v:mID="15" v:groupContext="shape">
				<title>Sheet.15</title>
				<path d="M0.01 292.68 C0.01 291.42 1 290.43 2.26 290.43 L69.76 290.43 C70.98 290.43 72.01 291.42 72.01 292.68 L72.01
							 342.18 C72.01 343.44 70.98 344.43 69.76 344.43 L2.26 344.43 C1 344.43 0.01 343.44 0.01 342.18 L0.01
							 292.68 Z" class="st1"/>
			</g>
			<g id="shape14-38" v:mID="14" v:groupContext="groupContent">
				<v:textBlock v:margins="rect(0,0,0,0)"/>
				<v:textRect cx="36" cy="317.43" width="64.8" height="46.8"/>
				<text x="3.6" y="314.93" class="st4" v:langID="1031"><v:paragraph v:spLine="-1"/><v:tabList/>WikiCategory<v:lf/><tspan
							x="3.6" dy="1em" class="st5">Page</tspan></text>			</g>
		</g>
		<g id="group16-41" transform="translate(401.616,-74.4336)" v:mID="16" v:groupContext="group">
			<title>com.lucidchart.UMLClassBlock.16</title>
			<desc>WikiFilePage</desc>
			<g id="shape17-42" v:mID="17" v:groupContext="shape">
				<title>Sheet.17</title>
				<path d="M0.01 292.68 C0.01 291.42 1 290.43 2.26 290.43 L69.76 290.43 C70.98 290.43 72.01 291.42 72.01 292.68 L72.01
							 342.18 C72.01 343.44 70.98 344.43 69.76 344.43 L2.26 344.43 C1 344.43 0.01 343.44 0.01 342.18 L0.01
							 292.68 Z" class="st1"/>
			</g>
			<g id="shape16-44" v:mID="16" v:groupContext="groupContent">
				<v:textBlock v:margins="rect(0,0,0,0)"/>
				<v:textRect cx="36" cy="317.43" width="64.8" height="46.8"/>
				<text x="3.6" y="319.93" class="st4" v:langID="1031"><v:paragraph v:spLine="-1"/><v:tabList/>WikiFilePage</text>			</g>
		</g>
		<g id="shape18-46" v:mID="18" v:groupContext="shape" transform="translate(149.616,-128.434)">
			<title>com.lucidchart.Line.18</title>
			<path d="M0 308.43 L0 326.2 a0.225 0.225 0 0 1 -0.225 0.225 L-35.78 326.43 a0.225 0.225 -180 0 0 -0.225 0.225 L-36 344.43"
					class="st3"/>
		</g>
		<g id="shape19-49" v:mID="19" v:groupContext="shape" transform="translate(181.116,-128.434)">
			<title>com.lucidchart.Line.19</title>
			<path d="M0 308.43 L0 326.2 a0.225 0.225 -180 0 0 0.225 0.225 L40.27 326.43 a0.225 0.225 0 0 1 0.225 0.225 L40.5 344.43"
					class="st3"/>
		</g>
		<g id="shape20-52" v:mID="20" v:groupContext="shape" transform="translate(401.616,-128.434)">
			<title>com.lucidchart.Line.20</title>
			<path d="M0 308.43 L0 326.2 a0.225 0.225 -180 0 0 0.225 0.225 L35.77 326.43 a0.225 0.225 0 0 1 0.225 0.225 L36 344.43"
					class="st3"/>
		</g>
		<g id="shape21-55" v:mID="21" v:groupContext="shape" transform="translate(365.616,-128.434)">
			<title>com.lucidchart.Line.21</title>
			<path d="M0 308.43 L0 326.2 a0.225 0.225 0 0 1 -0.225 0.225 L-35.78 326.43 a0.225 0.225 -180 0 0 -0.225 0.225 L-36 344.43"
					class="st3"/>
		</g>
		<g id="shape22-58" v:mID="22" v:groupContext="shape" transform="translate(113.616,-74.4336)">
			<title>com.lucidchart.Line.22</title>
			<path d="M0 344.43 L0 362.2 a0.225 0.225 -180 0 0 0.225 0.225 L215.77 362.43 a0.225 0.225 -180 0 0 0.225 -0.225 L216
						 344.43" class="st3"/>
		</g>
		<g id="shape23-61" v:mID="23" v:groupContext="shape" transform="translate(221.616,-74.4336)">
			<title>com.lucidchart.Line.23</title>
			<path d="M0 344.43 L0 371.2 a0.225 0.225 -180 0 0 0.225 0.225 L215.77 371.43 a0.225 0.225 -180 0 0 0.225 -0.225 L216
						 344.43" class="st3"/>
		</g>
		<g id="group24-64" transform="translate(41.616,-38.4336)" v:mID="24" v:groupContext="group">
			<title>com.lucidchart.RectangleContainerBlock</title>
			<g id="shape25-65" v:mID="25" v:groupContext="shape">
				<title>Sheet.25</title>
				<path d="M0.01 157.68 C0 156.41 0.99 155.43 2.26 155.43 L222.76 155.43 C223.99 155.43 225 156.41 225.01 157.68 L225.01
							 342.18 a0.225 0.225 0 0 1 -4.11783E-006 0.00136125 C225 343.43 223.99 344.43 222.76 344.43 L2.26 344.43
							 C0.99 344.43 0 343.43 0.01 342.18 a0.225 0.225 -180 0 0 3.3973E-006 -0.00123644 L0.01 157.68 a0.225
							 0.225 -180 0 0 -3.34008E-006 -0.00122598" class="st3"/>
			</g>
		</g>
		<g id="group26-68" transform="translate(284.616,-38.4336)" v:mID="26" v:groupContext="group">
			<title>com.lucidchart.RectangleContainerBlock.26</title>
			<g id="shape27-69" v:mID="27" v:groupContext="shape">
				<title>Sheet.27</title>
				<path d="M0.01 157.68 C0 156.41 0.99 155.43 2.26 155.43 L222.76 155.43 C223.99 155.43 225 156.41 225.01 157.68 L225.01
							 342.18 a0.225 0.225 0 0 1 -4.11783E-006 0.00136125 C225 343.43 223.99 344.43 222.76 344.43 L2.26 344.43
							 C0.99 344.43 0 343.43 0.01 342.18 a0.225 0.225 -180 0 0 3.3973E-006 -0.00123644 L0.01 157.68 a0.225
							 0.225 -180 0 0 -3.34008E-006 -0.00122598" class="st3"/>
			</g>
		</g>
		<g id="group28-72" transform="translate(432,-200.434)" v:mID="28" v:groupContext="group">
			<title>com.lucidchart.DefaultTextBlockNew</title>
			<desc>Model</desc>
			<g id="shape29-73" v:mID="29" v:groupContext="shape">
				<title>Sheet.29</title>
			</g>
			<g id="shape28-75" v:mID="28" v:groupContext="groupContent">
				<v:textBlock v:margins="rect(0,0,0,0)"/>
				<v:textRect cx="54" cy="330.93" width="108" height="27"/>
				<text x="35.56" y="334.43" class="st6" v:langID="1031"><v:paragraph v:spLine="-1" v:horizAlign="1"/><v:tabList/>Model</text>			</g>
		</g>
		<g id="group30-77" transform="translate(23.616,-200.434)" v:mID="30" v:groupContext="group">
			<title>com.lucidchart.DefaultTextBlockNew.30</title>
			<desc>Controller</desc>
			<g id="shape31-78" v:mID="31" v:groupContext="shape">
				<title>Sheet.31</title>
			</g>
			<g id="shape30-80" v:mID="30" v:groupContext="groupContent">
				<v:textBlock v:margins="rect(0,0,0,0)"/>
				<v:textRect cx="54" cy="330.93" width="108" height="27"/>
				<text x="25.29" y="334.43" class="st6" v:langID="1031"><v:paragraph v:spLine="-1" v:horizAlign="1"/><v:tabList/>Controller</text>			</g>
		</g>
	</g>
</svg>
