<?xml version="1.0" encoding="UTF-8" standalone="no"?>
<!DOCTYPE svg PUBLIC "-//W3C//DTD SVG 1.0//EN" "http://www.w3.org/TR/2001/REC-SVG-20010904/DTD/svg10.dtd">
<!-- Generated by Microsoft Visio 11.0, SVG Export, v1.0 DeleteExample.svg New Page -->
<svg xmlns="http://www.w3.org/2000/svg" xmlns:xlink="http://www.w3.org/1999/xlink" xmlns:ev="http://www.w3.org/2001/xml-events"
		xmlns:v="http://schemas.microsoft.com/visio/2003/SVGExtensions/" width="4.84252in" height="0.590551in"
		viewBox="0 0 348.661 42.5197" xml:space="preserve" color-interpolation-filters="sRGB" class="st5">
	<v:documentProperties v:langID="1031" v:viewMarkup="false"/>

	<style type="text/css">
	<![CDATA[
		.st1 {fill:#ffffff;stroke:#000000;stroke-linecap:round;stroke-linejoin:round;stroke-width:0.9}
		.st2 {fill:#000000;font-family:Calibri;font-size:0.666664em}
		.st3 {marker-end:url(#mrkr4-21);stroke:#000000;stroke-linecap:round;stroke-linejoin:round;stroke-width:0.9}
		.st4 {fill:#000000;fill-opacity:1;stroke:#000000;stroke-opacity:1;stroke-width:0.26315789473684}
		.st5 {fill:none;fill-rule:evenodd;font-size:12px;overflow:visible;stroke-linecap:square;stroke-miterlimit:3}
	]]>
	</style>

	<defs id="Markers">
		<g id="lend4">
			<path d="M 2 1 L 0 0 L 2 -1 L 2 1 " style="stroke:none"/>
		</g>
		<marker id="mrkr4-21" class="st4" v:arrowType="4" v:arrowSize="2" v:setback="7.6" refX="-7.6" orient="auto"
				markerUnits="strokeWidth" overflow="visible">
			<use xlink:href="#lend4" transform="scale(-3.8,-3.8) "/>
		</marker>
	</defs>
	<g v:mID="0" v:index="1" v:groupContext="foregroundPage">
		<title>New Page</title>
		<v:pageProperties v:drawingScale="1" v:pageScale="1" v:drawingUnits="19" v:shadowOffsetX="9" v:shadowOffsetY="-9"/>
		<g id="group1-1" transform="translate(9.9,-6.5232)" v:mID="1" v:groupContext="group">
			<title>com.lucidchart.ProcessBlock</title>
			<desc>Delete Request</desc>
			<g id="shape2-2" v:mID="2" v:groupContext="shape">
				<title>Sheet.2</title>
				<path d="M0 17.77 C0 16.51 0.69 15.52 1.59 15.52 L87.51 15.52 C88.4 15.52 89.1 16.51 89.1 17.77 L89.1 40.27 C89.1
							 41.53 88.4 42.52 87.51 42.52 L1.59 42.52 C0.69 42.52 -0 41.53 0 40.27 L0 17.77 Z" class="st1"/>
			</g>
			<g id="shape1-4" v:mID="1" v:groupContext="groupContent">
				<v:textBlock v:margins="rect(0,0,0,0)"/>
				<v:textRect cx="44.55" cy="29.0197" width="89.1" height="27"/>
				<text x="19.7" y="31.02" class="st2" v:langID="1031"><v:paragraph v:spLine="-1" v:horizAlign="1"/><v:tabList/>Delete Request</text>			</g>
		</g>
		<g id="group3-6" transform="translate(117,-6.5232)" v:mID="3" v:groupContext="group">
			<title>com.lucidchart.ProcessBlock.3</title>
			<desc>Article::delete()</desc>
			<g id="shape4-7" v:mID="4" v:groupContext="shape">
				<title>Sheet.4</title>
				<path d="M0 17.77 C-0 16.51 0.62 15.52 1.43 15.52 L78.67 15.52 C79.47 15.52 80.1 16.51 80.1 17.77 L80.1 40.27 C80.1
							 41.53 79.47 42.52 78.67 42.52 L1.43 42.52 C0.62 42.52 0 41.53 0 40.27 L0 17.77 Z" class="st1"/>
			</g>
			<g id="shape3-9" v:mID="3" v:groupContext="groupContent">
				<v:textBlock v:margins="rect(0,0,0,0)"/>
				<v:textRect cx="40.05" cy="29.0197" width="80.11" height="27"/>
				<text x="14.59" y="31.02" class="st2" v:langID="1031"><v:paragraph v:spLine="-1" v:horizAlign="1"/><v:tabList/>Article::delete()</text>			</g>
		</g>
		<g id="group5-11" transform="translate(215.1,-6.5232)" v:mID="5" v:groupContext="group">
			<title>com.lucidchart.ProcessBlock.5</title>
			<desc>WikiPage::doDeleteArticleReal()</desc>
			<g id="shape6-12" v:mID="6" v:groupContext="shape">
				<title>Sheet.6</title>
				<path d="M0 17.77 C0 16.51 0.98 15.52 2.25 15.52 L123.75 15.52 C125 15.52 126 16.51 126 17.77 L126 40.27 C126 41.53
							 125 42.52 123.75 42.52 L2.25 42.52 C0.98 42.52 -0 41.53 0 40.27 L0 17.77 Z" class="st1"/>
			</g>
			<g id="shape5-14" v:mID="5" v:groupContext="groupContent">
				<v:textBlock v:margins="rect(0,0,0,0)"/>
				<v:textRect cx="63" cy="29.0197" width="126" height="27"/>
				<text x="10.9" y="31.02" class="st2" v:langID="1031"><v:paragraph v:spLine="-1" v:horizAlign="1"/><v:tabList/>WikiPage::doDeleteArticleReal()</text>			</g>
		</g>
		<g id="shape7-16" v:mID="7" v:groupContext="shape" transform="translate(99,-20.0232)">
			<title>com.lucidchart.Line</title>
			<path d="M0 42.52 C5.9 42.52 7.93 42.52 11.16 42.52" class="st3"/>
		</g>
		<g id="shape8-22" v:mID="8" v:groupContext="shape" transform="translate(197.1,-20.0232)">
			<title>com.lucidchart.Line.8</title>
			<path d="M0 42.52 C5.9 42.52 7.93 42.52 11.16 42.52" class="st3"/>
		</g>
	</g>
</svg>
