<?xml version="1.0" encoding="UTF-8" standalone="no"?>
<!-- Created with Inkscape (http://www.inkscape.org/) -->

<svg
   xmlns:dc="http://purl.org/dc/elements/1.1/"
   xmlns:cc="http://creativecommons.org/ns#"
   xmlns:rdf="http://www.w3.org/1999/02/22-rdf-syntax-ns#"
   xmlns:svg="http://www.w3.org/2000/svg"
   xmlns="http://www.w3.org/2000/svg"
   xmlns:sodipodi="http://sodipodi.sourceforge.net/DTD/sodipodi-0.dtd"
   xmlns:inkscape="http://www.inkscape.org/namespaces/inkscape"
   id="svg5504"
   version="1.1"
   inkscape:version="0.91 r13725"
   xml:space="preserve"
   width="370"
   height="225"
   viewBox="0 0 370 225"
   sodipodi:docname="Module-Page-Article.svg"><metadata
     id="metadata5510"><rdf:RDF><cc:Work
         rdf:about=""><dc:format>image/svg+xml</dc:format><dc:type
           rdf:resource="http://purl.org/dc/dcmitype/StillImage" /><dc:title></dc:title></cc:Work></rdf:RDF></metadata><defs
     id="defs5508" /><sodipodi:namedview
     pagecolor="#ffffff"
     bordercolor="#666666"
     borderopacity="1"
     objecttolerance="10"
     gridtolerance="10"
     guidetolerance="10"
     inkscape:pageopacity="0"
     inkscape:pageshadow="2"
     inkscape:window-width="640"
     inkscape:window-height="480"
     id="namedview5506"
     showgrid="false"
     inkscape:zoom="0.94594595"
     inkscape:cx="185"
     inkscape:cy="112.5"
     inkscape:window-x="0"
     inkscape:window-y="0"
     inkscape:window-maximized="0"
     inkscape:current-layer="g5512" /><g
     id="g5512"
     inkscape:groupmode="layer"
     inkscape:label="Article"
     transform="scale(0.5625,0.5625)"><g
       id="g5514"><path
         d="M 0,0 658,0 658,400 0,400 0,0 Z"
         style="fill:#ffffff;fill-opacity:1;fill-rule:nonzero;stroke:none"
         id="path5516"
         inkscape:connector-curvature="0" /></g><g
       id="g5518"><g
         id="g5520"><g
           id="g5522"><g
             id="g5524"><path
               d="m 20,25 c 0,-2.8 2.2,-5 5,-5 l 250,0 c 2.8,0 5,2.2 5,5 l 0,170 c 0,2.8 -2.2,5 -5,5 l -250,0 c -2.8,0 -5,-2.2 -5,-5 L 20,25 Z"
               style="fill:#ffffff;fill-opacity:1;fill-rule:nonzero;stroke:none"
               id="path5526"
               inkscape:connector-curvature="0" /></g><g
             id="g5528"><g
               id="g5530"><g
                 id="g5532"><path
                   d="m 20,25 c 0,-2.8 2.2,-5 5,-5 l 250,0 c 2.8,0 5,2.2 5,5 l 0,170 c 0,2.8 -2.2,5 -5,5 l -250,0 c -2.8,0 -5,-2.2 -5,-5 L 20,25 Z"
                   style="fill:none;stroke:#000000;stroke-width:2;stroke-linecap:butt;stroke-linejoin:miter;stroke-miterlimit:10;stroke-dasharray:none;stroke-opacity:1"
                   id="path5534"
                   inkscape:connector-curvature="0" /></g></g></g><g
             id="g5536"
             transform="translate(20,20)"><g
               id="g5538"><g
                 id="g5540"
                 transform="matrix(0.111,0,0,0.111,74.6,79.52)"><g
                   id="g5542"
                   transform="translate(0,180)"><g
                     id="g5544"><g
                       id="g5546"><path
                         d="M 205,0 177,-72 64,-72 36,0 1,0 l 101,-248 38,0 99,248 -34,0 z m -38,-99 -47,-123 c -12,45 -31,82 -46,123 l 93,0"
                         style="fill:#000000;fill-opacity:1;fill-rule:nonzero;stroke:none"
                         id="path5548"
                         inkscape:connector-curvature="0" /></g></g></g><g
                   id="g5550"
                   transform="translate(240,180)"><g
                     id="g5552"><g
                       id="g5554"><path
                         d="M 114,-163 C 36,-179 61,-72 57,0 l -32,0 -1,-190 30,0 c 1,12 -1,29 2,39 6,-27 23,-49 58,-41 l 0,29"
                         style="fill:#000000;fill-opacity:1;fill-rule:nonzero;stroke:none"
                         id="path5556"
                         inkscape:connector-curvature="0" /></g></g></g><g
                   id="g5558"
                   transform="translate(359,180)"><g
                     id="g5560"><g
                       id="g5562"><path
                         d="m 59,-47 c -2,24 18,29 38,22 l 0,24 C 64,9 27,4 27,-40 l 0,-127 -22,0 0,-23 24,0 9,-43 21,0 0,43 35,0 0,23 -35,0 0,120"
                         style="fill:#000000;fill-opacity:1;fill-rule:nonzero;stroke:none"
                         id="path5564"
                         inkscape:connector-curvature="0" /></g></g></g><g
                   id="g5566"
                   transform="translate(459,180)"><g
                     id="g5568"><g
                       id="g5570"><path
                         d="m 24,-231 0,-30 32,0 0,30 -32,0 z m 0,231 0,-190 32,0 0,190 -32,0"
                         style="fill:#000000;fill-opacity:1;fill-rule:nonzero;stroke:none"
                         id="path5572"
                         inkscape:connector-curvature="0" /></g></g></g><g
                   id="g5574"
                   transform="translate(538,180)"><g
                     id="g5576"><g
                       id="g5578"><path
                         d="m 96,-169 c -40,0 -48,33 -48,73 0,40 9,75 48,75 24,0 41,-14 43,-38 l 32,2 C 165,-20 140,4 97,4 38,4 21,-37 15,-95 c -10,-93 101,-131 147,-64 4,7 5,14 7,22 l -32,3 c -4,-21 -16,-35 -41,-35"
                         style="fill:#000000;fill-opacity:1;fill-rule:nonzero;stroke:none"
                         id="path5580"
                         inkscape:connector-curvature="0" /></g></g></g><g
                   id="g5582"
                   transform="translate(718,180)"><g
                     id="g5584"><g
                       id="g5586"><path
                         d="m 24,0 0,-261 32,0 0,261 -32,0"
                         style="fill:#000000;fill-opacity:1;fill-rule:nonzero;stroke:none"
                         id="path5588"
                         inkscape:connector-curvature="0" /></g></g></g><g
                   id="g5590"
                   transform="translate(797,180)"><g
                     id="g5592"><g
                       id="g5594"><path
                         d="m 100,-194 c 63,0 86,42 84,106 l -135,0 c 0,40 14,67 53,68 26,1 43,-12 49,-29 l 28,8 C 168,-13 142,4 102,4 44,4 14,-33 15,-96 c 1,-61 26,-98 85,-98 z m 52,81 c 6,-60 -76,-77 -97,-28 -3,7 -6,17 -6,28 l 103,0"
                         style="fill:#000000;fill-opacity:1;fill-rule:nonzero;stroke:none"
                         id="path5596"
                         inkscape:connector-curvature="0" /></g></g></g></g></g></g></g></g><g
         id="g5598"><g
           id="g5600"><g
             id="g5602"><path
               d="m 358.3,35 c 0,-2.8 2.2,-5 5,-5 l 210,0 c 2.8,0 5,2.2 5,5 l 0,150 c 0,2.8 -2.2,5 -5,5 l -210,0 c -2.8,0 -5,-2.2 -5,-5 l 0,-150 z"
               style="fill:#ffffff;fill-opacity:1;fill-rule:nonzero;stroke:none"
               id="path5604"
               inkscape:connector-curvature="0" /></g><g
             id="g5606"><g
               id="g5608"><g
                 id="g5610"><path
                   d="m 358.3,35 c 0,-2.8 2.2,-5 5,-5 l 210,0 c 2.8,0 5,2.2 5,5 l 0,150 c 0,2.8 -2.2,5 -5,5 l -210,0 c -2.8,0 -5,-2.2 -5,-5 l 0,-150 z"
                   style="fill:none;stroke:#000000;stroke-width:2;stroke-linecap:butt;stroke-linejoin:miter;stroke-miterlimit:10;stroke-dasharray:none;stroke-opacity:1"
                   id="path5612"
                   inkscape:connector-curvature="0" /></g></g></g><g
             id="g5614"
             transform="translate(358.3,30)"><g
               id="g5616"><g
                 id="g5618"
                 transform="matrix(0.0987,0,0,0.0987,35,70.634)"><g
                   id="g5620"
                   transform="translate(0,180)"><g
                     id="g5622"><g
                       id="g5624"><path
                         d="M 266,0 226,0 170,-210 115,0 75,0 2,-248 l 35,0 59,218 15,-64 43,-154 32,0 59,218 59,-218 35,0"
                         style="fill:#000000;fill-opacity:1;fill-rule:nonzero;stroke:none"
                         id="path5626"
                         inkscape:connector-curvature="0" /></g></g></g><g
                   id="g5628"
                   transform="translate(339,180)"><g
                     id="g5630"><g
                       id="g5632"><path
                         d="m 24,-231 0,-30 32,0 0,30 -32,0 z m 0,231 0,-190 32,0 0,190 -32,0"
                         style="fill:#000000;fill-opacity:1;fill-rule:nonzero;stroke:none"
                         id="path5634"
                         inkscape:connector-curvature="0" /></g></g></g><g
                   id="g5636"
                   transform="translate(418,180)"><g
                     id="g5638"><g
                       id="g5640"><path
                         d="m 143,0 -64,-87 -23,19 0,68 -32,0 0,-261 32,0 0,163 83,-92 37,0 -77,82 82,108 -38,0"
                         style="fill:#000000;fill-opacity:1;fill-rule:nonzero;stroke:none"
                         id="path5642"
                         inkscape:connector-curvature="0" /></g></g></g><g
                   id="g5644"
                   transform="translate(598,180)"><g
                     id="g5646"><g
                       id="g5648"><path
                         d="m 24,-231 0,-30 32,0 0,30 -32,0 z m 0,231 0,-190 32,0 0,190 -32,0"
                         style="fill:#000000;fill-opacity:1;fill-rule:nonzero;stroke:none"
                         id="path5650"
                         inkscape:connector-curvature="0" /></g></g></g><g
                   id="g5652"
                   transform="translate(677,180)"><g
                     id="g5654"><g
                       id="g5656"><path
                         d="m 30,-248 c 87,1 191,-15 191,75 0,78 -77,80 -158,76 l 0,97 -33,0 0,-248 z m 33,125 c 57,0 124,11 124,-50 0,-59 -68,-47 -124,-48 l 0,98"
                         style="fill:#000000;fill-opacity:1;fill-rule:nonzero;stroke:none"
                         id="path5658"
                         inkscape:connector-curvature="0" /></g></g></g><g
                   id="g5660"
                   transform="translate(917,180)"><g
                     id="g5662"><g
                       id="g5664"><path
                         d="M 141,-36 C 126,-15 110,5 73,4 37,3 15,-17 15,-53 c -1,-64 63,-63 125,-63 3,-35 -9,-54 -41,-54 -24,1 -41,7 -42,31 l -33,-3 c 5,-37 33,-52 76,-52 45,0 72,20 72,64 l 0,82 c -1,20 7,32 28,27 l 0,20 C 169,8 139,-3 141,-36 Z M 48,-53 c 0,20 12,33 32,33 41,-3 63,-29 60,-74 -43,2 -92,-5 -92,41"
                         style="fill:#000000;fill-opacity:1;fill-rule:nonzero;stroke:none"
                         id="path5666"
                         inkscape:connector-curvature="0" /></g></g></g><g
                   id="g5668"
                   transform="translate(1117,180)"><g
                     id="g5670"><g
                       id="g5672"><path
                         d="M 177,-190 C 167,-65 218,103 67,71 44,65 29,51 23,28 l 32,-5 c 15,47 100,32 89,-28 l 0,-30 C 133,-14 115,1 83,1 29,1 15,-40 15,-95 c 0,-56 16,-97 71,-98 29,-1 48,16 59,35 1,-10 0,-23 2,-32 l 30,0 z M 94,-22 c 36,0 50,-32 50,-73 0,-42 -14,-75 -50,-75 -39,0 -46,34 -46,75 0,41 6,73 46,73"
                         style="fill:#000000;fill-opacity:1;fill-rule:nonzero;stroke:none"
                         id="path5674"
                         inkscape:connector-curvature="0" /></g></g></g><g
                   id="g5676"
                   transform="translate(1317,180)"><g
                     id="g5678"><g
                       id="g5680"><path
                         d="m 100,-194 c 63,0 86,42 84,106 l -135,0 c 0,40 14,67 53,68 26,1 43,-12 49,-29 l 28,8 C 168,-13 142,4 102,4 44,4 14,-33 15,-96 c 1,-61 26,-98 85,-98 z m 52,81 c 6,-60 -76,-77 -97,-28 -3,7 -6,17 -6,28 l 103,0"
                         style="fill:#000000;fill-opacity:1;fill-rule:nonzero;stroke:none"
                         id="path5682"
                         inkscape:connector-curvature="0" /></g></g></g></g></g></g></g></g><g
         id="g5684"><g
           id="g5686"><g
             id="g5688"><path
               d="m 280,285 c 0,-2.8 2.2,-5 5,-5 l 153.7,0 c 2.7,0 5,2.2 5,5 l 0,90 c 0,2.8 -2.3,5 -5,5 L 285,380 c -2.8,0 -5,-2.2 -5,-5 l 0,-90 z"
               style="fill:#ffffff;fill-opacity:1;fill-rule:nonzero;stroke:none"
               id="path5690"
               inkscape:connector-curvature="0" /></g><g
             id="g5692"><g
               id="g5694"><g
                 id="g5696"><path
                   d="m 280,285 c 0,-2.8 2.2,-5 5,-5 l 153.7,0 c 2.7,0 5,2.2 5,5 l 0,90 c 0,2.8 -2.3,5 -5,5 L 285,380 c -2.8,0 -5,-2.2 -5,-5 l 0,-90 z"
                   style="fill:none;stroke:#000000;stroke-width:2;stroke-linecap:butt;stroke-linejoin:miter;stroke-miterlimit:10;stroke-dasharray:none;stroke-opacity:1"
                   id="path5698"
                   inkscape:connector-curvature="0" /></g></g></g><g
             id="g5700"
             transform="translate(280,280)"><g
               id="g5702"><g
                 id="g5704"
                 transform="matrix(0.0864,0,0,0.0864,53.3,40.548)"><g
                   id="g5706"
                   transform="translate(0,180)"><g
                     id="g5708"><g
                       id="g5710"><path
                         d="m 127,-220 0,220 -34,0 0,-220 -85,0 0,-28 204,0 0,28 -85,0"
                         style="fill:#000000;fill-opacity:1;fill-rule:nonzero;stroke:none"
                         id="path5712"
                         inkscape:connector-curvature="0" /></g></g></g><g
                   id="g5714"
                   transform="translate(206,180)"><g
                     id="g5716"><g
                       id="g5718"><path
                         d="m 24,-231 0,-30 32,0 0,30 -32,0 z m 0,231 0,-190 32,0 0,190 -32,0"
                         style="fill:#000000;fill-opacity:1;fill-rule:nonzero;stroke:none"
                         id="path5720"
                         inkscape:connector-curvature="0" /></g></g></g><g
                   id="g5722"
                   transform="translate(285,180)"><g
                     id="g5724"><g
                       id="g5726"><path
                         d="m 59,-47 c -2,24 18,29 38,22 l 0,24 C 64,9 27,4 27,-40 l 0,-127 -22,0 0,-23 24,0 9,-43 21,0 0,43 35,0 0,23 -35,0 0,120"
                         style="fill:#000000;fill-opacity:1;fill-rule:nonzero;stroke:none"
                         id="path5728"
                         inkscape:connector-curvature="0" /></g></g></g><g
                   id="g5730"
                   transform="translate(385,180)"><g
                     id="g5732"><g
                       id="g5734"><path
                         d="m 24,0 0,-261 32,0 0,261 -32,0"
                         style="fill:#000000;fill-opacity:1;fill-rule:nonzero;stroke:none"
                         id="path5736"
                         inkscape:connector-curvature="0" /></g></g></g><g
                   id="g5738"
                   transform="translate(464,180)"><g
                     id="g5740"><g
                       id="g5742"><path
                         d="m 100,-194 c 63,0 86,42 84,106 l -135,0 c 0,40 14,67 53,68 26,1 43,-12 49,-29 l 28,8 C 168,-13 142,4 102,4 44,4 14,-33 15,-96 c 1,-61 26,-98 85,-98 z m 52,81 c 6,-60 -76,-77 -97,-28 -3,7 -6,17 -6,28 l 103,0"
                         style="fill:#000000;fill-opacity:1;fill-rule:nonzero;stroke:none"
                         id="path5744"
                         inkscape:connector-curvature="0" /></g></g></g></g></g></g></g></g><g
         id="g5746"><g
           id="g5748"><g
             id="g5750"><path
               d="m 480,285 c 0,-2.8 2.2,-5 5,-5 l 156.7,0 c 2.8,0 5,2.2 5,5 l 0,90 c 0,2.8 -2.2,5 -5,5 L 485,380 c -2.8,0 -5,-2.2 -5,-5 l 0,-90 z"
               style="fill:#ffffff;fill-opacity:1;fill-rule:nonzero;stroke:none"
               id="path5752"
               inkscape:connector-curvature="0" /></g><g
             id="g5754"><g
               id="g5756"><g
                 id="g5758"><path
                   d="m 480,285 c 0,-2.8 2.2,-5 5,-5 l 156.7,0 c 2.8,0 5,2.2 5,5 l 0,90 c 0,2.8 -2.2,5 -5,5 L 485,380 c -2.8,0 -5,-2.2 -5,-5 l 0,-90 z"
                   style="fill:none;stroke:#000000;stroke-width:2;stroke-linecap:butt;stroke-linejoin:miter;stroke-miterlimit:10;stroke-dasharray:none;stroke-opacity:1"
                   id="path5760"
                   inkscape:connector-curvature="0" /></g></g></g><g
             id="g5762"
             transform="translate(480,280)"><g
               id="g5764"><g
                 id="g5766"
                 transform="matrix(0.0864,0,0,0.0864,24,40.548)"><g
                   id="g5768"
                   transform="translate(0,180)"><g
                     id="g5770"><g
                       id="g5772"><path
                         d="m 233,-177 c -1,41 -23,64 -60,70 l 70,107 -38,0 -65,-103 -77,0 0,103 -33,0 0,-248 c 88,3 205,-21 203,71 z m -170,48 c 60,-2 137,13 137,-47 0,-61 -80,-42 -137,-45 l 0,92"
                         style="fill:#000000;fill-opacity:1;fill-rule:nonzero;stroke:none"
                         id="path5774"
                         inkscape:connector-curvature="0" /></g></g></g><g
                   id="g5776"
                   transform="translate(259,180)"><g
                     id="g5778"><g
                       id="g5780"><path
                         d="m 100,-194 c 63,0 86,42 84,106 l -135,0 c 0,40 14,67 53,68 26,1 43,-12 49,-29 l 28,8 C 168,-13 142,4 102,4 44,4 14,-33 15,-96 c 1,-61 26,-98 85,-98 z m 52,81 c 6,-60 -76,-77 -97,-28 -3,7 -6,17 -6,28 l 103,0"
                         style="fill:#000000;fill-opacity:1;fill-rule:nonzero;stroke:none"
                         id="path5782"
                         inkscape:connector-curvature="0" /></g></g></g><g
                   id="g5784"
                   transform="translate(459,180)"><g
                     id="g5786"><g
                       id="g5788"><path
                         d="M 108,0 70,0 1,-190 l 34,0 54,165 56,-165 34,0"
                         style="fill:#000000;fill-opacity:1;fill-rule:nonzero;stroke:none"
                         id="path5790"
                         inkscape:connector-curvature="0" /></g></g></g><g
                   id="g5792"
                   transform="translate(639,180)"><g
                     id="g5794"><g
                       id="g5796"><path
                         d="m 24,-231 0,-30 32,0 0,30 -32,0 z m 0,231 0,-190 32,0 0,190 -32,0"
                         style="fill:#000000;fill-opacity:1;fill-rule:nonzero;stroke:none"
                         id="path5798"
                         inkscape:connector-curvature="0" /></g></g></g><g
                   id="g5800"
                   transform="translate(718,180)"><g
                     id="g5802"><g
                       id="g5804"><path
                         d="m 135,-143 c -3,-34 -86,-38 -87,0 15,53 115,12 119,90 4,78 -150,74 -157,8 l 28,-5 c 4,36 97,45 98,0 -10,-56 -113,-15 -118,-90 -4,-57 82,-63 122,-42 12,7 21,19 24,35"
                         style="fill:#000000;fill-opacity:1;fill-rule:nonzero;stroke:none"
                         id="path5806"
                         inkscape:connector-curvature="0" /></g></g></g><g
                   id="g5808"
                   transform="translate(898,180)"><g
                     id="g5810"><g
                       id="g5812"><path
                         d="m 24,-231 0,-30 32,0 0,30 -32,0 z m 0,231 0,-190 32,0 0,190 -32,0"
                         style="fill:#000000;fill-opacity:1;fill-rule:nonzero;stroke:none"
                         id="path5814"
                         inkscape:connector-curvature="0" /></g></g></g><g
                   id="g5816"
                   transform="translate(977,180)"><g
                     id="g5818"><g
                       id="g5820"><path
                         d="m 100,-194 c 62,-1 85,37 85,99 1,63 -27,99 -86,99 -59,0 -83,-39 -84,-99 0,-66 28,-99 85,-99 z m -1,174 c 44,1 53,-31 53,-75 0,-43 -8,-75 -51,-75 -43,0 -53,32 -53,75 0,43 10,74 51,75"
                         style="fill:#000000;fill-opacity:1;fill-rule:nonzero;stroke:none"
                         id="path5822"
                         inkscape:connector-curvature="0" /></g></g></g><g
                   id="g5824"
                   transform="translate(1177,180)"><g
                     id="g5826"><g
                       id="g5828"><path
                         d="m 117,-194 c 89,-4 53,116 60,194 l -32,0 0,-121 c 0,-31 -8,-49 -39,-48 -72,2 -44,102 -49,169 l -32,0 -1,-190 30,0 c 1,10 -1,24 2,32 11,-22 29,-35 61,-36"
                         style="fill:#000000;fill-opacity:1;fill-rule:nonzero;stroke:none"
                         id="path5830"
                         inkscape:connector-curvature="0" /></g></g></g></g></g></g></g></g><g
         id="g5832"><g
           id="g5834"><g
             id="g5836"><g
               id="g5838"><g
                 id="g5840"><path
                   d="M 358.3,110 280,110"
                   style="fill:none;stroke:#000000;stroke-width:2;stroke-linecap:butt;stroke-linejoin:miter;stroke-miterlimit:10;stroke-dasharray:none;stroke-opacity:1"
                   id="path5842"
                   inkscape:connector-curvature="0" /></g></g></g><g
             id="g5844" /><g
             id="g5846"><path
               d="M 310,110 294.8,124.8 280,110 294.8,95.2 310,110 Z"
               style="fill:#ffffff;fill-opacity:1;fill-rule:nonzero;stroke:none"
               id="path5848"
               inkscape:connector-curvature="0" /></g><g
             id="g5850"><path
               d="m 311.4,110 -16.6,16.3 -14.8,-14.9 0,-2.8 14.8,-14.9 16.6,16.3 z m -30,0 13.5,13.4 L 308.6,110 294.9,96.6 281.4,110 Z"
               style="fill:#000000;fill-opacity:1;fill-rule:nonzero;stroke:none"
               id="path5852"
               inkscape:connector-curvature="0" /></g></g></g><g
         id="g5854"><g
           id="g5856"><g
             id="g5858"><g
               id="g5860"><g
                 id="g5862"><path
                   d="m 361.8,280 0,-40 c 0,-2.8 2.3,-5 5,-5 l 58.2,0 c 2.8,0 5,-2.2 5,-5 l 0,-40"
                   style="fill:none;stroke:#000000;stroke-width:2;stroke-linecap:butt;stroke-linejoin:miter;stroke-miterlimit:10;stroke-dasharray:none;stroke-opacity:1"
                   id="path5864"
                   inkscape:connector-curvature="0" /></g></g></g><g
             id="g5866" /><g
             id="g5868"><path
               d="M 444.8,204.8 430,220 415.2,204.8 430,190 l 14.8,14.8 z"
               style="fill:#ffffff;fill-opacity:1;fill-rule:nonzero;stroke:none"
               id="path5870"
               inkscape:connector-curvature="0" /></g><g
             id="g5872"><path
               d="m 446.3,204.8 -16.3,16.6 -16.3,-16.6 14.9,-14.8 2.8,0 14.9,14.8 z m -29.7,0.1 13.4,13.7 13.4,-13.7 -13.4,-13.5 -13.4,13.5 z"
               style="fill:#000000;fill-opacity:1;fill-rule:nonzero;stroke:none"
               id="path5874"
               inkscape:connector-curvature="0" /></g></g></g><g
         id="g5876"><g
           id="g5878"><g
             id="g5880"><g
               id="g5882"><g
                 id="g5884"><path
                   d="m 563.4,280 0,-40 c 0,-2.8 -2.3,-5 -5,-5 l -53.4,0 c -2.8,0 -5,-2.2 -5,-5 l 0,-40"
                   style="fill:none;stroke:#000000;stroke-width:2;stroke-linecap:butt;stroke-linejoin:miter;stroke-miterlimit:10;stroke-dasharray:none;stroke-opacity:1"
                   id="path5886"
                   inkscape:connector-curvature="0" /></g></g></g><g
             id="g5888" /><g
             id="g5890"><path
               d="M 514.8,204.8 500,220 485.2,204.8 500,190 l 14.8,14.8 z"
               style="fill:#ffffff;fill-opacity:1;fill-rule:nonzero;stroke:none"
               id="path5892"
               inkscape:connector-curvature="0" /></g><g
             id="g5894"><path
               d="m 516.3,204.8 -16.3,16.6 -16.3,-16.6 14.9,-14.8 2.8,0 14.9,14.8 z m -29.7,0.1 13.4,13.7 13.4,-13.7 -13.4,-13.5 -13.4,13.5 z"
               style="fill:#000000;fill-opacity:1;fill-rule:nonzero;stroke:none"
               id="path5896"
               inkscape:connector-curvature="0" /></g></g></g></g><g
       id="g5898"
       transform="scale(1,-1)" /></g></svg>