<?xml version="1.0" encoding="UTF-8" standalone="no"?>
<!-- Created with Inkscape (http://www.inkscape.org/) -->

<svg
   xmlns:dc="http://purl.org/dc/elements/1.1/"
   xmlns:cc="http://creativecommons.org/ns#"
   xmlns:rdf="http://www.w3.org/1999/02/22-rdf-syntax-ns#"
   xmlns:svg="http://www.w3.org/2000/svg"
   xmlns="http://www.w3.org/2000/svg"
   xmlns:sodipodi="http://sodipodi.sourceforge.net/DTD/sodipodi-0.dtd"
   xmlns:inkscape="http://www.inkscape.org/namespaces/inkscape"
   id="svg4418"
   version="1.1"
   inkscape:version="0.91 r13725"
   xml:space="preserve"
   width="247.5"
   height="292.5"
   viewBox="0 0 247.5 292.5"
   sodipodi:docname="Module-Page-EditPage.svg"><metadata
     id="metadata4424"><rdf:RDF><cc:Work
         rdf:about=""><dc:format>image/svg+xml</dc:format><dc:type
           rdf:resource="http://purl.org/dc/dcmitype/StillImage" /><dc:title></dc:title></cc:Work></rdf:RDF></metadata><defs
     id="defs4422" /><sodipodi:namedview
     pagecolor="#ffffff"
     bordercolor="#666666"
     borderopacity="1"
     objecttolerance="10"
     gridtolerance="10"
     guidetolerance="10"
     inkscape:pageopacity="0"
     inkscape:pageshadow="2"
     inkscape:window-width="640"
     inkscape:window-height="480"
     id="namedview4420"
     showgrid="false"
     inkscape:zoom="0.80683761"
     inkscape:cx="123.75"
     inkscape:cy="146.25"
     inkscape:window-x="0"
     inkscape:window-y="0"
     inkscape:window-maximized="0"
     inkscape:current-layer="g4426" /><g
     id="g4426"
     inkscape:groupmode="layer"
     inkscape:label="EditPage"
     transform="scale(0.5625,0.5625)"><g
       id="g4428"><path
         d="M 0,0 440,0 440,522 0,522 0,0 Z"
         style="fill:#ffffff;fill-opacity:1;fill-rule:nonzero;stroke:none"
         id="path4430"
         inkscape:connector-curvature="0" /></g><g
       id="g4432"><g
         id="g4434"><g
           id="g4436"><g
             id="g4438"><path
               d="m 140,25 c 0,-2.8 2.2,-5 5,-5 l 150,0 c 2.8,0 5,2.2 5,5 l 0,110 c 0,2.8 -2.2,5 -5,5 l -150,0 c -2.8,0 -5,-2.2 -5,-5 l 0,-110 z"
               style="fill:#ffffff;fill-opacity:1;fill-rule:nonzero;stroke:none"
               id="path4440"
               inkscape:connector-curvature="0" /></g><g
             id="g4442"><g
               id="g4444"><g
                 id="g4446"><path
                   d="m 140,25 c 0,-2.8 2.2,-5 5,-5 l 150,0 c 2.8,0 5,2.2 5,5 l 0,110 c 0,2.8 -2.2,5 -5,5 l -150,0 c -2.8,0 -5,-2.2 -5,-5 l 0,-110 z"
                   style="fill:none;stroke:#000000;stroke-width:2;stroke-linecap:butt;stroke-linejoin:miter;stroke-miterlimit:10;stroke-dasharray:none;stroke-opacity:1"
                   id="path4448"
                   inkscape:connector-curvature="0" /></g></g></g><g
             id="g4450"
             transform="translate(148,28)"><g
               id="g4452"><g
                 id="g4454"
                 transform="matrix(0.074,0,0,0.074,17.9,39.984)"><g
                   id="g4456"
                   transform="translate(0,234)"><g
                     id="g4458"><g
                       id="g4460"><path
                         d="m 30,0 0,-248 187,0 0,28 -154,0 0,79 144,0 0,27 -144,0 0,87 162,0 0,27 -195,0"
                         style="fill:#000000;fill-opacity:1;fill-rule:nonzero;stroke:none"
                         id="path4462"
                         inkscape:connector-curvature="0" /></g></g></g><g
                   id="g4464"
                   transform="translate(240,234)"><g
                     id="g4466"><g
                       id="g4468"><path
                         d="m 85,-194 c 31,0 48,13 60,33 l -1,-100 32,0 1,261 -30,0 c -2,-10 0,-23 -3,-31 C 134,-8 116,4 85,4 32,4 16,-35 15,-94 c 0,-66 23,-100 70,-100 z m 9,24 c -40,0 -46,34 -46,75 0,40 6,74 45,74 42,0 51,-32 51,-76 0,-42 -9,-74 -50,-73"
                         style="fill:#000000;fill-opacity:1;fill-rule:nonzero;stroke:none"
                         id="path4470"
                         inkscape:connector-curvature="0" /></g></g></g><g
                   id="g4472"
                   transform="translate(440,234)"><g
                     id="g4474"><g
                       id="g4476"><path
                         d="m 24,-231 0,-30 32,0 0,30 -32,0 z m 0,231 0,-190 32,0 0,190 -32,0"
                         style="fill:#000000;fill-opacity:1;fill-rule:nonzero;stroke:none"
                         id="path4478"
                         inkscape:connector-curvature="0" /></g></g></g><g
                   id="g4480"
                   transform="translate(519,234)"><g
                     id="g4482"><g
                       id="g4484"><path
                         d="m 59,-47 c -2,24 18,29 38,22 l 0,24 C 64,9 27,4 27,-40 l 0,-127 -22,0 0,-23 24,0 9,-43 21,0 0,43 35,0 0,23 -35,0 0,120"
                         style="fill:#000000;fill-opacity:1;fill-rule:nonzero;stroke:none"
                         id="path4486"
                         inkscape:connector-curvature="0" /></g></g></g><g
                   id="g4488"
                   transform="translate(619,234)"><g
                     id="g4490"><g
                       id="g4492"><path
                         d="m 30,-248 c 87,1 191,-15 191,75 0,78 -77,80 -158,76 l 0,97 -33,0 0,-248 z m 33,125 c 57,0 124,11 124,-50 0,-59 -68,-47 -124,-48 l 0,98"
                         style="fill:#000000;fill-opacity:1;fill-rule:nonzero;stroke:none"
                         id="path4494"
                         inkscape:connector-curvature="0" /></g></g></g><g
                   id="g4496"
                   transform="translate(859,234)"><g
                     id="g4498"><g
                       id="g4500"><path
                         d="M 141,-36 C 126,-15 110,5 73,4 37,3 15,-17 15,-53 c -1,-64 63,-63 125,-63 3,-35 -9,-54 -41,-54 -24,1 -41,7 -42,31 l -33,-3 c 5,-37 33,-52 76,-52 45,0 72,20 72,64 l 0,82 c -1,20 7,32 28,27 l 0,20 C 169,8 139,-3 141,-36 Z M 48,-53 c 0,20 12,33 32,33 41,-3 63,-29 60,-74 -43,2 -92,-5 -92,41"
                         style="fill:#000000;fill-opacity:1;fill-rule:nonzero;stroke:none"
                         id="path4502"
                         inkscape:connector-curvature="0" /></g></g></g><g
                   id="g4504"
                   transform="translate(1059,234)"><g
                     id="g4506"><g
                       id="g4508"><path
                         d="M 177,-190 C 167,-65 218,103 67,71 44,65 29,51 23,28 l 32,-5 c 15,47 100,32 89,-28 l 0,-30 C 133,-14 115,1 83,1 29,1 15,-40 15,-95 c 0,-56 16,-97 71,-98 29,-1 48,16 59,35 1,-10 0,-23 2,-32 l 30,0 z M 94,-22 c 36,0 50,-32 50,-73 0,-42 -14,-75 -50,-75 -39,0 -46,34 -46,75 0,41 6,73 46,73"
                         style="fill:#000000;fill-opacity:1;fill-rule:nonzero;stroke:none"
                         id="path4510"
                         inkscape:connector-curvature="0" /></g></g></g><g
                   id="g4512"
                   transform="translate(1259,234)"><g
                     id="g4514"><g
                       id="g4516"><path
                         d="m 100,-194 c 63,0 86,42 84,106 l -135,0 c 0,40 14,67 53,68 26,1 43,-12 49,-29 l 28,8 C 168,-13 142,4 102,4 44,4 14,-33 15,-96 c 1,-61 26,-98 85,-98 z m 52,81 c 6,-60 -76,-77 -97,-28 -3,7 -6,17 -6,28 l 103,0"
                         style="fill:#000000;fill-opacity:1;fill-rule:nonzero;stroke:none"
                         id="path4518"
                         inkscape:connector-curvature="0" /></g></g></g></g></g></g></g></g><g
         id="g4520"><g
           id="g4522"><g
             id="g4524"><path
               d="m 260,385 c 0,-2.8 2.2,-5 5,-5 l 150,0 c 2.8,0 5,2.2 5,5 l 0,110 c 0,2.8 -2.2,5 -5,5 l -150,0 c -2.8,0 -5,-2.2 -5,-5 l 0,-110 z"
               style="fill:#ffffff;fill-opacity:1;fill-rule:nonzero;stroke:none"
               id="path4526"
               inkscape:connector-curvature="0" /></g><g
             id="g4528"><g
               id="g4530"><g
                 id="g4532"><path
                   d="m 260,385 c 0,-2.8 2.2,-5 5,-5 l 150,0 c 2.8,0 5,2.2 5,5 l 0,110 c 0,2.8 -2.2,5 -5,5 l -150,0 c -2.8,0 -5,-2.2 -5,-5 l 0,-110 z"
                   style="fill:none;stroke:#000000;stroke-width:2;stroke-linecap:butt;stroke-linejoin:miter;stroke-miterlimit:10;stroke-dasharray:none;stroke-opacity:1"
                   id="path4534"
                   inkscape:connector-curvature="0" /></g></g></g><g
             id="g4536"
             transform="translate(268,388)"><g
               id="g4538"><g
                 id="g4540"
                 transform="matrix(0.0617,0,0,0.0617,15.2,41.9622)"><g
                   id="g4542"
                   transform="translate(0,234)"><g
                     id="g4544"><g
                       id="g4546"><path
                         d="m 33,0 0,-248 34,0 0,248 -34,0"
                         style="fill:#000000;fill-opacity:1;fill-rule:nonzero;stroke:none"
                         id="path4548"
                         inkscape:connector-curvature="0" /></g></g></g><g
                   id="g4550"
                   transform="translate(100,234)"><g
                     id="g4552"><g
                       id="g4554"><path
                         d="m 210,-169 c -67,3 -38,105 -44,169 l -31,0 0,-121 c 0,-29 -5,-50 -35,-48 -66,4 -38,104 -44,169 l -31,0 -1,-190 30,0 c 1,10 -1,24 2,32 10,-44 99,-50 107,0 11,-21 27,-35 58,-36 85,-2 47,119 55,194 l -31,0 0,-121 c 0,-29 -5,-49 -35,-48"
                         style="fill:#000000;fill-opacity:1;fill-rule:nonzero;stroke:none"
                         id="path4556"
                         inkscape:connector-curvature="0" /></g></g></g><g
                   id="g4558"
                   transform="translate(399,234)"><g
                     id="g4560"><g
                       id="g4562"><path
                         d="M 141,-36 C 126,-15 110,5 73,4 37,3 15,-17 15,-53 c -1,-64 63,-63 125,-63 3,-35 -9,-54 -41,-54 -24,1 -41,7 -42,31 l -33,-3 c 5,-37 33,-52 76,-52 45,0 72,20 72,64 l 0,82 c -1,20 7,32 28,27 l 0,20 C 169,8 139,-3 141,-36 Z M 48,-53 c 0,20 12,33 32,33 41,-3 63,-29 60,-74 -43,2 -92,-5 -92,41"
                         style="fill:#000000;fill-opacity:1;fill-rule:nonzero;stroke:none"
                         id="path4564"
                         inkscape:connector-curvature="0" /></g></g></g><g
                   id="g4566"
                   transform="translate(599,234)"><g
                     id="g4568"><g
                       id="g4570"><path
                         d="M 177,-190 C 167,-65 218,103 67,71 44,65 29,51 23,28 l 32,-5 c 15,47 100,32 89,-28 l 0,-30 C 133,-14 115,1 83,1 29,1 15,-40 15,-95 c 0,-56 16,-97 71,-98 29,-1 48,16 59,35 1,-10 0,-23 2,-32 l 30,0 z M 94,-22 c 36,0 50,-32 50,-73 0,-42 -14,-75 -50,-75 -39,0 -46,34 -46,75 0,41 6,73 46,73"
                         style="fill:#000000;fill-opacity:1;fill-rule:nonzero;stroke:none"
                         id="path4572"
                         inkscape:connector-curvature="0" /></g></g></g><g
                   id="g4574"
                   transform="translate(799,234)"><g
                     id="g4576"><g
                       id="g4578"><path
                         d="m 100,-194 c 63,0 86,42 84,106 l -135,0 c 0,40 14,67 53,68 26,1 43,-12 49,-29 l 28,8 C 168,-13 142,4 102,4 44,4 14,-33 15,-96 c 1,-61 26,-98 85,-98 z m 52,81 c 6,-60 -76,-77 -97,-28 -3,7 -6,17 -6,28 l 103,0"
                         style="fill:#000000;fill-opacity:1;fill-rule:nonzero;stroke:none"
                         id="path4580"
                         inkscape:connector-curvature="0" /></g></g></g><g
                   id="g4582"
                   transform="translate(999,234)"><g
                     id="g4584"><g
                       id="g4586"><path
                         d="m 30,-248 c 87,1 191,-15 191,75 0,78 -77,80 -158,76 l 0,97 -33,0 0,-248 z m 33,125 c 57,0 124,11 124,-50 0,-59 -68,-47 -124,-48 l 0,98"
                         style="fill:#000000;fill-opacity:1;fill-rule:nonzero;stroke:none"
                         id="path4588"
                         inkscape:connector-curvature="0" /></g></g></g><g
                   id="g4590"
                   transform="translate(1239,234)"><g
                     id="g4592"><g
                       id="g4594"><path
                         d="M 141,-36 C 126,-15 110,5 73,4 37,3 15,-17 15,-53 c -1,-64 63,-63 125,-63 3,-35 -9,-54 -41,-54 -24,1 -41,7 -42,31 l -33,-3 c 5,-37 33,-52 76,-52 45,0 72,20 72,64 l 0,82 c -1,20 7,32 28,27 l 0,20 C 169,8 139,-3 141,-36 Z M 48,-53 c 0,20 12,33 32,33 41,-3 63,-29 60,-74 -43,2 -92,-5 -92,41"
                         style="fill:#000000;fill-opacity:1;fill-rule:nonzero;stroke:none"
                         id="path4596"
                         inkscape:connector-curvature="0" /></g></g></g><g
                   id="g4598"
                   transform="translate(1439,234)"><g
                     id="g4600"><g
                       id="g4602"><path
                         d="M 177,-190 C 167,-65 218,103 67,71 44,65 29,51 23,28 l 32,-5 c 15,47 100,32 89,-28 l 0,-30 C 133,-14 115,1 83,1 29,1 15,-40 15,-95 c 0,-56 16,-97 71,-98 29,-1 48,16 59,35 1,-10 0,-23 2,-32 l 30,0 z M 94,-22 c 36,0 50,-32 50,-73 0,-42 -14,-75 -50,-75 -39,0 -46,34 -46,75 0,41 6,73 46,73"
                         style="fill:#000000;fill-opacity:1;fill-rule:nonzero;stroke:none"
                         id="path4604"
                         inkscape:connector-curvature="0" /></g></g></g><g
                   id="g4606"
                   transform="translate(1639,234)"><g
                     id="g4608"><g
                       id="g4610"><path
                         d="m 100,-194 c 63,0 86,42 84,106 l -135,0 c 0,40 14,67 53,68 26,1 43,-12 49,-29 l 28,8 C 168,-13 142,4 102,4 44,4 14,-33 15,-96 c 1,-61 26,-98 85,-98 z m 52,81 c 6,-60 -76,-77 -97,-28 -3,7 -6,17 -6,28 l 103,0"
                         style="fill:#000000;fill-opacity:1;fill-rule:nonzero;stroke:none"
                         id="path4612"
                         inkscape:connector-curvature="0" /></g></g></g></g></g></g></g></g><g
         id="g4614"><g
           id="g4616"><g
             id="g4618"><path
               d="m 20,385 c 0,-2.8 2.2,-5 5,-5 l 150,0 c 2.8,0 5,2.2 5,5 l 0,110 c 0,2.8 -2.2,5 -5,5 l -150,0 c -2.8,0 -5,-2.2 -5,-5 l 0,-110 z"
               style="fill:#ffffff;fill-opacity:1;fill-rule:nonzero;stroke:none"
               id="path4620"
               inkscape:connector-curvature="0" /></g><g
             id="g4622"><g
               id="g4624"><g
                 id="g4626"><path
                   d="m 20,385 c 0,-2.8 2.2,-5 5,-5 l 150,0 c 2.8,0 5,2.2 5,5 l 0,110 c 0,2.8 -2.2,5 -5,5 l -150,0 c -2.8,0 -5,-2.2 -5,-5 l 0,-110 z"
                   style="fill:none;stroke:#000000;stroke-width:2;stroke-linecap:butt;stroke-linejoin:miter;stroke-miterlimit:10;stroke-dasharray:none;stroke-opacity:1"
                   id="path4628"
                   inkscape:connector-curvature="0" /></g></g></g><g
             id="g4630"
             transform="translate(28,388)"><g
               id="g4632"><g
                 id="g4634"
                 transform="matrix(0.0617,0,0,0.0617,1.07,41.9622)"><g
                   id="g4636"
                   transform="translate(0,234)"><g
                     id="g4638"><g
                       id="g4640"><path
                         d="m 212,-179 c -10,-28 -35,-45 -73,-45 -59,0 -87,40 -87,99 0,60 29,101 89,101 43,0 62,-24 78,-52 l 27,14 C 228,-24 195,4 139,4 59,4 22,-46 18,-125 c -6,-104 99,-153 187,-111 19,9 31,26 39,46"
                         style="fill:#000000;fill-opacity:1;fill-rule:nonzero;stroke:none"
                         id="path4642"
                         inkscape:connector-curvature="0" /></g></g></g><g
                   id="g4644"
                   transform="translate(259,234)"><g
                     id="g4646"><g
                       id="g4648"><path
                         d="M 141,-36 C 126,-15 110,5 73,4 37,3 15,-17 15,-53 c -1,-64 63,-63 125,-63 3,-35 -9,-54 -41,-54 -24,1 -41,7 -42,31 l -33,-3 c 5,-37 33,-52 76,-52 45,0 72,20 72,64 l 0,82 c -1,20 7,32 28,27 l 0,20 C 169,8 139,-3 141,-36 Z M 48,-53 c 0,20 12,33 32,33 41,-3 63,-29 60,-74 -43,2 -92,-5 -92,41"
                         style="fill:#000000;fill-opacity:1;fill-rule:nonzero;stroke:none"
                         id="path4650"
                         inkscape:connector-curvature="0" /></g></g></g><g
                   id="g4652"
                   transform="translate(459,234)"><g
                     id="g4654"><g
                       id="g4656"><path
                         d="m 59,-47 c -2,24 18,29 38,22 l 0,24 C 64,9 27,4 27,-40 l 0,-127 -22,0 0,-23 24,0 9,-43 21,0 0,43 35,0 0,23 -35,0 0,120"
                         style="fill:#000000;fill-opacity:1;fill-rule:nonzero;stroke:none"
                         id="path4658"
                         inkscape:connector-curvature="0" /></g></g></g><g
                   id="g4660"
                   transform="translate(559,234)"><g
                     id="g4662"><g
                       id="g4664"><path
                         d="m 100,-194 c 63,0 86,42 84,106 l -135,0 c 0,40 14,67 53,68 26,1 43,-12 49,-29 l 28,8 C 168,-13 142,4 102,4 44,4 14,-33 15,-96 c 1,-61 26,-98 85,-98 z m 52,81 c 6,-60 -76,-77 -97,-28 -3,7 -6,17 -6,28 l 103,0"
                         style="fill:#000000;fill-opacity:1;fill-rule:nonzero;stroke:none"
                         id="path4666"
                         inkscape:connector-curvature="0" /></g></g></g><g
                   id="g4668"
                   transform="translate(759,234)"><g
                     id="g4670"><g
                       id="g4672"><path
                         d="M 177,-190 C 167,-65 218,103 67,71 44,65 29,51 23,28 l 32,-5 c 15,47 100,32 89,-28 l 0,-30 C 133,-14 115,1 83,1 29,1 15,-40 15,-95 c 0,-56 16,-97 71,-98 29,-1 48,16 59,35 1,-10 0,-23 2,-32 l 30,0 z M 94,-22 c 36,0 50,-32 50,-73 0,-42 -14,-75 -50,-75 -39,0 -46,34 -46,75 0,41 6,73 46,73"
                         style="fill:#000000;fill-opacity:1;fill-rule:nonzero;stroke:none"
                         id="path4674"
                         inkscape:connector-curvature="0" /></g></g></g><g
                   id="g4676"
                   transform="translate(959,234)"><g
                     id="g4678"><g
                       id="g4680"><path
                         d="m 100,-194 c 62,-1 85,37 85,99 1,63 -27,99 -86,99 -59,0 -83,-39 -84,-99 0,-66 28,-99 85,-99 z m -1,174 c 44,1 53,-31 53,-75 0,-43 -8,-75 -51,-75 -43,0 -53,32 -53,75 0,43 10,74 51,75"
                         style="fill:#000000;fill-opacity:1;fill-rule:nonzero;stroke:none"
                         id="path4682"
                         inkscape:connector-curvature="0" /></g></g></g><g
                   id="g4684"
                   transform="translate(1159,234)"><g
                     id="g4686"><g
                       id="g4688"><path
                         d="M 114,-163 C 36,-179 61,-72 57,0 l -32,0 -1,-190 30,0 c 1,12 -1,29 2,39 6,-27 23,-49 58,-41 l 0,29"
                         style="fill:#000000;fill-opacity:1;fill-rule:nonzero;stroke:none"
                         id="path4690"
                         inkscape:connector-curvature="0" /></g></g></g><g
                   id="g4692"
                   transform="translate(1278,234)"><g
                     id="g4694"><g
                       id="g4696"><path
                         d="M 179,-190 93,31 C 79,59 56,82 12,73 L 12,49 C 51,55 65,29 76,-1 l -75,-189 34,0 57,156 54,-156 33,0"
                         style="fill:#000000;fill-opacity:1;fill-rule:nonzero;stroke:none"
                         id="path4698"
                         inkscape:connector-curvature="0" /></g></g></g><g
                   id="g4700"
                   transform="translate(1458,234)"><g
                     id="g4702"><g
                       id="g4704"><path
                         d="m 30,-248 c 87,1 191,-15 191,75 0,78 -77,80 -158,76 l 0,97 -33,0 0,-248 z m 33,125 c 57,0 124,11 124,-50 0,-59 -68,-47 -124,-48 l 0,98"
                         style="fill:#000000;fill-opacity:1;fill-rule:nonzero;stroke:none"
                         id="path4706"
                         inkscape:connector-curvature="0" /></g></g></g><g
                   id="g4708"
                   transform="translate(1698,234)"><g
                     id="g4710"><g
                       id="g4712"><path
                         d="M 141,-36 C 126,-15 110,5 73,4 37,3 15,-17 15,-53 c -1,-64 63,-63 125,-63 3,-35 -9,-54 -41,-54 -24,1 -41,7 -42,31 l -33,-3 c 5,-37 33,-52 76,-52 45,0 72,20 72,64 l 0,82 c -1,20 7,32 28,27 l 0,20 C 169,8 139,-3 141,-36 Z M 48,-53 c 0,20 12,33 32,33 41,-3 63,-29 60,-74 -43,2 -92,-5 -92,41"
                         style="fill:#000000;fill-opacity:1;fill-rule:nonzero;stroke:none"
                         id="path4714"
                         inkscape:connector-curvature="0" /></g></g></g><g
                   id="g4716"
                   transform="translate(1898,234)"><g
                     id="g4718"><g
                       id="g4720"><path
                         d="M 177,-190 C 167,-65 218,103 67,71 44,65 29,51 23,28 l 32,-5 c 15,47 100,32 89,-28 l 0,-30 C 133,-14 115,1 83,1 29,1 15,-40 15,-95 c 0,-56 16,-97 71,-98 29,-1 48,16 59,35 1,-10 0,-23 2,-32 l 30,0 z M 94,-22 c 36,0 50,-32 50,-73 0,-42 -14,-75 -50,-75 -39,0 -46,34 -46,75 0,41 6,73 46,73"
                         style="fill:#000000;fill-opacity:1;fill-rule:nonzero;stroke:none"
                         id="path4722"
                         inkscape:connector-curvature="0" /></g></g></g><g
                   id="g4724"
                   transform="translate(2098,234)"><g
                     id="g4726"><g
                       id="g4728"><path
                         d="m 100,-194 c 63,0 86,42 84,106 l -135,0 c 0,40 14,67 53,68 26,1 43,-12 49,-29 l 28,8 C 168,-13 142,4 102,4 44,4 14,-33 15,-96 c 1,-61 26,-98 85,-98 z m 52,81 c 6,-60 -76,-77 -97,-28 -3,7 -6,17 -6,28 l 103,0"
                         style="fill:#000000;fill-opacity:1;fill-rule:nonzero;stroke:none"
                         id="path4730"
                         inkscape:connector-curvature="0" /></g></g></g></g></g></g></g></g><g
         id="g4732"><g
           id="g4734"><g
             id="g4736"><path
               d="m 140,205 c 0,-2.8 2.2,-5 5,-5 l 150,0 c 2.8,0 5,2.2 5,5 l 0,110 c 0,2.8 -2.2,5 -5,5 l -150,0 c -2.8,0 -5,-2.2 -5,-5 l 0,-110 z"
               style="fill:#ffffff;fill-opacity:1;fill-rule:nonzero;stroke:none"
               id="path4738"
               inkscape:connector-curvature="0" /></g><g
             id="g4740"><g
               id="g4742"><g
                 id="g4744"><path
                   d="m 140,205 c 0,-2.8 2.2,-5 5,-5 l 150,0 c 2.8,0 5,2.2 5,5 l 0,110 c 0,2.8 -2.2,5 -5,5 l -150,0 c -2.8,0 -5,-2.2 -5,-5 l 0,-110 z"
                   style="fill:none;stroke:#000000;stroke-width:2;stroke-linecap:butt;stroke-linejoin:miter;stroke-miterlimit:10;stroke-dasharray:none;stroke-opacity:1"
                   id="path4746"
                   inkscape:connector-curvature="0" /></g></g></g><g
             id="g4748"
             transform="translate(148,208)"><g
               id="g4750"><g
                 id="g4752"
                 transform="matrix(0.074,0,0,0.074,35,39.984)"><g
                   id="g4754"
                   transform="translate(0,234)"><g
                     id="g4756"><g
                       id="g4758"><path
                         d="M 205,0 177,-72 64,-72 36,0 1,0 l 101,-248 38,0 99,248 -34,0 z m -38,-99 -47,-123 c -12,45 -31,82 -46,123 l 93,0"
                         style="fill:#000000;fill-opacity:1;fill-rule:nonzero;stroke:none"
                         id="path4760"
                         inkscape:connector-curvature="0" /></g></g></g><g
                   id="g4762"
                   transform="translate(240,234)"><g
                     id="g4764"><g
                       id="g4766"><path
                         d="M 114,-163 C 36,-179 61,-72 57,0 l -32,0 -1,-190 30,0 c 1,12 -1,29 2,39 6,-27 23,-49 58,-41 l 0,29"
                         style="fill:#000000;fill-opacity:1;fill-rule:nonzero;stroke:none"
                         id="path4768"
                         inkscape:connector-curvature="0" /></g></g></g><g
                   id="g4770"
                   transform="translate(359,234)"><g
                     id="g4772"><g
                       id="g4774"><path
                         d="m 59,-47 c -2,24 18,29 38,22 l 0,24 C 64,9 27,4 27,-40 l 0,-127 -22,0 0,-23 24,0 9,-43 21,0 0,43 35,0 0,23 -35,0 0,120"
                         style="fill:#000000;fill-opacity:1;fill-rule:nonzero;stroke:none"
                         id="path4776"
                         inkscape:connector-curvature="0" /></g></g></g><g
                   id="g4778"
                   transform="translate(459,234)"><g
                     id="g4780"><g
                       id="g4782"><path
                         d="m 24,-231 0,-30 32,0 0,30 -32,0 z m 0,231 0,-190 32,0 0,190 -32,0"
                         style="fill:#000000;fill-opacity:1;fill-rule:nonzero;stroke:none"
                         id="path4784"
                         inkscape:connector-curvature="0" /></g></g></g><g
                   id="g4786"
                   transform="translate(538,234)"><g
                     id="g4788"><g
                       id="g4790"><path
                         d="m 96,-169 c -40,0 -48,33 -48,73 0,40 9,75 48,75 24,0 41,-14 43,-38 l 32,2 C 165,-20 140,4 97,4 38,4 21,-37 15,-95 c -10,-93 101,-131 147,-64 4,7 5,14 7,22 l -32,3 c -4,-21 -16,-35 -41,-35"
                         style="fill:#000000;fill-opacity:1;fill-rule:nonzero;stroke:none"
                         id="path4792"
                         inkscape:connector-curvature="0" /></g></g></g><g
                   id="g4794"
                   transform="translate(718,234)"><g
                     id="g4796"><g
                       id="g4798"><path
                         d="m 24,0 0,-261 32,0 0,261 -32,0"
                         style="fill:#000000;fill-opacity:1;fill-rule:nonzero;stroke:none"
                         id="path4800"
                         inkscape:connector-curvature="0" /></g></g></g><g
                   id="g4802"
                   transform="translate(797,234)"><g
                     id="g4804"><g
                       id="g4806"><path
                         d="m 100,-194 c 63,0 86,42 84,106 l -135,0 c 0,40 14,67 53,68 26,1 43,-12 49,-29 l 28,8 C 168,-13 142,4 102,4 44,4 14,-33 15,-96 c 1,-61 26,-98 85,-98 z m 52,81 c 6,-60 -76,-77 -97,-28 -3,7 -6,17 -6,28 l 103,0"
                         style="fill:#000000;fill-opacity:1;fill-rule:nonzero;stroke:none"
                         id="path4808"
                         inkscape:connector-curvature="0" /></g></g></g></g></g></g></g></g><g
         id="g4810"><g
           id="g4812"><g
             id="g4814"><g
               id="g4816"><g
                 id="g4818"><path
                   d="m 220,200 0,-60"
                   style="fill:none;stroke:#000000;stroke-width:2;stroke-linecap:butt;stroke-linejoin:miter;stroke-miterlimit:10;stroke-dasharray:none;stroke-opacity:1"
                   id="path4820"
                   inkscape:connector-curvature="0" /></g></g></g><g
             id="g4822" /><g
             id="g4824"><path
               d="M 234.8,154.8 220,170 205.2,154.8 220,140 l 14.8,14.8 z"
               style="fill:#ffffff;fill-opacity:1;fill-rule:nonzero;stroke:none"
               id="path4826"
               inkscape:connector-curvature="0" /></g><g
             id="g4828"><path
               d="m 236.3,154.8 -16.3,16.6 -16.3,-16.6 14.9,-14.8 2.8,0 14.9,14.8 z m -29.7,0.1 13.4,13.7 13.4,-13.7 -13.4,-13.5 -13.4,13.5 z"
               style="fill:#000000;fill-opacity:1;fill-rule:nonzero;stroke:none"
               id="path4830"
               inkscape:connector-curvature="0" /></g></g></g><g
         id="g4832"><g
           id="g4834"><g
             id="g4836"><g
               id="g4838"><g
                 id="g4840"><path
                   d="m 200,320 0,25 c 0,2.8 -2.2,5 -5,5 l -90,0 c -2.8,0 -5,2.2 -5,5 l 0,25"
                   style="fill:none;stroke:#000000;stroke-width:2;stroke-linecap:butt;stroke-linejoin:miter;stroke-miterlimit:10;stroke-dasharray:none;stroke-opacity:1"
                   id="path4842"
                   inkscape:connector-curvature="0" /></g></g></g><g
             id="g4844"><path
               d="m 212.7,341.5 -25.4,0 12.7,-21.5 12.7,21.5 z"
               style="fill:#ffffff;fill-opacity:1;fill-rule:nonzero;stroke:none"
               id="path4846"
               inkscape:connector-curvature="0" /></g><g
             id="g4848"><path
               d="m 214.5,342.5 -29,0 13.3,-22.5 2.4,0 13.3,22.5 z m -25.5,-2 22,0 -11,-18.5 -11,18.5 z"
               style="fill:#000000;fill-opacity:1;fill-rule:nonzero;stroke:none"
               id="path4850"
               inkscape:connector-curvature="0" /></g><g
             id="g4852" /></g></g><g
         id="g4854"><g
           id="g4856"><g
             id="g4858"><g
               id="g4860"><g
                 id="g4862"><path
                   d="m 240,320 0,25 c 0,2.8 2.2,5 5,5 l 100,0 c 2.8,0 5,2.2 5,5 l 0,25"
                   style="fill:none;stroke:#000000;stroke-width:2;stroke-linecap:butt;stroke-linejoin:miter;stroke-miterlimit:10;stroke-dasharray:none;stroke-opacity:1"
                   id="path4864"
                   inkscape:connector-curvature="0" /></g></g></g><g
             id="g4866"><path
               d="m 252.7,341.5 -25.4,0 12.7,-21.5 12.7,21.5 z"
               style="fill:#ffffff;fill-opacity:1;fill-rule:nonzero;stroke:none"
               id="path4868"
               inkscape:connector-curvature="0" /></g><g
             id="g4870"><path
               d="m 254.5,342.5 -29,0 13.3,-22.5 2.4,0 13.3,22.5 z m -25.5,-2 22,0 -11,-18.5 -11,18.5 z"
               style="fill:#000000;fill-opacity:1;fill-rule:nonzero;stroke:none"
               id="path4872"
               inkscape:connector-curvature="0" /></g><g
             id="g4874" /></g></g></g><g
       id="g4876"
       transform="scale(1,-1)" /></g></svg>