<?xml version="1.0" encoding="UTF-8" standalone="no"?>
<!-- Created with Inkscape (http://www.inkscape.org/) -->

<svg
   xmlns:dc="http://purl.org/dc/elements/1.1/"
   xmlns:cc="http://creativecommons.org/ns#"
   xmlns:rdf="http://www.w3.org/1999/02/22-rdf-syntax-ns#"
   xmlns:svg="http://www.w3.org/2000/svg"
   xmlns="http://www.w3.org/2000/svg"
   xmlns:sodipodi="http://sodipodi.sourceforge.net/DTD/sodipodi-0.dtd"
   xmlns:inkscape="http://www.inkscape.org/namespaces/inkscape"
   id="svg4878"
   version="1.1"
   inkscape:version="0.91 r13725"
   xml:space="preserve"
   width="435"
   height="52.5"
   viewBox="0 0 435 52.5"
   sodipodi:docname="Module-Page-DeleteRequestExample.svg"><metadata
     id="metadata4884"><rdf:RDF><cc:Work
         rdf:about=""><dc:format>image/svg+xml</dc:format><dc:type
           rdf:resource="http://purl.org/dc/dcmitype/StillImage" /><dc:title></dc:title></cc:Work></rdf:RDF></metadata><defs
     id="defs4882" /><sodipodi:namedview
     pagecolor="#ffffff"
     bordercolor="#666666"
     borderopacity="1"
     objecttolerance="10"
     gridtolerance="10"
     guidetolerance="10"
     inkscape:pageopacity="0"
     inkscape:pageshadow="2"
     inkscape:window-width="640"
     inkscape:window-height="480"
     id="namedview4880"
     showgrid="false"
     inkscape:zoom="0.80689655"
     inkscape:cx="217.5"
     inkscape:cy="26.25"
     inkscape:window-x="0"
     inkscape:window-y="0"
     inkscape:window-maximized="0"
     inkscape:current-layer="g4886" /><g
     id="g4886"
     inkscape:groupmode="layer"
     inkscape:label="DeleteExample"
     transform="scale(0.5625,0.5625)"><g
       id="g4888"><path
         d="M 0,0 774,0 774,94 0,94 0,0 Z"
         style="fill:#ffffff;fill-opacity:1;fill-rule:nonzero;stroke:none"
         id="path4890"
         inkscape:connector-curvature="0" /></g><g
       id="g4892"><g
         id="g4894"><g
           id="g4896"><g
             id="g4898"><path
               d="m 22,25 c 0,-2.8 2.2,-5 5,-5 l 188,0 c 2.8,0 5,2.2 5,5 l 0,50 c 0,2.8 -2.2,5 -5,5 L 27,80 c -2.8,0 -5,-2.2 -5,-5 l 0,-50 z"
               style="fill:#ffffff;fill-opacity:1;fill-rule:nonzero;stroke:none"
               id="path4900"
               inkscape:connector-curvature="0" /></g><g
             id="g4902"><g
               id="g4904"><g
                 id="g4906"><path
                   d="m 22,25 c 0,-2.8 2.2,-5 5,-5 l 188,0 c 2.8,0 5,2.2 5,5 l 0,50 c 0,2.8 -2.2,5 -5,5 L 27,80 c -2.8,0 -5,-2.2 -5,-5 l 0,-50 z"
                   style="fill:none;stroke:#000000;stroke-width:2;stroke-linecap:butt;stroke-linejoin:miter;stroke-miterlimit:10;stroke-dasharray:none;stroke-opacity:1"
                   id="path4908"
                   inkscape:connector-curvature="0" /></g></g></g><g
             id="g4910"
             transform="translate(22,20)"><g
               id="g4912"><g
                 id="g4914"
                 transform="matrix(0.05,0,0,0.05,37,31)"><g
                   id="g4916"
                   transform="translate(0,42)"><g
                     id="g4918"><g
                       id="g4920"><path
                         d="m 30,-248 c 118,-7 216,8 213,122 C 240,-48 200,0 122,0 l -92,0 0,-248 z m 33,221 c 89,8 146,-16 146,-99 0,-83 -60,-101 -146,-95 l 0,194"
                         style="fill:#000000;fill-opacity:1;fill-rule:nonzero;stroke:none"
                         id="path4922"
                         inkscape:connector-curvature="0" /></g></g></g><g
                   id="g4924"
                   transform="translate(259,42)"><g
                     id="g4926"><g
                       id="g4928"><path
                         d="m 100,-194 c 63,0 86,42 84,106 l -135,0 c 0,40 14,67 53,68 26,1 43,-12 49,-29 l 28,8 C 168,-13 142,4 102,4 44,4 14,-33 15,-96 c 1,-61 26,-98 85,-98 z m 52,81 c 6,-60 -76,-77 -97,-28 -3,7 -6,17 -6,28 l 103,0"
                         style="fill:#000000;fill-opacity:1;fill-rule:nonzero;stroke:none"
                         id="path4930"
                         inkscape:connector-curvature="0" /></g></g></g><g
                   id="g4932"
                   transform="translate(459,42)"><g
                     id="g4934"><g
                       id="g4936"><path
                         d="m 24,0 0,-261 32,0 0,261 -32,0"
                         style="fill:#000000;fill-opacity:1;fill-rule:nonzero;stroke:none"
                         id="path4938"
                         inkscape:connector-curvature="0" /></g></g></g><g
                   id="g4940"
                   transform="translate(538,42)"><g
                     id="g4942"><g
                       id="g4944"><path
                         d="m 100,-194 c 63,0 86,42 84,106 l -135,0 c 0,40 14,67 53,68 26,1 43,-12 49,-29 l 28,8 C 168,-13 142,4 102,4 44,4 14,-33 15,-96 c 1,-61 26,-98 85,-98 z m 52,81 c 6,-60 -76,-77 -97,-28 -3,7 -6,17 -6,28 l 103,0"
                         style="fill:#000000;fill-opacity:1;fill-rule:nonzero;stroke:none"
                         id="path4946"
                         inkscape:connector-curvature="0" /></g></g></g><g
                   id="g4948"
                   transform="translate(738,42)"><g
                     id="g4950"><g
                       id="g4952"><path
                         d="m 59,-47 c -2,24 18,29 38,22 l 0,24 C 64,9 27,4 27,-40 l 0,-127 -22,0 0,-23 24,0 9,-43 21,0 0,43 35,0 0,23 -35,0 0,120"
                         style="fill:#000000;fill-opacity:1;fill-rule:nonzero;stroke:none"
                         id="path4954"
                         inkscape:connector-curvature="0" /></g></g></g><g
                   id="g4956"
                   transform="translate(838,42)"><g
                     id="g4958"><g
                       id="g4960"><path
                         d="m 100,-194 c 63,0 86,42 84,106 l -135,0 c 0,40 14,67 53,68 26,1 43,-12 49,-29 l 28,8 C 168,-13 142,4 102,4 44,4 14,-33 15,-96 c 1,-61 26,-98 85,-98 z m 52,81 c 6,-60 -76,-77 -97,-28 -3,7 -6,17 -6,28 l 103,0"
                         style="fill:#000000;fill-opacity:1;fill-rule:nonzero;stroke:none"
                         id="path4962"
                         inkscape:connector-curvature="0" /></g></g></g><g
                   id="g4964"
                   transform="translate(1038,42)"><g
                     id="g4966"><g
                       id="g4968" /></g></g></g></g><g
               id="g4970"><g
                 id="g4972"
                 transform="matrix(0.05,0,0,0.05,93.9,31)"><g
                   id="g4974"
                   transform="translate(0,42)"><g
                     id="g4976"><g
                       id="g4978"><path
                         d="m 233,-177 c -1,41 -23,64 -60,70 l 70,107 -38,0 -65,-103 -77,0 0,103 -33,0 0,-248 c 88,3 205,-21 203,71 z m -170,48 c 60,-2 137,13 137,-47 0,-61 -80,-42 -137,-45 l 0,92"
                         style="fill:#000000;fill-opacity:1;fill-rule:nonzero;stroke:none"
                         id="path4980"
                         inkscape:connector-curvature="0" /></g></g></g><g
                   id="g4982"
                   transform="translate(259,42)"><g
                     id="g4984"><g
                       id="g4986"><path
                         d="m 100,-194 c 63,0 86,42 84,106 l -135,0 c 0,40 14,67 53,68 26,1 43,-12 49,-29 l 28,8 C 168,-13 142,4 102,4 44,4 14,-33 15,-96 c 1,-61 26,-98 85,-98 z m 52,81 c 6,-60 -76,-77 -97,-28 -3,7 -6,17 -6,28 l 103,0"
                         style="fill:#000000;fill-opacity:1;fill-rule:nonzero;stroke:none"
                         id="path4988"
                         inkscape:connector-curvature="0" /></g></g></g><g
                   id="g4990"
                   transform="translate(459,42)"><g
                     id="g4992"><g
                       id="g4994"><path
                         d="M 145,-31 C 134,-9 116,4 85,4 32,4 16,-35 15,-94 c 0,-59 17,-99 70,-100 32,-1 48,14 60,33 0,-11 -1,-24 2,-32 l 30,0 -1,268 -32,0 1,-106 z m -52,10 c 41,0 51,-33 51,-76 0,-43 -8,-73 -50,-73 -40,0 -46,35 -46,75 0,40 5,74 45,74"
                         style="fill:#000000;fill-opacity:1;fill-rule:nonzero;stroke:none"
                         id="path4996"
                         inkscape:connector-curvature="0" /></g></g></g><g
                   id="g4998"
                   transform="translate(659,42)"><g
                     id="g5000"><g
                       id="g5002"><path
                         d="M 84,4 C -5,8 30,-112 23,-190 l 32,0 0,120 c 0,31 7,50 39,49 72,-2 45,-101 50,-169 l 31,0 1,190 -30,0 c -1,-10 1,-25 -2,-33 -11,22 -28,36 -60,37"
                         style="fill:#000000;fill-opacity:1;fill-rule:nonzero;stroke:none"
                         id="path5004"
                         inkscape:connector-curvature="0" /></g></g></g><g
                   id="g5006"
                   transform="translate(859,42)"><g
                     id="g5008"><g
                       id="g5010"><path
                         d="m 100,-194 c 63,0 86,42 84,106 l -135,0 c 0,40 14,67 53,68 26,1 43,-12 49,-29 l 28,8 C 168,-13 142,4 102,4 44,4 14,-33 15,-96 c 1,-61 26,-98 85,-98 z m 52,81 c 6,-60 -76,-77 -97,-28 -3,7 -6,17 -6,28 l 103,0"
                         style="fill:#000000;fill-opacity:1;fill-rule:nonzero;stroke:none"
                         id="path5012"
                         inkscape:connector-curvature="0" /></g></g></g><g
                   id="g5014"
                   transform="translate(1059,42)"><g
                     id="g5016"><g
                       id="g5018"><path
                         d="m 135,-143 c -3,-34 -86,-38 -87,0 15,53 115,12 119,90 4,78 -150,74 -157,8 l 28,-5 c 4,36 97,45 98,0 -10,-56 -113,-15 -118,-90 -4,-57 82,-63 122,-42 12,7 21,19 24,35"
                         style="fill:#000000;fill-opacity:1;fill-rule:nonzero;stroke:none"
                         id="path5020"
                         inkscape:connector-curvature="0" /></g></g></g><g
                   id="g5022"
                   transform="translate(1239,42)"><g
                     id="g5024"><g
                       id="g5026"><path
                         d="m 59,-47 c -2,24 18,29 38,22 l 0,24 C 64,9 27,4 27,-40 l 0,-127 -22,0 0,-23 24,0 9,-43 21,0 0,43 35,0 0,23 -35,0 0,120"
                         style="fill:#000000;fill-opacity:1;fill-rule:nonzero;stroke:none"
                         id="path5028"
                         inkscape:connector-curvature="0" /></g></g></g></g></g></g></g></g><g
         id="g5030"><g
           id="g5032"><g
             id="g5034"><path
               d="m 260,25 c 0,-2.8 2.2,-5 5,-5 l 168,0 c 2.8,0 5,2.2 5,5 l 0,50 c 0,2.8 -2.2,5 -5,5 l -168,0 c -2.8,0 -5,-2.2 -5,-5 l 0,-50 z"
               style="fill:#ffffff;fill-opacity:1;fill-rule:nonzero;stroke:none"
               id="path5036"
               inkscape:connector-curvature="0" /></g><g
             id="g5038"><g
               id="g5040"><g
                 id="g5042"><path
                   d="m 260,25 c 0,-2.8 2.2,-5 5,-5 l 168,0 c 2.8,0 5,2.2 5,5 l 0,50 c 0,2.8 -2.2,5 -5,5 l -168,0 c -2.8,0 -5,-2.2 -5,-5 l 0,-50 z"
                   style="fill:none;stroke:#000000;stroke-width:2;stroke-linecap:butt;stroke-linejoin:miter;stroke-miterlimit:10;stroke-dasharray:none;stroke-opacity:1"
                   id="path5044"
                   inkscape:connector-curvature="0" /></g></g></g><g
             id="g5046"
             transform="translate(260,20)"><g
               id="g5048"><g
                 id="g5050"
                 transform="matrix(0.05,0,0,0.05,28.6,31)"><g
                   id="g5052"
                   transform="translate(0,42)"><g
                     id="g5054"><g
                       id="g5056"><path
                         d="M 205,0 177,-72 64,-72 36,0 1,0 l 101,-248 38,0 99,248 -34,0 z m -38,-99 -47,-123 c -12,45 -31,82 -46,123 l 93,0"
                         style="fill:#000000;fill-opacity:1;fill-rule:nonzero;stroke:none"
                         id="path5058"
                         inkscape:connector-curvature="0" /></g></g></g><g
                   id="g5060"
                   transform="translate(240,42)"><g
                     id="g5062"><g
                       id="g5064"><path
                         d="M 114,-163 C 36,-179 61,-72 57,0 l -32,0 -1,-190 30,0 c 1,12 -1,29 2,39 6,-27 23,-49 58,-41 l 0,29"
                         style="fill:#000000;fill-opacity:1;fill-rule:nonzero;stroke:none"
                         id="path5066"
                         inkscape:connector-curvature="0" /></g></g></g><g
                   id="g5068"
                   transform="translate(359,42)"><g
                     id="g5070"><g
                       id="g5072"><path
                         d="m 59,-47 c -2,24 18,29 38,22 l 0,24 C 64,9 27,4 27,-40 l 0,-127 -22,0 0,-23 24,0 9,-43 21,0 0,43 35,0 0,23 -35,0 0,120"
                         style="fill:#000000;fill-opacity:1;fill-rule:nonzero;stroke:none"
                         id="path5074"
                         inkscape:connector-curvature="0" /></g></g></g><g
                   id="g5076"
                   transform="translate(459,42)"><g
                     id="g5078"><g
                       id="g5080"><path
                         d="m 24,-231 0,-30 32,0 0,30 -32,0 z m 0,231 0,-190 32,0 0,190 -32,0"
                         style="fill:#000000;fill-opacity:1;fill-rule:nonzero;stroke:none"
                         id="path5082"
                         inkscape:connector-curvature="0" /></g></g></g><g
                   id="g5084"
                   transform="translate(538,42)"><g
                     id="g5086"><g
                       id="g5088"><path
                         d="m 96,-169 c -40,0 -48,33 -48,73 0,40 9,75 48,75 24,0 41,-14 43,-38 l 32,2 C 165,-20 140,4 97,4 38,4 21,-37 15,-95 c -10,-93 101,-131 147,-64 4,7 5,14 7,22 l -32,3 c -4,-21 -16,-35 -41,-35"
                         style="fill:#000000;fill-opacity:1;fill-rule:nonzero;stroke:none"
                         id="path5090"
                         inkscape:connector-curvature="0" /></g></g></g><g
                   id="g5092"
                   transform="translate(718,42)"><g
                     id="g5094"><g
                       id="g5096"><path
                         d="m 24,0 0,-261 32,0 0,261 -32,0"
                         style="fill:#000000;fill-opacity:1;fill-rule:nonzero;stroke:none"
                         id="path5098"
                         inkscape:connector-curvature="0" /></g></g></g><g
                   id="g5100"
                   transform="translate(797,42)"><g
                     id="g5102"><g
                       id="g5104"><path
                         d="m 100,-194 c 63,0 86,42 84,106 l -135,0 c 0,40 14,67 53,68 26,1 43,-12 49,-29 l 28,8 C 168,-13 142,4 102,4 44,4 14,-33 15,-96 c 1,-61 26,-98 85,-98 z m 52,81 c 6,-60 -76,-77 -97,-28 -3,7 -6,17 -6,28 l 103,0"
                         style="fill:#000000;fill-opacity:1;fill-rule:nonzero;stroke:none"
                         id="path5106"
                         inkscape:connector-curvature="0" /></g></g></g><g
                   id="g5108"
                   transform="translate(997,42)"><g
                     id="g5110"><g
                       id="g5112"><path
                         d="m 33,-154 0,-36 34,0 0,36 -34,0 z m 0,154 0,-36 34,0 0,36 -34,0"
                         style="fill:#000000;fill-opacity:1;fill-rule:nonzero;stroke:none"
                         id="path5114"
                         inkscape:connector-curvature="0" /></g></g></g><g
                   id="g5116"
                   transform="translate(1097,42)"><g
                     id="g5118"><g
                       id="g5120"><path
                         d="m 33,-154 0,-36 34,0 0,36 -34,0 z m 0,154 0,-36 34,0 0,36 -34,0"
                         style="fill:#000000;fill-opacity:1;fill-rule:nonzero;stroke:none"
                         id="path5122"
                         inkscape:connector-curvature="0" /></g></g></g><g
                   id="g5124"
                   transform="translate(1197,42)"><g
                     id="g5126"><g
                       id="g5128"><path
                         d="m 85,-194 c 31,0 48,13 60,33 l -1,-100 32,0 1,261 -30,0 c -2,-10 0,-23 -3,-31 C 134,-8 116,4 85,4 32,4 16,-35 15,-94 c 0,-66 23,-100 70,-100 z m 9,24 c -40,0 -46,34 -46,75 0,40 6,74 45,74 42,0 51,-32 51,-76 0,-42 -9,-74 -50,-73"
                         style="fill:#000000;fill-opacity:1;fill-rule:nonzero;stroke:none"
                         id="path5130"
                         inkscape:connector-curvature="0" /></g></g></g><g
                   id="g5132"
                   transform="translate(1397,42)"><g
                     id="g5134"><g
                       id="g5136"><path
                         d="m 100,-194 c 63,0 86,42 84,106 l -135,0 c 0,40 14,67 53,68 26,1 43,-12 49,-29 l 28,8 C 168,-13 142,4 102,4 44,4 14,-33 15,-96 c 1,-61 26,-98 85,-98 z m 52,81 c 6,-60 -76,-77 -97,-28 -3,7 -6,17 -6,28 l 103,0"
                         style="fill:#000000;fill-opacity:1;fill-rule:nonzero;stroke:none"
                         id="path5138"
                         inkscape:connector-curvature="0" /></g></g></g><g
                   id="g5140"
                   transform="translate(1597,42)"><g
                     id="g5142"><g
                       id="g5144"><path
                         d="m 24,0 0,-261 32,0 0,261 -32,0"
                         style="fill:#000000;fill-opacity:1;fill-rule:nonzero;stroke:none"
                         id="path5146"
                         inkscape:connector-curvature="0" /></g></g></g><g
                   id="g5148"
                   transform="translate(1676,42)"><g
                     id="g5150"><g
                       id="g5152"><path
                         d="m 100,-194 c 63,0 86,42 84,106 l -135,0 c 0,40 14,67 53,68 26,1 43,-12 49,-29 l 28,8 C 168,-13 142,4 102,4 44,4 14,-33 15,-96 c 1,-61 26,-98 85,-98 z m 52,81 c 6,-60 -76,-77 -97,-28 -3,7 -6,17 -6,28 l 103,0"
                         style="fill:#000000;fill-opacity:1;fill-rule:nonzero;stroke:none"
                         id="path5154"
                         inkscape:connector-curvature="0" /></g></g></g><g
                   id="g5156"
                   transform="translate(1876,42)"><g
                     id="g5158"><g
                       id="g5160"><path
                         d="m 59,-47 c -2,24 18,29 38,22 l 0,24 C 64,9 27,4 27,-40 l 0,-127 -22,0 0,-23 24,0 9,-43 21,0 0,43 35,0 0,23 -35,0 0,120"
                         style="fill:#000000;fill-opacity:1;fill-rule:nonzero;stroke:none"
                         id="path5162"
                         inkscape:connector-curvature="0" /></g></g></g><g
                   id="g5164"
                   transform="translate(1976,42)"><g
                     id="g5166"><g
                       id="g5168"><path
                         d="m 100,-194 c 63,0 86,42 84,106 l -135,0 c 0,40 14,67 53,68 26,1 43,-12 49,-29 l 28,8 C 168,-13 142,4 102,4 44,4 14,-33 15,-96 c 1,-61 26,-98 85,-98 z m 52,81 c 6,-60 -76,-77 -97,-28 -3,7 -6,17 -6,28 l 103,0"
                         style="fill:#000000;fill-opacity:1;fill-rule:nonzero;stroke:none"
                         id="path5170"
                         inkscape:connector-curvature="0" /></g></g></g><g
                   id="g5172"
                   transform="translate(2176,42)"><g
                     id="g5174"><g
                       id="g5176"><path
                         d="M 87,75 C 49,33 22,-17 22,-94 c 0,-76 28,-126 65,-167 l 31,0 c -38,41 -64,92 -64,168 0,76 26,127 64,168 l -31,0"
                         style="fill:#000000;fill-opacity:1;fill-rule:nonzero;stroke:none"
                         id="path5178"
                         inkscape:connector-curvature="0" /></g></g></g><g
                   id="g5180"
                   transform="translate(2295,42)"><g
                     id="g5182"><g
                       id="g5184"><path
                         d="m 33,-261 c 38,41 65,92 65,168 C 98,-17 71,34 33,75 L 2,75 C 39,34 66,-17 66,-93 66,-169 39,-220 2,-261 l 31,0"
                         style="fill:#000000;fill-opacity:1;fill-rule:nonzero;stroke:none"
                         id="path5186"
                         inkscape:connector-curvature="0" /></g></g></g></g></g></g></g></g><g
         id="g5188"><g
           id="g5190"><g
             id="g5192"><path
               d="m 478,25 c 0,-2.8 2.2,-5 5,-5 l 270,0 c 2.8,0 5,2.2 5,5 l 0,50 c 0,2.8 -2.2,5 -5,5 l -270,0 c -2.8,0 -5,-2.2 -5,-5 l 0,-50 z"
               style="fill:#ffffff;fill-opacity:1;fill-rule:nonzero;stroke:none"
               id="path5194"
               inkscape:connector-curvature="0" /></g><g
             id="g5196"><g
               id="g5198"><g
                 id="g5200"><path
                   d="m 478,25 c 0,-2.8 2.2,-5 5,-5 l 270,0 c 2.8,0 5,2.2 5,5 l 0,50 c 0,2.8 -2.2,5 -5,5 l -270,0 c -2.8,0 -5,-2.2 -5,-5 l 0,-50 z"
                   style="fill:none;stroke:#000000;stroke-width:2;stroke-linecap:butt;stroke-linejoin:miter;stroke-miterlimit:10;stroke-dasharray:none;stroke-opacity:1"
                   id="path5202"
                   inkscape:connector-curvature="0" /></g></g></g><g
             id="g5204"
             transform="translate(478,20)"><g
               id="g5206"><g
                 id="g5208"
                 transform="matrix(0.05,0,0,0.05,11.8,31)"><g
                   id="g5210"
                   transform="translate(0,42)"><g
                     id="g5212"><g
                       id="g5214"><path
                         d="M 266,0 226,0 170,-210 115,0 75,0 2,-248 l 35,0 59,218 15,-64 43,-154 32,0 59,218 59,-218 35,0"
                         style="fill:#000000;fill-opacity:1;fill-rule:nonzero;stroke:none"
                         id="path5216"
                         inkscape:connector-curvature="0" /></g></g></g><g
                   id="g5218"
                   transform="translate(339,42)"><g
                     id="g5220"><g
                       id="g5222"><path
                         d="m 24,-231 0,-30 32,0 0,30 -32,0 z m 0,231 0,-190 32,0 0,190 -32,0"
                         style="fill:#000000;fill-opacity:1;fill-rule:nonzero;stroke:none"
                         id="path5224"
                         inkscape:connector-curvature="0" /></g></g></g><g
                   id="g5226"
                   transform="translate(418,42)"><g
                     id="g5228"><g
                       id="g5230"><path
                         d="m 143,0 -64,-87 -23,19 0,68 -32,0 0,-261 32,0 0,163 83,-92 37,0 -77,82 82,108 -38,0"
                         style="fill:#000000;fill-opacity:1;fill-rule:nonzero;stroke:none"
                         id="path5232"
                         inkscape:connector-curvature="0" /></g></g></g><g
                   id="g5234"
                   transform="translate(598,42)"><g
                     id="g5236"><g
                       id="g5238"><path
                         d="m 24,-231 0,-30 32,0 0,30 -32,0 z m 0,231 0,-190 32,0 0,190 -32,0"
                         style="fill:#000000;fill-opacity:1;fill-rule:nonzero;stroke:none"
                         id="path5240"
                         inkscape:connector-curvature="0" /></g></g></g><g
                   id="g5242"
                   transform="translate(677,42)"><g
                     id="g5244"><g
                       id="g5246"><path
                         d="m 30,-248 c 87,1 191,-15 191,75 0,78 -77,80 -158,76 l 0,97 -33,0 0,-248 z m 33,125 c 57,0 124,11 124,-50 0,-59 -68,-47 -124,-48 l 0,98"
                         style="fill:#000000;fill-opacity:1;fill-rule:nonzero;stroke:none"
                         id="path5248"
                         inkscape:connector-curvature="0" /></g></g></g><g
                   id="g5250"
                   transform="translate(917,42)"><g
                     id="g5252"><g
                       id="g5254"><path
                         d="M 141,-36 C 126,-15 110,5 73,4 37,3 15,-17 15,-53 c -1,-64 63,-63 125,-63 3,-35 -9,-54 -41,-54 -24,1 -41,7 -42,31 l -33,-3 c 5,-37 33,-52 76,-52 45,0 72,20 72,64 l 0,82 c -1,20 7,32 28,27 l 0,20 C 169,8 139,-3 141,-36 Z M 48,-53 c 0,20 12,33 32,33 41,-3 63,-29 60,-74 -43,2 -92,-5 -92,41"
                         style="fill:#000000;fill-opacity:1;fill-rule:nonzero;stroke:none"
                         id="path5256"
                         inkscape:connector-curvature="0" /></g></g></g><g
                   id="g5258"
                   transform="translate(1117,42)"><g
                     id="g5260"><g
                       id="g5262"><path
                         d="M 177,-190 C 167,-65 218,103 67,71 44,65 29,51 23,28 l 32,-5 c 15,47 100,32 89,-28 l 0,-30 C 133,-14 115,1 83,1 29,1 15,-40 15,-95 c 0,-56 16,-97 71,-98 29,-1 48,16 59,35 1,-10 0,-23 2,-32 l 30,0 z M 94,-22 c 36,0 50,-32 50,-73 0,-42 -14,-75 -50,-75 -39,0 -46,34 -46,75 0,41 6,73 46,73"
                         style="fill:#000000;fill-opacity:1;fill-rule:nonzero;stroke:none"
                         id="path5264"
                         inkscape:connector-curvature="0" /></g></g></g><g
                   id="g5266"
                   transform="translate(1317,42)"><g
                     id="g5268"><g
                       id="g5270"><path
                         d="m 100,-194 c 63,0 86,42 84,106 l -135,0 c 0,40 14,67 53,68 26,1 43,-12 49,-29 l 28,8 C 168,-13 142,4 102,4 44,4 14,-33 15,-96 c 1,-61 26,-98 85,-98 z m 52,81 c 6,-60 -76,-77 -97,-28 -3,7 -6,17 -6,28 l 103,0"
                         style="fill:#000000;fill-opacity:1;fill-rule:nonzero;stroke:none"
                         id="path5272"
                         inkscape:connector-curvature="0" /></g></g></g><g
                   id="g5274"
                   transform="translate(1517,42)"><g
                     id="g5276"><g
                       id="g5278"><path
                         d="m 33,-154 0,-36 34,0 0,36 -34,0 z m 0,154 0,-36 34,0 0,36 -34,0"
                         style="fill:#000000;fill-opacity:1;fill-rule:nonzero;stroke:none"
                         id="path5280"
                         inkscape:connector-curvature="0" /></g></g></g><g
                   id="g5282"
                   transform="translate(1617,42)"><g
                     id="g5284"><g
                       id="g5286"><path
                         d="m 33,-154 0,-36 34,0 0,36 -34,0 z m 0,154 0,-36 34,0 0,36 -34,0"
                         style="fill:#000000;fill-opacity:1;fill-rule:nonzero;stroke:none"
                         id="path5288"
                         inkscape:connector-curvature="0" /></g></g></g><g
                   id="g5290"
                   transform="translate(1717,42)"><g
                     id="g5292"><g
                       id="g5294"><path
                         d="m 85,-194 c 31,0 48,13 60,33 l -1,-100 32,0 1,261 -30,0 c -2,-10 0,-23 -3,-31 C 134,-8 116,4 85,4 32,4 16,-35 15,-94 c 0,-66 23,-100 70,-100 z m 9,24 c -40,0 -46,34 -46,75 0,40 6,74 45,74 42,0 51,-32 51,-76 0,-42 -9,-74 -50,-73"
                         style="fill:#000000;fill-opacity:1;fill-rule:nonzero;stroke:none"
                         id="path5296"
                         inkscape:connector-curvature="0" /></g></g></g><g
                   id="g5298"
                   transform="translate(1917,42)"><g
                     id="g5300"><g
                       id="g5302"><path
                         d="m 100,-194 c 62,-1 85,37 85,99 1,63 -27,99 -86,99 -59,0 -83,-39 -84,-99 0,-66 28,-99 85,-99 z m -1,174 c 44,1 53,-31 53,-75 0,-43 -8,-75 -51,-75 -43,0 -53,32 -53,75 0,43 10,74 51,75"
                         style="fill:#000000;fill-opacity:1;fill-rule:nonzero;stroke:none"
                         id="path5304"
                         inkscape:connector-curvature="0" /></g></g></g><g
                   id="g5306"
                   transform="translate(2117,42)"><g
                     id="g5308"><g
                       id="g5310"><path
                         d="m 30,-248 c 118,-7 216,8 213,122 C 240,-48 200,0 122,0 l -92,0 0,-248 z m 33,221 c 89,8 146,-16 146,-99 0,-83 -60,-101 -146,-95 l 0,194"
                         style="fill:#000000;fill-opacity:1;fill-rule:nonzero;stroke:none"
                         id="path5312"
                         inkscape:connector-curvature="0" /></g></g></g><g
                   id="g5314"
                   transform="translate(2376,42)"><g
                     id="g5316"><g
                       id="g5318"><path
                         d="m 100,-194 c 63,0 86,42 84,106 l -135,0 c 0,40 14,67 53,68 26,1 43,-12 49,-29 l 28,8 C 168,-13 142,4 102,4 44,4 14,-33 15,-96 c 1,-61 26,-98 85,-98 z m 52,81 c 6,-60 -76,-77 -97,-28 -3,7 -6,17 -6,28 l 103,0"
                         style="fill:#000000;fill-opacity:1;fill-rule:nonzero;stroke:none"
                         id="path5320"
                         inkscape:connector-curvature="0" /></g></g></g><g
                   id="g5322"
                   transform="translate(2576,42)"><g
                     id="g5324"><g
                       id="g5326"><path
                         d="m 24,0 0,-261 32,0 0,261 -32,0"
                         style="fill:#000000;fill-opacity:1;fill-rule:nonzero;stroke:none"
                         id="path5328"
                         inkscape:connector-curvature="0" /></g></g></g><g
                   id="g5330"
                   transform="translate(2655,42)"><g
                     id="g5332"><g
                       id="g5334"><path
                         d="m 100,-194 c 63,0 86,42 84,106 l -135,0 c 0,40 14,67 53,68 26,1 43,-12 49,-29 l 28,8 C 168,-13 142,4 102,4 44,4 14,-33 15,-96 c 1,-61 26,-98 85,-98 z m 52,81 c 6,-60 -76,-77 -97,-28 -3,7 -6,17 -6,28 l 103,0"
                         style="fill:#000000;fill-opacity:1;fill-rule:nonzero;stroke:none"
                         id="path5336"
                         inkscape:connector-curvature="0" /></g></g></g><g
                   id="g5338"
                   transform="translate(2855,42)"><g
                     id="g5340"><g
                       id="g5342"><path
                         d="m 59,-47 c -2,24 18,29 38,22 l 0,24 C 64,9 27,4 27,-40 l 0,-127 -22,0 0,-23 24,0 9,-43 21,0 0,43 35,0 0,23 -35,0 0,120"
                         style="fill:#000000;fill-opacity:1;fill-rule:nonzero;stroke:none"
                         id="path5344"
                         inkscape:connector-curvature="0" /></g></g></g><g
                   id="g5346"
                   transform="translate(2955,42)"><g
                     id="g5348"><g
                       id="g5350"><path
                         d="m 100,-194 c 63,0 86,42 84,106 l -135,0 c 0,40 14,67 53,68 26,1 43,-12 49,-29 l 28,8 C 168,-13 142,4 102,4 44,4 14,-33 15,-96 c 1,-61 26,-98 85,-98 z m 52,81 c 6,-60 -76,-77 -97,-28 -3,7 -6,17 -6,28 l 103,0"
                         style="fill:#000000;fill-opacity:1;fill-rule:nonzero;stroke:none"
                         id="path5352"
                         inkscape:connector-curvature="0" /></g></g></g><g
                   id="g5354"
                   transform="translate(3155,42)"><g
                     id="g5356"><g
                       id="g5358"><path
                         d="M 205,0 177,-72 64,-72 36,0 1,0 l 101,-248 38,0 99,248 -34,0 z m -38,-99 -47,-123 c -12,45 -31,82 -46,123 l 93,0"
                         style="fill:#000000;fill-opacity:1;fill-rule:nonzero;stroke:none"
                         id="path5360"
                         inkscape:connector-curvature="0" /></g></g></g><g
                   id="g5362"
                   transform="translate(3395,42)"><g
                     id="g5364"><g
                       id="g5366"><path
                         d="M 114,-163 C 36,-179 61,-72 57,0 l -32,0 -1,-190 30,0 c 1,12 -1,29 2,39 6,-27 23,-49 58,-41 l 0,29"
                         style="fill:#000000;fill-opacity:1;fill-rule:nonzero;stroke:none"
                         id="path5368"
                         inkscape:connector-curvature="0" /></g></g></g><g
                   id="g5370"
                   transform="translate(3514,42)"><g
                     id="g5372"><g
                       id="g5374"><path
                         d="m 59,-47 c -2,24 18,29 38,22 l 0,24 C 64,9 27,4 27,-40 l 0,-127 -22,0 0,-23 24,0 9,-43 21,0 0,43 35,0 0,23 -35,0 0,120"
                         style="fill:#000000;fill-opacity:1;fill-rule:nonzero;stroke:none"
                         id="path5376"
                         inkscape:connector-curvature="0" /></g></g></g><g
                   id="g5378"
                   transform="translate(3614,42)"><g
                     id="g5380"><g
                       id="g5382"><path
                         d="m 24,-231 0,-30 32,0 0,30 -32,0 z m 0,231 0,-190 32,0 0,190 -32,0"
                         style="fill:#000000;fill-opacity:1;fill-rule:nonzero;stroke:none"
                         id="path5384"
                         inkscape:connector-curvature="0" /></g></g></g><g
                   id="g5386"
                   transform="translate(3693,42)"><g
                     id="g5388"><g
                       id="g5390"><path
                         d="m 96,-169 c -40,0 -48,33 -48,73 0,40 9,75 48,75 24,0 41,-14 43,-38 l 32,2 C 165,-20 140,4 97,4 38,4 21,-37 15,-95 c -10,-93 101,-131 147,-64 4,7 5,14 7,22 l -32,3 c -4,-21 -16,-35 -41,-35"
                         style="fill:#000000;fill-opacity:1;fill-rule:nonzero;stroke:none"
                         id="path5392"
                         inkscape:connector-curvature="0" /></g></g></g><g
                   id="g5394"
                   transform="translate(3873,42)"><g
                     id="g5396"><g
                       id="g5398"><path
                         d="m 24,0 0,-261 32,0 0,261 -32,0"
                         style="fill:#000000;fill-opacity:1;fill-rule:nonzero;stroke:none"
                         id="path5400"
                         inkscape:connector-curvature="0" /></g></g></g><g
                   id="g5402"
                   transform="translate(3952,42)"><g
                     id="g5404"><g
                       id="g5406"><path
                         d="m 100,-194 c 63,0 86,42 84,106 l -135,0 c 0,40 14,67 53,68 26,1 43,-12 49,-29 l 28,8 C 168,-13 142,4 102,4 44,4 14,-33 15,-96 c 1,-61 26,-98 85,-98 z m 52,81 c 6,-60 -76,-77 -97,-28 -3,7 -6,17 -6,28 l 103,0"
                         style="fill:#000000;fill-opacity:1;fill-rule:nonzero;stroke:none"
                         id="path5408"
                         inkscape:connector-curvature="0" /></g></g></g><g
                   id="g5410"
                   transform="translate(4152,42)"><g
                     id="g5412"><g
                       id="g5414"><path
                         d="m 233,-177 c -1,41 -23,64 -60,70 l 70,107 -38,0 -65,-103 -77,0 0,103 -33,0 0,-248 c 88,3 205,-21 203,71 z m -170,48 c 60,-2 137,13 137,-47 0,-61 -80,-42 -137,-45 l 0,92"
                         style="fill:#000000;fill-opacity:1;fill-rule:nonzero;stroke:none"
                         id="path5416"
                         inkscape:connector-curvature="0" /></g></g></g><g
                   id="g5418"
                   transform="translate(4411,42)"><g
                     id="g5420"><g
                       id="g5422"><path
                         d="m 100,-194 c 63,0 86,42 84,106 l -135,0 c 0,40 14,67 53,68 26,1 43,-12 49,-29 l 28,8 C 168,-13 142,4 102,4 44,4 14,-33 15,-96 c 1,-61 26,-98 85,-98 z m 52,81 c 6,-60 -76,-77 -97,-28 -3,7 -6,17 -6,28 l 103,0"
                         style="fill:#000000;fill-opacity:1;fill-rule:nonzero;stroke:none"
                         id="path5424"
                         inkscape:connector-curvature="0" /></g></g></g><g
                   id="g5426"
                   transform="translate(4611,42)"><g
                     id="g5428"><g
                       id="g5430"><path
                         d="M 141,-36 C 126,-15 110,5 73,4 37,3 15,-17 15,-53 c -1,-64 63,-63 125,-63 3,-35 -9,-54 -41,-54 -24,1 -41,7 -42,31 l -33,-3 c 5,-37 33,-52 76,-52 45,0 72,20 72,64 l 0,82 c -1,20 7,32 28,27 l 0,20 C 169,8 139,-3 141,-36 Z M 48,-53 c 0,20 12,33 32,33 41,-3 63,-29 60,-74 -43,2 -92,-5 -92,41"
                         style="fill:#000000;fill-opacity:1;fill-rule:nonzero;stroke:none"
                         id="path5432"
                         inkscape:connector-curvature="0" /></g></g></g><g
                   id="g5434"
                   transform="translate(4811,42)"><g
                     id="g5436"><g
                       id="g5438"><path
                         d="m 24,0 0,-261 32,0 0,261 -32,0"
                         style="fill:#000000;fill-opacity:1;fill-rule:nonzero;stroke:none"
                         id="path5440"
                         inkscape:connector-curvature="0" /></g></g></g><g
                   id="g5442"
                   transform="translate(4890,42)"><g
                     id="g5444"><g
                       id="g5446"><path
                         d="M 87,75 C 49,33 22,-17 22,-94 c 0,-76 28,-126 65,-167 l 31,0 c -38,41 -64,92 -64,168 0,76 26,127 64,168 l -31,0"
                         style="fill:#000000;fill-opacity:1;fill-rule:nonzero;stroke:none"
                         id="path5448"
                         inkscape:connector-curvature="0" /></g></g></g><g
                   id="g5450"
                   transform="translate(5009,42)"><g
                     id="g5452"><g
                       id="g5454"><path
                         d="m 33,-261 c 38,41 65,92 65,168 C 98,-17 71,34 33,75 L 2,75 C 39,34 66,-17 66,-93 66,-169 39,-220 2,-261 l 31,0"
                         style="fill:#000000;fill-opacity:1;fill-rule:nonzero;stroke:none"
                         id="path5456"
                         inkscape:connector-curvature="0" /></g></g></g></g></g></g></g></g><g
         id="g5458"><g
           id="g5460"><g
             id="g5462"><g
               id="g5464"><g
                 id="g5466"><path
                   d="m 220,50 40,0"
                   style="fill:none;stroke:#000000;stroke-width:2;stroke-linecap:butt;stroke-linejoin:miter;stroke-miterlimit:10;stroke-dasharray:none;stroke-opacity:1"
                   id="path5468"
                   inkscape:connector-curvature="0" /></g></g></g><g
             id="g5470" /><g
             id="g5472"><path
               d="m 260,50 -14.3,4.6 0,-9.2 14.3,4.6 z"
               style="fill:#000000;fill-opacity:1;fill-rule:nonzero;stroke:none"
               id="path5474"
               inkscape:connector-curvature="0" /></g><g
             id="g5476"><path
               d="m 260,48.9 0,2.2 -15.3,4.9 0,-12 15.3,4.9 z m -13.3,4.4 10.1,-3.3 -10.1,-3.3 0,6.6 z"
               style="fill:#000000;fill-opacity:1;fill-rule:nonzero;stroke:none"
               id="path5478"
               inkscape:connector-curvature="0" /></g></g></g><g
         id="g5480"><g
           id="g5482"><g
             id="g5484"><g
               id="g5486"><g
                 id="g5488"><path
                   d="m 438,50 40,0"
                   style="fill:none;stroke:#000000;stroke-width:2;stroke-linecap:butt;stroke-linejoin:miter;stroke-miterlimit:10;stroke-dasharray:none;stroke-opacity:1"
                   id="path5490"
                   inkscape:connector-curvature="0" /></g></g></g><g
             id="g5492" /><g
             id="g5494"><path
               d="m 478,50 -14.3,4.6 0,-9.2 14.3,4.6 z"
               style="fill:#000000;fill-opacity:1;fill-rule:nonzero;stroke:none"
               id="path5496"
               inkscape:connector-curvature="0" /></g><g
             id="g5498"><path
               d="m 478,48.9 0,2.2 -15.3,4.9 0,-12 15.3,4.9 z m -13.3,4.4 10.1,-3.3 -10.1,-3.3 0,6.6 z"
               style="fill:#000000;fill-opacity:1;fill-rule:nonzero;stroke:none"
               id="path5500"
               inkscape:connector-curvature="0" /></g></g></g></g><g
       id="g5502"
       transform="scale(1,-1)" /></g></svg>